<svg width="409" height="349" viewBox="0 0 409 349" fill="none" xmlns="http://www.w3.org/2000/svg">
<g clip-path="url(#clip0_275_438)">
<path d="M208.441 220.844L208.449 220.84L208.441 220.844Z" fill="#9E4141"/>
<path d="M208.49 220.817L208.455 220.836L208.448 220.841C225.474 210.517 243.471 201.346 258.663 188.877C266.19 182.649 272.884 175.439 277.224 167.017C279.405 162.825 280.975 158.359 281.893 153.75C282.354 151.446 282.658 149.109 282.815 146.755C282.896 145.578 282.934 144.396 282.945 143.212L282.933 141.435L282.903 140.546L282.888 140.101L282.881 139.879L282.878 139.767L282.875 139.712C282.816 140.429 282.955 138.704 282.943 138.871L282.949 138.842L283.109 138.876L283.105 138.906C283.16 138.221 283.025 139.855 283.04 139.692L283.041 139.707L283.047 139.765L283.056 139.881L283.076 140.114L283.116 140.578L283.195 141.509L283.296 143.373C283.339 144.616 283.347 145.86 283.315 147.104C283.245 149.593 283 152.077 282.56 154.532C281.686 159.445 280.04 164.241 277.687 168.72C272.973 177.717 265.584 185.251 257.42 191.596C264.602 186.551 271.538 181.075 277.434 174.311C279.858 171.506 282.112 168.493 284.093 165.248C284.95 163.886 285.68 162.323 286.551 160.975C281.041 175.899 269.145 186.744 256.712 194.537C253.613 196.495 250.447 198.323 247.248 200.074C250.617 198.443 253.982 196.803 257.36 195.143C258.832 194.406 260.393 193.518 261.908 192.914C253.471 198.952 244.365 203.674 235.182 207.884C228.663 210.862 222.082 213.683 215.693 216.924C213.246 218.165 210.824 219.478 208.441 220.844L208.442 220.844C208.445 220.843 208.46 220.834 208.49 220.817Z" fill="#9E4141"/>
<path d="M208.439 220.846L208.443 220.844L208.442 220.844L208.439 220.846Z" fill="#9E4141"/>
<path d="M230.877 251.156C235.25 249.705 240.186 250.068 244.291 252.158C248.436 254.246 251.494 257.974 253.531 262.035C257.676 270.254 256.682 280.706 251.113 288.012C245.262 295.071 236.333 299.149 227.327 300.054C218.212 300.924 209.147 298.733 200.639 295.721C183.541 289.575 167.921 280.084 150.874 273.917C142.391 270.888 133.391 268.668 124.331 269.375C115.261 269.974 106.682 274.201 100.165 280.462C99.2807 281.317 98.5631 282.009 98.5625 282.009C98.5619 282.008 99.2773 281.313 100.16 280.457C106.663 274.181 115.242 269.929 124.325 269.309C133.399 268.581 142.418 270.784 150.917 273.799C167.992 279.934 183.642 289.394 200.721 295.49C209.218 298.479 218.254 300.635 227.297 299.751C236.214 298.848 245.096 294.741 250.822 287.794C256.293 280.584 257.244 270.291 253.152 262.222C251.139 258.232 248.118 254.577 244.087 252.563C240.085 250.535 235.277 250.194 231.027 251.614C229.86 251.964 228.949 252.36 228.878 252.216C228.826 252.119 229.67 251.516 230.877 251.156Z" fill="#9E4141"/>
<path d="M230.289 264.313C230.299 264.339 230.972 263.736 231.971 263.518C234.044 263.018 235.98 264.359 236.641 266.261C237.379 268.108 236.935 270.32 235.573 271.678C232.719 274.655 227.256 274.576 224.547 270.967C221.801 267.736 221.244 263.133 222.776 259.459C224.288 255.783 227.736 253.023 231.316 251.537C232.283 251.139 233.113 250.905 233.108 250.887L233.1 250.84C233.103 250.852 232.241 250.912 231.191 251.132C227.305 252.006 223.135 254.263 220.799 258.527C218.495 262.703 218.782 268.674 222.296 272.839C224.078 275.167 227.09 276.611 229.946 276.578C232.837 276.589 235.544 275.247 237.27 273.149C239.066 270.946 239.195 267.822 237.925 265.643C236.811 263.387 233.933 262.151 231.856 263.167C230.828 263.611 230.304 264.342 230.289 264.313ZM237.195 265.667C237.255 265.699 237.651 266.833 237.671 267.351C237.866 268.761 237.554 270.361 236.683 271.644C233.665 276.013 226.328 276.483 222.761 271.501C218.863 266.979 219.44 259.092 224.044 255.183C225.361 254.038 226.797 253.126 228.079 252.63C228.494 252.427 228.908 252.34 229.275 252.232C228.873 252.353 228.447 252.465 228.02 252.68C226.693 253.202 225.289 254.178 224.003 255.315C219.595 259.282 219.285 266.588 222.622 270.85C224.173 273.045 226.633 274.683 229.404 274.785C232.102 274.936 235.007 273.708 236.623 271.375C237.53 270.007 237.745 268.365 237.542 267.083C237.49 266.591 237.186 265.608 237.195 265.667Z" fill="#9E4141"/>
<path fill-rule="evenodd" clip-rule="evenodd" d="M194.895 281.389C194.871 281.502 195.775 280.499 197.572 281.078C199.308 281.544 200.757 285.147 198.226 287.466C197.036 288.523 195.167 289.081 193.325 288.672C191.453 288.314 189.798 286.842 189 284.87C187.103 280.958 189.258 275.321 194.046 273.666C198.545 271.7 204.563 273.001 207.741 277.172C210.971 281.268 211.984 286.962 210.593 291.877C209.204 296.785 205.594 300.885 201.232 302.557C196.954 304.526 192.493 305.109 188.637 304.765C177.213 303.667 167.373 296.488 157.895 289.958C148.362 283.37 138.86 275.931 127.375 272.831C124.411 271.96 117.631 271.086 112.071 273.018C106.497 274.758 102.682 278.125 102.807 278.229C102.962 278.49 106.928 275.429 112.346 273.958C117.751 272.297 124.177 273.235 127.04 274.113C138.07 277.242 147.484 284.578 157.065 291.144C166.601 297.624 176.637 304.856 188.553 305.882C192.57 306.196 197.235 305.526 201.635 303.435C206.209 301.61 209.967 297.24 211.355 292.086C212.749 286.919 211.621 281.014 208.211 276.793C204.812 272.447 198.516 271.186 193.881 273.278C188.934 275.047 186.744 280.976 188.765 284.972C189.602 286.987 191.355 288.515 193.286 288.853C195.194 289.252 197.098 288.657 198.308 287.559C200.88 285.132 199.344 281.5 197.584 281.047C195.76 280.484 194.873 281.504 194.895 281.389Z" fill="#9E4141"/>
<path d="M182.506 178.261C183.054 177.582 182.947 176.589 182.269 176.041C181.591 175.494 180.597 175.599 180.05 176.278C179.503 176.956 179.609 177.95 180.287 178.497C180.965 179.045 181.959 178.938 182.506 178.261Z" fill="#9E4141"/>
<path d="M180.78 334.746C181.536 333.809 181.389 332.438 180.454 331.683C179.517 330.927 178.145 331.073 177.39 332.009C176.634 332.945 176.78 334.317 177.717 335.073C178.653 335.828 180.025 335.682 180.78 334.746Z" fill="#9E4141"/>
<path d="M197.644 284.954C198.573 284.133 198.66 282.714 197.839 281.786C197.017 280.857 195.599 280.769 194.67 281.591C193.742 282.412 193.655 283.831 194.476 284.76C195.297 285.688 196.716 285.775 197.644 284.954Z" fill="#9E4141"/>
<path d="M196.498 370.881C187.458 372.889 177.781 371.959 169.338 368.138C160.889 364.249 154.515 356.3 152.431 347.266C150.407 338.378 152.064 328 158.823 321.451C165.422 314.88 176.525 313.401 184.446 318.364C188.333 320.915 190.852 325.349 191.126 329.975C191.439 334.513 189.61 339.583 185.362 341.765C181.419 343.962 175.506 343.49 172.946 339.405C171.698 337.46 171.449 334.901 172.329 332.765C173.169 330.573 175.611 329.234 177.905 329.587C179.801 329.825 181.047 331.35 181.191 332.557C181.381 333.675 181.058 334.375 181.042 334.474C181.057 334.375 181.378 333.674 181.185 332.558C181.037 331.354 179.79 329.839 177.902 329.609C175.616 329.264 173.194 330.605 172.368 332.78C171.5 334.907 171.757 337.447 173 339.372C175.546 343.411 181.416 343.861 185.311 341.672C189.508 339.501 191.299 334.483 190.979 329.985C190.693 325.405 188.186 321.028 184.34 318.522C176.497 313.641 165.503 315.14 159.014 321.65C152.368 328.119 150.751 338.408 152.782 347.183C154.87 356.107 161.189 363.929 169.527 367.735C177.878 371.484 187.464 372.377 196.384 370.364C205.325 368.401 213.587 363.525 219.618 356.653C225.798 349.829 229.166 340.954 230.727 331.969C233.985 313.909 228.527 294.605 216.527 280.79C210.59 273.835 203.036 268.305 194.695 264.597C186.3 260.991 177.289 258.779 168.185 257.943C149.948 256.273 131.271 260.487 115.47 269.696C99.6433 278.874 86.8211 293.082 79.3367 309.752C78.7058 311.164 78.206 312.263 77.8089 313.111L76.8081 312.303C77.1205 311.469 77.5348 310.443 78.0834 309.183C85.7357 292.277 98.7961 277.903 114.864 268.652C130.908 259.368 149.834 255.162 168.28 256.909C177.497 257.787 186.575 260.041 195.083 263.726C203.54 267.516 211.188 273.154 217.186 280.225C229.31 294.27 234.767 313.834 231.415 332.089C229.814 341.155 226.369 350.154 220.078 357.06C213.939 364.012 205.552 368.922 196.498 370.881Z" fill="#9E4141"/>
<path d="M288.361 229.167C290.401 227.372 291.995 225.077 292.977 222.555C294.56 218.342 294.609 213.233 292.075 209.449C289.587 205.65 284.664 203.653 280.233 204.692C275.778 205.617 272.825 211.088 274.888 215.249C275.877 217.283 278.243 218.48 280.491 218.183C282.796 218.007 284.434 215.405 283.69 213.233C283.234 211.91 281.586 211.111 280.28 211.669C278.903 212.116 278.7 214.57 280.331 214.761C280.799 214.943 281.549 214.417 281.464 213.771C281.374 213.092 280.662 213.161 280.716 213.162C280.656 213.163 281.38 213.055 281.505 213.767C281.626 214.437 280.823 215.038 280.321 214.852C278.563 214.672 278.723 212.028 280.211 211.517C281.613 210.894 283.382 211.719 283.91 213.148C284.75 215.464 283.04 218.281 280.538 218.523C278.158 218.878 275.598 217.642 274.494 215.457C272.218 211.013 275.281 205.164 280.082 204.089C284.772 202.934 290.011 205.004 292.676 209.044C295.393 213.104 295.289 218.436 293.578 222.792C292.518 225.395 290.81 227.749 288.618 229.473C287.964 230.107 285.82 231.288 285.775 231.193C285.755 231.145 287.761 229.818 288.361 229.167Z" fill="#9E4141"/>
<path d="M85.001 225.094C85.1009 224.221 84.4747 223.432 83.6018 223.332C82.7292 223.232 81.9406 223.859 81.8404 224.731C81.7401 225.604 82.3665 226.393 83.2396 226.493C84.1119 226.593 84.9005 225.967 85.001 225.094Z" fill="#9E4141"/>
<path d="M306.894 217.692C306.876 217.673 306.868 217.664 306.851 217.645C306.334 217.766 305.826 217.896 305.324 218.032L308.113 216.317L302.116 219.072C301.588 219.273 301.072 219.488 300.569 219.717L308.357 211.474L299.776 218.466L304.524 210.871L300.137 216.231C300.488 215.555 300.815 214.857 301.11 214.129C301.094 214.113 301.086 214.106 301.07 214.091C300.452 215.265 299.788 216.398 299.097 217.503L296.737 220.389C297.861 217.488 298.313 213.995 299.324 211.011C300.621 207.182 303.5 205.021 308.209 204.77C309.477 204.702 310.682 204.541 311.945 204.461C312.621 204.418 313.283 204.253 314.134 204.445C314.08 206.475 313.877 208.389 313.756 210.357C313.468 215.062 311.281 217.916 307.438 219.183C305.353 219.871 302.999 220.269 300.784 220.825L304.48 218.552C305.277 218.257 306.083 217.973 306.894 217.692Z" fill="#9E4141"/>
<path d="M301.178 223.328C301.181 223.344 301.182 223.352 301.184 223.369C300.918 223.583 300.649 223.789 300.38 223.99L302.362 223.255L298.574 225.207C298.262 225.395 297.948 225.572 297.632 225.736L304.919 225.059L297.951 226.637L303.7 227.247L299.231 227.342C299.714 227.433 300.199 227.545 300.687 227.685C300.688 227.699 300.689 227.706 300.69 227.721C299.847 227.567 299.008 227.453 298.171 227.365L295.765 227.416C297.686 227.999 299.641 229.16 301.56 229.834C304.023 230.698 306.267 230.095 308.268 227.802C308.807 227.185 309.368 226.637 309.912 226.026C310.203 225.7 310.55 225.429 310.79 224.921C309.738 224.14 308.685 223.482 307.636 222.759C305.131 221.035 302.809 221.009 300.636 222.457C299.458 223.243 298.318 224.281 297.154 225.185L299.78 224.212C300.247 223.925 300.712 223.628 301.178 223.328Z" fill="#9E4141"/>
<path d="M211.471 136.152C211.487 136.159 211.495 136.163 211.511 136.17C211.797 135.956 212.077 135.74 212.35 135.52L211.087 137.33L214.054 134.016C214.326 133.75 214.588 133.479 214.837 133.203L212.237 140.388L215.663 133.762L214.768 139.731L216.04 135.24C216.004 135.753 215.989 136.273 216.003 136.801C216.018 136.806 216.024 136.809 216.038 136.814C216.105 135.922 216.211 135.044 216.341 134.175L217.025 131.758C217.109 133.853 217.768 136.133 217.945 138.249C218.171 140.964 216.972 143.073 214.129 144.493C213.362 144.875 212.661 145.298 211.902 145.687C211.496 145.895 211.13 146.175 210.553 146.284C210.042 145.016 209.653 143.778 209.199 142.529C208.115 139.544 208.699 137.191 210.734 135.376C211.838 134.392 213.187 133.513 214.406 132.575L212.732 134.972C212.318 135.369 211.897 135.761 211.471 136.152Z" fill="#9E4141"/>
<path d="M210.299 125.997C210.3 126.01 210.301 126.018 210.302 126.032C210.564 126.159 210.827 126.282 211.089 126.397L209.3 126.16L212.822 127.07C213.117 127.169 213.412 127.256 213.707 127.334L207.51 128.144L213.61 128.144L208.938 129.736L212.678 128.973C212.292 129.139 211.91 129.324 211.53 129.533C211.532 129.544 211.532 129.55 211.534 129.562C212.207 129.276 212.885 129.023 213.565 128.791L215.578 128.381C214.088 129.228 212.678 130.563 211.208 131.486C209.32 132.671 207.338 132.592 205.238 131.059C204.672 130.647 204.102 130.296 203.534 129.891C203.231 129.673 202.89 129.513 202.594 129.135C203.322 128.287 204.076 127.539 204.813 126.741C206.575 124.831 208.503 124.372 210.587 125.169C211.716 125.602 212.861 126.251 214 126.785L211.63 126.469C211.187 126.317 210.743 126.159 210.299 125.997Z" fill="#9E4141"/>
<path d="M173.447 366.819C177.473 368.415 180.081 368.48 181.534 368.264C183.001 368.055 183.406 367.524 183.495 367.001C183.653 365.955 182.648 364.873 185.385 365.026C188.041 364.878 191.744 367.958 201.56 365.88C206.317 364.709 212.538 361.994 218.746 355.83C224.769 349.834 231.368 339.785 231.596 326.283C231.898 328.932 231.835 333.414 230.215 338.92C228.593 344.383 225.366 350.812 220.109 356.609C214.902 362.38 207.652 367.612 199.03 370.069C190.539 372.664 180.437 371.744 173.447 366.819Z" fill="#9E4141"/>
<path d="M88.8832 294.51C93.3902 290.015 101.016 288.096 107.539 290.858C110.706 292.136 113.38 294.734 114.74 298.003C116.131 301.242 116.136 305.135 114.69 308.42C113.281 311.624 110.048 314.019 106.446 314.35C102.837 314.763 99.0559 313.14 97.5294 309.868C95.95 306.72 96.6978 302.246 99.8079 300.505C101.309 299.606 103.203 299.363 104.915 299.914C106.537 300.412 107.873 301.829 108.217 303.565C108.579 305.293 108.016 307.242 106.539 308.174C105.126 309.147 102.869 309.07 101.725 307.744C100.502 306.478 100.629 303.981 102.298 303.102C103.083 302.688 104.173 302.652 104.938 303.165C105.74 303.653 106.111 304.73 105.838 305.682C106.176 304.705 105.83 303.596 105.068 303.051C104.337 302.466 103.317 302.402 102.524 302.655C100.834 303.178 100.168 304.962 100.363 306.29C100.783 309.204 103.501 309.992 104.928 309.909C106.514 309.859 107.466 309.289 108.047 308.98C108.629 308.642 108.892 308.495 109.04 308.533C109.347 308.591 109.049 309.345 109.353 309.297C109.497 309.26 109.866 309.046 110.402 308.27C110.909 307.467 111.564 306.14 111.486 303.96C111.37 301.809 110.261 299.565 108.153 298.111C106.003 296.705 103.1 296.25 100.192 297.365C97.3163 298.39 94.6582 301.517 94.5943 305.454C94.3292 309.267 96.7737 314.032 101.672 315.427C104.053 316.128 106.834 316.1 109.45 315.044C112.055 314.006 114.457 311.876 115.709 308.943C116.973 306.013 117.23 302.363 116.079 298.901C114.944 295.455 112.338 292.154 108.543 290.439C104.765 288.706 99.9888 288.288 95.4617 289.821C90.9447 291.307 86.7058 294.838 84.5513 299.853L88.8832 294.51Z" fill="#9E4141"/>
<path d="M207.111 220.704C207.199 220.816 207.178 220.979 207.064 221.068C206.949 221.157 206.789 221.136 206.704 221.02C206.618 220.905 206.639 220.741 206.75 220.656C206.86 220.57 207.021 220.591 207.111 220.704Z" fill="#9E4141"/>
<path d="M207.867 220.071C207.962 220.177 207.951 220.34 207.841 220.434C207.731 220.53 207.568 220.518 207.476 220.407C207.384 220.298 207.396 220.134 207.501 220.043C207.607 219.952 207.77 219.965 207.867 220.071Z" fill="#9E4141"/>
<path d="M208.579 219.39C208.681 219.49 208.684 219.658 208.578 219.756C208.472 219.857 208.308 219.854 208.209 219.75C208.11 219.646 208.113 219.483 208.213 219.387C208.316 219.292 208.477 219.29 208.579 219.39Z" fill="#9E4141"/>
<path d="M209.244 218.665C209.352 218.758 209.364 218.923 209.27 219.034C209.174 219.142 209.005 219.146 208.901 219.049C208.795 218.951 208.791 218.792 208.883 218.688C208.975 218.582 209.136 218.571 209.244 218.665Z" fill="#9E4141"/>
<path d="M209.504 217.945C209.589 217.834 209.751 217.814 209.865 217.901C209.979 217.986 210 218.15 209.911 218.265C209.822 218.379 209.66 218.399 209.549 218.308C209.439 218.218 209.418 218.054 209.504 217.945Z" fill="#9E4141"/>
<path d="M210.078 217.164C210.158 217.049 210.32 217.02 210.439 217.099C210.558 217.178 210.588 217.338 210.505 217.458C210.422 217.576 210.26 217.606 210.144 217.523C210.028 217.439 209.998 217.278 210.078 217.164Z" fill="#9E4141"/>
<path d="M210.604 216.351C210.678 216.233 210.83 216.189 210.955 216.261C211.078 216.331 211.125 216.494 211.048 216.617C210.971 216.74 210.81 216.778 210.689 216.703C210.568 216.627 210.53 216.469 210.604 216.351Z" fill="#9E4141"/>
<path d="M211.072 215.503C211.135 215.378 211.289 215.327 211.418 215.391C211.546 215.453 211.598 215.61 211.534 215.741C211.471 215.87 211.311 215.918 211.184 215.85C211.059 215.782 211.012 215.629 211.072 215.503Z" fill="#9E4141"/>
<path d="M211.487 214.628C211.543 214.5 211.696 214.44 211.828 214.496C211.96 214.551 212.02 214.703 211.962 214.836C211.904 214.969 211.75 215.027 211.62 214.968C211.491 214.908 211.43 214.755 211.487 214.628Z" fill="#9E4141"/>
<path d="M212.001 214.059C211.867 214.008 211.799 213.86 211.849 213.73C211.901 213.599 212.044 213.529 212.179 213.576C212.314 213.622 212.39 213.772 212.336 213.908C212.285 214.043 212.134 214.111 212.001 214.059Z" fill="#9E4141"/>
<path d="M212.325 213.129C212.187 213.085 212.117 212.945 212.153 212.81C212.189 212.675 212.331 212.597 212.47 212.635C212.607 212.672 212.689 212.817 212.65 212.956C212.613 213.097 212.46 213.172 212.325 213.129Z" fill="#9E4141"/>
<path d="M212.395 211.872C212.425 211.735 212.563 211.648 212.704 211.678C212.844 211.707 212.931 211.845 212.9 211.986C212.868 212.128 212.73 212.215 212.591 212.18C212.452 212.146 212.364 212.008 212.395 211.872Z" fill="#9E4141"/>
<path d="M212.792 211.216C212.651 211.19 212.556 211.059 212.58 210.921C212.606 210.784 212.736 210.688 212.876 210.708C213.019 210.728 213.119 210.861 213.091 211.005C213.066 211.147 212.932 211.242 212.792 211.216Z" fill="#9E4141"/>
<path d="M212.935 210.242C212.792 210.225 212.693 210.1 212.706 209.96C212.717 209.821 212.842 209.718 212.985 209.729C213.127 209.74 213.234 209.866 213.222 210.011C213.209 210.155 213.075 210.259 212.935 210.242Z" fill="#9E4141"/>
<path d="M213.02 209.26C212.877 209.253 212.765 209.133 212.769 208.994C212.772 208.855 212.892 208.743 213.036 208.745C213.178 208.747 213.291 208.867 213.286 209.012C213.283 209.158 213.163 209.268 213.02 209.26Z" fill="#9E4141"/>
<path d="M213.036 208.277C212.893 208.277 212.775 208.165 212.772 208.026C212.77 207.886 212.884 207.767 213.025 207.761C213.169 207.754 213.288 207.866 213.29 208.011C213.293 208.157 213.178 208.275 213.036 208.277Z" fill="#9E4141"/>
<path d="M212.995 207.292C212.852 207.302 212.729 207.197 212.719 207.059C212.703 206.919 212.805 206.794 212.948 206.778C213.09 206.762 213.219 206.867 213.235 207.011C213.246 207.155 213.137 207.281 212.995 207.292Z" fill="#9E4141"/>
<path d="M212.895 206.312C212.754 206.331 212.62 206.235 212.597 206.097C212.575 205.96 212.671 205.828 212.811 205.803C212.952 205.778 213.086 205.875 213.11 206.017C213.133 206.161 213.038 206.293 212.895 206.312Z" fill="#9E4141"/>
<path d="M212.724 205.342C212.584 205.37 212.446 205.282 212.417 205.145C212.387 205.01 212.477 204.871 212.616 204.838C212.756 204.804 212.892 204.892 212.924 205.034C212.954 205.175 212.865 205.313 212.724 205.342Z" fill="#9E4141"/>
<path d="M212.497 204.383C212.358 204.421 212.217 204.341 212.182 204.207C212.146 204.071 212.217 203.931 212.355 203.888C212.49 203.846 212.641 203.923 212.679 204.063C212.717 204.202 212.635 204.347 212.497 204.383Z" fill="#9E4141"/>
<path d="M212.214 203.441C212.078 203.486 211.934 203.415 211.884 203.286C211.833 203.156 211.904 203.008 212.037 202.957C212.17 202.906 212.32 202.975 212.371 203.111C212.425 203.246 212.35 203.395 212.214 203.441Z" fill="#9E4141"/>
<path d="M211.865 202.519C211.733 202.574 211.579 202.514 211.525 202.386C211.469 202.258 211.53 202.105 211.659 202.046C211.79 201.986 211.942 202.047 212 202.179C212.058 202.314 211.998 202.464 211.865 202.519Z" fill="#9E4141"/>
<path d="M211.459 201.622C211.33 201.684 211.176 201.633 211.113 201.508C211.053 201.383 211.103 201.227 211.227 201.161C211.355 201.093 211.512 201.142 211.576 201.273C211.64 201.403 211.587 201.559 211.459 201.622Z" fill="#9E4141"/>
<path d="M210.999 200.752C210.875 200.822 210.719 200.78 210.65 200.659C210.576 200.54 210.614 200.383 210.736 200.308C210.858 200.233 211.019 200.271 211.096 200.394C211.166 200.52 211.123 200.681 210.999 200.752Z" fill="#9E4141"/>
<path d="M210.127 199.843C210.047 199.728 210.077 199.568 210.193 199.486C210.309 199.403 210.472 199.432 210.554 199.551C210.639 199.668 210.606 199.831 210.485 199.91C210.367 199.988 210.208 199.956 210.127 199.843Z" fill="#9E4141"/>
<path d="M209.557 199.061C209.472 198.952 209.493 198.788 209.602 198.697C209.713 198.607 209.875 198.626 209.965 198.741C210.055 198.856 210.034 199.018 209.92 199.105C209.805 199.19 209.642 199.17 209.557 199.061Z" fill="#9E4141"/>
<path d="M208.935 198.324C208.839 198.224 208.846 198.062 208.949 197.963C209.052 197.863 209.216 197.867 209.317 197.974C209.418 198.079 209.405 198.249 209.297 198.342C209.189 198.437 209.033 198.425 208.935 198.324Z" fill="#9E4141"/>
<path d="M208.254 197.641C208.153 197.545 208.146 197.383 208.24 197.276C208.336 197.168 208.501 197.16 208.606 197.262C208.712 197.361 208.717 197.526 208.617 197.629C208.517 197.731 208.354 197.737 208.254 197.641Z" fill="#9E4141"/>
<path d="M207.522 197.014C207.413 196.93 207.393 196.768 207.479 196.654C207.565 196.539 207.728 196.518 207.845 196.607C207.96 196.696 207.977 196.862 207.884 196.972C207.794 197.081 207.633 197.098 207.522 197.014Z" fill="#9E4141"/>
<path d="M206.743 196.446C206.628 196.366 206.593 196.213 206.67 196.09C206.746 195.971 206.911 195.932 207.031 196.015C207.15 196.098 207.18 196.26 207.098 196.377C207.016 196.494 206.856 196.524 206.743 196.446Z" fill="#9E4141"/>
<path d="M205.919 195.944C205.799 195.876 205.754 195.718 205.821 195.591C205.889 195.465 206.046 195.42 206.172 195.491C206.301 195.562 206.344 195.72 206.271 195.844C206.199 195.966 206.041 196.011 205.919 195.944Z" fill="#9E4141"/>
<path d="M205.06 195.505C204.934 195.449 204.876 195.297 204.933 195.166C204.99 195.035 205.143 194.975 205.277 195.034C205.411 195.092 205.464 195.253 205.401 195.381C205.337 195.511 205.188 195.56 205.06 195.505Z" fill="#9E4141"/>
<path d="M204.168 195.137C204.039 195.086 203.969 194.943 204.014 194.808C204.06 194.673 204.212 194.597 204.347 194.651C204.484 194.703 204.551 194.852 204.498 194.986C204.446 195.119 204.298 195.187 204.168 195.137Z" fill="#9E4141"/>
<path d="M203.252 194.842C203.118 194.805 203.037 194.663 203.073 194.524C203.108 194.385 203.251 194.305 203.391 194.343C203.531 194.382 203.612 194.523 203.57 194.661C203.528 194.797 203.386 194.879 203.252 194.842Z" fill="#9E4141"/>
<path d="M202.313 194.615C202.177 194.591 202.086 194.458 202.11 194.318C202.134 194.175 202.27 194.082 202.414 194.107C202.557 194.137 202.646 194.278 202.615 194.416C202.585 194.555 202.45 194.643 202.313 194.615Z" fill="#9E4141"/>
<path d="M201.359 194.469C201.222 194.449 201.12 194.324 201.133 194.182C201.146 194.039 201.275 193.934 201.419 193.955C201.564 193.973 201.665 194.102 201.645 194.244C201.625 194.386 201.497 194.487 201.359 194.469Z" fill="#9E4141"/>
<path d="M200.399 194.395C200.26 194.391 200.149 194.272 200.151 194.128C200.153 193.985 200.273 193.873 200.419 193.877C200.564 193.88 200.676 194.002 200.667 194.146C200.658 194.288 200.537 194.398 200.399 194.395Z" fill="#9E4141"/>
<path d="M199.434 194.394C199.296 194.402 199.176 194.294 199.167 194.151C199.157 194.009 199.268 193.884 199.413 193.876C199.56 193.873 199.679 193.987 199.682 194.13C199.684 194.273 199.574 194.39 199.434 194.394Z" fill="#9E4141"/>
<path d="M198.473 194.474C198.335 194.49 198.206 194.387 198.186 194.247C198.165 194.104 198.266 193.977 198.411 193.96C198.556 193.943 198.684 194.045 198.698 194.187C198.712 194.33 198.611 194.458 198.473 194.474Z" fill="#9E4141"/>
<path d="M197.52 194.626C197.384 194.655 197.249 194.565 197.216 194.426C197.185 194.286 197.275 194.148 197.417 194.118C197.559 194.085 197.697 194.182 197.722 194.323C197.747 194.464 197.656 194.594 197.52 194.626Z" fill="#9E4141"/>
<path d="M196.583 194.853C196.449 194.888 196.309 194.816 196.266 194.678C196.223 194.544 196.3 194.391 196.442 194.355C196.583 194.316 196.726 194.399 196.762 194.538C196.797 194.676 196.718 194.817 196.583 194.853Z" fill="#9E4141"/>
<path d="M195.668 195.156C195.539 195.205 195.39 195.136 195.336 195.004C195.283 194.871 195.351 194.722 195.487 194.67C195.623 194.62 195.772 194.688 195.819 194.822C195.867 194.958 195.799 195.107 195.668 195.156Z" fill="#9E4141"/>
<path d="M194.777 195.527C194.653 195.588 194.5 195.534 194.436 195.406C194.372 195.278 194.427 195.122 194.558 195.057C194.69 194.995 194.845 195.057 194.903 195.188C194.96 195.319 194.903 195.468 194.777 195.527Z" fill="#9E4141"/>
<path d="M193.923 195.972C193.802 196.04 193.644 195.995 193.571 195.874C193.496 195.75 193.54 195.593 193.667 195.521C193.794 195.45 193.952 195.495 194.02 195.621C194.087 195.747 194.044 195.905 193.923 195.972Z" fill="#9E4141"/>
<path d="M192.745 196.413C192.662 196.297 192.692 196.134 192.812 196.051C192.929 195.965 193.096 196.004 193.172 196.123C193.25 196.245 193.214 196.398 193.102 196.481C192.988 196.561 192.828 196.53 192.745 196.413Z" fill="#9E4141"/>
<path d="M191.967 197.015C191.875 196.908 191.886 196.74 192.001 196.648C192.117 196.557 192.281 196.578 192.368 196.691C192.454 196.805 192.437 196.965 192.328 197.05C192.22 197.136 192.061 197.125 191.967 197.015Z" fill="#9E4141"/>
<path d="M191.25 197.69C191.148 197.593 191.141 197.422 191.248 197.321C191.354 197.22 191.519 197.223 191.617 197.328C191.714 197.433 191.712 197.595 191.613 197.69C191.512 197.785 191.355 197.79 191.25 197.69Z" fill="#9E4141"/>
<path d="M190.605 198.433C190.494 198.347 190.47 198.177 190.566 198.067C190.662 197.955 190.826 197.942 190.934 198.036C191.041 198.131 191.055 198.293 190.966 198.398C190.874 198.501 190.719 198.523 190.605 198.433Z" fill="#9E4141"/>
<path d="M190.391 199.166C190.311 199.278 190.158 199.315 190.035 199.237C189.916 199.162 189.876 198.996 189.961 198.877C190.045 198.756 190.207 198.726 190.323 198.81C190.439 198.893 190.47 199.053 190.391 199.166Z" fill="#9E4141"/>
<path d="M189.894 199.986C189.827 200.107 189.678 200.157 189.549 200.092C189.422 200.029 189.365 199.869 189.437 199.741C189.51 199.613 189.668 199.567 189.792 199.639C189.916 199.71 189.961 199.866 189.894 199.986Z" fill="#9E4141"/>
<path d="M189.482 200.853C189.427 200.98 189.283 201.044 189.148 200.993C189.015 200.943 188.946 200.788 189.004 200.653C189.062 200.519 189.216 200.458 189.346 200.517C189.477 200.576 189.537 200.727 189.482 200.853Z" fill="#9E4141"/>
<path d="M188.99 201.434C189.126 201.48 189.201 201.624 189.158 201.755C189.119 201.886 188.979 201.965 188.84 201.927C188.703 201.89 188.62 201.744 188.662 201.603C188.707 201.464 188.854 201.388 188.99 201.434Z" fill="#9E4141"/>
<path d="M188.924 202.685C188.899 202.821 188.766 202.912 188.625 202.887C188.483 202.864 188.389 202.728 188.415 202.583C188.448 202.44 188.586 202.35 188.726 202.383C188.865 202.415 188.954 202.55 188.924 202.685Z" fill="#9E4141"/>
<path d="M188.555 203.352C188.697 203.37 188.797 203.497 188.781 203.634C188.771 203.771 188.645 203.875 188.503 203.865C188.36 203.855 188.253 203.728 188.265 203.582C188.282 203.436 188.413 203.333 188.555 203.352Z" fill="#9E4141"/>
<path d="M188.479 204.334C188.623 204.339 188.733 204.454 188.732 204.591C188.735 204.729 188.621 204.845 188.477 204.849C188.334 204.853 188.216 204.738 188.214 204.591C188.215 204.444 188.336 204.329 188.479 204.334Z" fill="#9E4141"/>
<path d="M188.5 205.318C188.644 205.309 188.763 205.414 188.778 205.551C188.795 205.688 188.692 205.813 188.549 205.831C188.408 205.849 188.279 205.746 188.263 205.6C188.246 205.454 188.359 205.328 188.5 205.318Z" fill="#9E4141"/>
<path d="M188.84 206.049C188.863 206.185 188.767 206.315 188.625 206.341C188.484 206.366 188.351 206.27 188.327 206.125C188.301 205.981 188.409 205.848 188.549 205.831C188.694 205.814 188.815 205.913 188.84 206.049Z" fill="#9E4141"/>
<path d="M188.717 206.802C188.859 206.77 188.991 206.856 189.028 206.989C189.064 207.122 188.981 207.262 188.844 207.302C188.706 207.341 188.563 207.258 188.526 207.116C188.486 206.974 188.58 206.831 188.717 206.802Z" fill="#9E4141"/>
<path d="M188.981 207.751C189.118 207.705 189.258 207.778 189.309 207.906C189.358 208.034 189.289 208.183 189.156 208.236C189.023 208.288 188.874 208.219 188.822 208.082C188.768 207.946 188.847 207.794 188.981 207.751Z" fill="#9E4141"/>
<path d="M189.679 208.79C189.741 208.914 189.687 209.067 189.56 209.133C189.433 209.199 189.277 209.145 189.212 209.013C189.145 208.883 189.208 208.725 189.338 208.668C189.47 208.61 189.616 208.668 189.679 208.79Z" fill="#9E4141"/>
<path d="M190.051 209.987C189.931 210.065 189.771 210.027 189.693 209.902C189.612 209.78 189.661 209.616 189.784 209.546C189.911 209.474 190.06 209.519 190.136 209.634C190.21 209.751 190.172 209.909 190.051 209.987Z" fill="#9E4141"/>
<path d="M190.63 210.783C190.519 210.874 190.352 210.854 190.259 210.739C190.166 210.624 190.199 210.457 190.314 210.376C190.433 210.292 190.587 210.321 190.673 210.428C190.761 210.534 190.74 210.693 190.63 210.783Z" fill="#9E4141"/>
<path d="M191.291 211.513C191.192 211.615 191.026 211.615 190.922 211.511C190.818 211.406 190.818 211.245 190.928 211.147C191.031 211.055 191.199 211.055 191.296 211.151C191.392 211.247 191.391 211.409 191.291 211.513Z" fill="#9E4141"/>
<path d="M192.034 212.158C191.949 212.271 191.785 212.29 191.671 212.197C191.557 212.103 191.541 211.94 191.634 211.833C191.728 211.725 191.891 211.707 191.997 211.794C192.104 211.88 192.12 212.043 192.034 212.158Z" fill="#9E4141"/>
<path d="M192.853 212.703C192.782 212.829 192.619 212.873 192.497 212.788C192.374 212.706 192.339 212.544 192.419 212.426C192.499 212.308 192.657 212.272 192.771 212.349C192.883 212.428 192.924 212.58 192.853 212.703Z" fill="#9E4141"/>
<path d="M193.607 212.804C193.734 212.855 193.792 213.004 193.737 213.136C193.682 213.269 193.527 213.331 193.39 213.275C193.256 213.212 193.205 213.048 193.268 212.922C193.334 212.793 193.483 212.746 193.607 212.804Z" fill="#9E4141"/>
<path d="M194.498 213.143C194.629 213.182 194.703 213.326 194.666 213.464C194.627 213.603 194.481 213.68 194.339 213.637C194.199 213.593 194.123 213.45 194.171 213.315C194.22 213.182 194.366 213.103 194.498 213.143Z" fill="#9E4141"/>
<path d="M195.42 213.376C195.554 213.403 195.646 213.54 195.624 213.681C195.603 213.823 195.468 213.914 195.323 213.886C195.179 213.856 195.087 213.719 195.119 213.581C195.151 213.441 195.286 213.349 195.42 213.376Z" fill="#9E4141"/>
<path d="M196.363 213.501C196.5 213.516 196.608 213.622 196.604 213.769C196.601 213.909 196.478 214.035 196.331 214.018C196.184 214.003 196.077 213.876 196.091 213.734C196.105 213.591 196.228 213.487 196.363 213.501Z" fill="#9E4141"/>
<path d="M197.316 213.5C197.453 213.488 197.574 213.594 197.588 213.737C197.602 213.879 197.494 214.004 197.347 214.018C197.2 214.036 197.077 213.913 197.074 213.77C197.072 213.627 197.18 213.519 197.316 213.5Z" fill="#9E4141"/>
<path d="M198.261 213.383C198.397 213.357 198.53 213.451 198.562 213.59C198.593 213.73 198.501 213.865 198.355 213.892C198.21 213.92 198.075 213.828 198.056 213.685C198.035 213.544 198.127 213.409 198.261 213.383Z" fill="#9E4141"/>
<path d="M199.185 213.154C199.316 213.116 199.462 213.194 199.509 213.325C199.559 213.463 199.483 213.607 199.341 213.648C199.199 213.69 199.053 213.611 199.016 213.473C198.978 213.336 199.053 213.192 199.185 213.154Z" fill="#9E4141"/>
<path d="M200.412 212.935C200.477 213.061 200.425 213.224 200.292 213.287C200.155 213.343 199.999 213.282 199.945 213.149C199.89 213.017 199.948 212.868 200.075 212.817C200.198 212.757 200.348 212.806 200.412 212.935Z" fill="#9E4141"/>
<path d="M201.186 212.803C201.065 212.887 200.9 212.84 200.83 212.716C200.76 212.591 200.801 212.441 200.913 212.361C201.027 212.286 201.185 212.322 201.265 212.44C201.345 212.558 201.309 212.721 201.186 212.803Z" fill="#9E4141"/>
<path d="M202.05 211.848C202.146 211.955 202.131 212.118 202.016 212.212C201.9 212.307 201.737 212.291 201.652 212.175C201.567 212.06 201.582 211.897 201.687 211.811C201.792 211.726 201.955 211.742 202.05 211.848Z" fill="#9E4141"/>
<path d="M202.73 211.137C202.841 211.227 202.855 211.395 202.762 211.51C202.658 211.618 202.488 211.62 202.386 211.52C202.284 211.419 202.28 211.262 202.374 211.164C202.46 211.059 202.619 211.046 202.73 211.137Z" fill="#9E4141"/>
<path d="M202.942 210.411C203.017 210.298 203.178 210.265 203.302 210.337C203.426 210.409 203.46 210.569 203.377 210.693C203.295 210.818 203.133 210.851 203.018 210.768C202.901 210.684 202.867 210.524 202.942 210.411Z" fill="#9E4141"/>
<path d="M203.397 209.584C203.448 209.458 203.598 209.398 203.731 209.451C203.864 209.503 203.927 209.657 203.87 209.796C203.818 209.936 203.646 209.985 203.523 209.922C203.391 209.856 203.351 209.712 203.397 209.584Z" fill="#9E4141"/>
<path d="M203.889 209.01C203.753 208.966 203.674 208.824 203.714 208.694C203.757 208.565 203.887 208.482 204.028 208.513C204.167 208.544 204.261 208.689 204.214 208.831C204.171 208.974 204.026 209.054 203.889 209.01Z" fill="#9E4141"/>
<path d="M204.406 207.826C204.39 207.974 204.264 208.076 204.12 208.054C203.982 208.031 203.877 207.903 203.891 207.767C203.905 207.633 204.032 207.531 204.175 207.541C204.317 207.55 204.421 207.677 204.406 207.826Z" fill="#9E4141"/>
<path d="M203.931 206.824C203.922 206.689 204.025 206.569 204.169 206.557C204.311 206.544 204.438 206.655 204.45 206.804C204.449 206.952 204.332 207.073 204.189 207.073C204.046 207.07 203.93 206.959 203.931 206.824Z" fill="#9E4141"/>
<path d="M204.117 206.091C203.976 206.111 203.84 206.02 203.815 205.887C203.79 205.754 203.882 205.618 204.021 205.583C204.16 205.55 204.295 205.641 204.323 205.787C204.351 205.934 204.258 206.069 204.117 206.091Z" fill="#9E4141"/>
<path d="M203.891 205.133C203.75 205.176 203.62 205.101 203.565 204.977C203.514 204.852 203.58 204.704 203.712 204.65C203.844 204.594 203.996 204.662 204.052 204.799C204.112 204.936 204.023 205.092 203.891 205.133Z" fill="#9E4141"/>
<path d="M203.52 204.222C203.391 204.285 203.236 204.24 203.173 204.119C203.113 203.999 203.155 203.842 203.274 203.769C203.398 203.693 203.56 203.736 203.626 203.869C203.696 204.001 203.648 204.16 203.52 204.222Z" fill="#9E4141"/>
<path d="M203.065 203.012C203.165 203.126 203.13 203.296 203.014 203.377C202.896 203.46 202.745 203.43 202.656 203.33C202.571 203.226 202.589 203.066 202.697 202.971C202.804 202.877 202.97 202.895 203.065 203.012Z" fill="#9E4141"/>
<path d="M202.016 202.651C201.912 202.567 201.898 202.407 201.986 202.293C202.073 202.179 202.239 202.165 202.356 202.26C202.474 202.354 202.471 202.532 202.374 202.632C202.271 202.737 202.12 202.734 202.016 202.651Z" fill="#9E4141"/>
<path d="M201.255 202.109C201.137 202.047 201.093 201.892 201.156 201.764C201.22 201.637 201.381 201.59 201.514 201.66C201.646 201.733 201.68 201.905 201.602 202.022C201.523 202.144 201.372 202.173 201.255 202.109Z" fill="#9E4141"/>
<path d="M200.407 201.723C200.278 201.684 200.205 201.541 200.243 201.404C200.281 201.266 200.429 201.189 200.574 201.232C200.718 201.278 200.784 201.44 200.73 201.57C200.675 201.705 200.534 201.763 200.407 201.723Z" fill="#9E4141"/>
<path d="M199.497 201.507C199.364 201.494 199.265 201.367 199.276 201.224C199.287 201.082 199.417 200.978 199.568 200.994C199.717 201.012 199.813 201.158 199.786 201.296C199.758 201.438 199.63 201.522 199.497 201.507Z" fill="#9E4141"/>
<path d="M198.563 201.469C198.43 201.481 198.309 201.376 198.292 201.234C198.276 201.091 198.385 200.965 198.535 200.951C198.686 200.939 198.808 201.065 198.807 201.205C198.806 201.351 198.697 201.458 198.563 201.469Z" fill="#9E4141"/>
<path d="M197.641 201.609C197.512 201.647 197.373 201.566 197.33 201.43C197.286 201.294 197.369 201.149 197.514 201.107C197.659 201.066 197.803 201.166 197.829 201.304C197.856 201.447 197.77 201.573 197.641 201.609Z" fill="#9E4141"/>
<path d="M196.761 201.923C196.643 201.986 196.492 201.934 196.422 201.809C196.354 201.683 196.406 201.524 196.54 201.454C196.677 201.39 196.835 201.457 196.888 201.589C196.942 201.723 196.882 201.866 196.761 201.923Z" fill="#9E4141"/>
<path d="M195.961 202.402C195.856 202.483 195.7 202.464 195.607 202.355C195.514 202.246 195.534 202.077 195.654 201.984C195.78 201.899 195.944 201.929 196.022 202.05C196.099 202.17 196.073 202.327 195.961 202.402Z" fill="#9E4141"/>
<path d="M195.262 202.674C195.366 202.774 195.368 202.927 195.289 203.033C195.206 203.135 195.043 203.149 194.927 203.066C194.811 202.983 194.796 202.818 194.892 202.7C194.985 202.578 195.16 202.575 195.262 202.674Z" fill="#9E4141"/>
<path d="M194.786 203.804C194.724 203.919 194.586 203.978 194.449 203.924C194.319 203.873 194.249 203.71 194.321 203.575C194.392 203.44 194.55 203.389 194.673 203.461C194.797 203.533 194.848 203.687 194.786 203.804Z" fill="#9E4141"/>
<path d="M194.182 204.87C194.04 204.849 193.949 204.711 193.979 204.561C194.004 204.41 194.16 204.327 194.295 204.367C194.435 204.408 194.506 204.541 194.485 204.672C194.46 204.801 194.323 204.889 194.182 204.87Z" fill="#9E4141"/>
<path d="M194.139 205.337C194.282 205.344 194.398 205.457 194.396 205.588C194.395 205.72 194.299 205.837 194.154 205.852C194.015 205.866 193.878 205.755 193.878 205.601C193.879 205.448 193.996 205.33 194.139 205.337Z" fill="#9E4141"/>
<path d="M194.22 206.316C194.363 206.288 194.487 206.373 194.53 206.497C194.567 206.625 194.488 206.765 194.352 206.813C194.217 206.861 194.072 206.781 194.03 206.634C193.981 206.488 194.082 206.343 194.22 206.316Z" fill="#9E4141"/>
<path d="M194.425 207.602C194.354 207.467 194.402 207.308 194.532 207.248C194.662 207.188 194.817 207.233 194.878 207.35C194.934 207.469 194.908 207.616 194.785 207.697C194.668 207.773 194.492 207.741 194.425 207.602Z" fill="#9E4141"/>
<path d="M195.046 208.448C194.932 208.341 194.95 208.163 195.06 208.076C195.172 207.984 195.322 207.998 195.418 208.085C195.507 208.178 195.508 208.338 195.418 208.445C195.323 208.556 195.155 208.559 195.046 208.448Z" fill="#9E4141"/>
<path d="M196.138 208.627C196.25 208.692 196.301 208.841 196.246 208.97C196.189 209.105 196.029 209.161 195.893 209.085C195.752 209.016 195.715 208.844 195.794 208.726C195.874 208.606 196.022 208.573 196.138 208.627Z" fill="#9E4141"/>
<path d="M196.989 208.932C197.115 208.962 197.209 209.083 197.194 209.226C197.18 209.367 197.042 209.476 196.89 209.44C196.737 209.414 196.649 209.266 196.689 209.128C196.729 208.992 196.862 208.911 196.989 208.932Z" fill="#9E4141"/>
<path d="M198.174 209.19C198.201 209.326 198.103 209.477 197.947 209.485C197.792 209.501 197.665 209.394 197.662 209.247C197.66 209.108 197.763 208.983 197.892 208.97C198.021 208.965 198.145 209.046 198.174 209.19Z" fill="#9E4141"/>
<path d="M199.099 208.864C199.167 208.987 199.116 209.158 198.971 209.215C198.827 209.273 198.673 209.211 198.628 209.074C198.584 208.939 198.645 208.787 198.764 208.74C198.885 208.693 199.028 208.736 199.099 208.864Z" fill="#9E4141"/>
<path d="M199.883 208.275C199.989 208.369 199.988 208.541 199.872 208.649C199.749 208.75 199.582 208.737 199.499 208.618C199.418 208.503 199.428 208.341 199.526 208.262C199.618 208.177 199.775 208.179 199.883 208.275Z" fill="#9E4141"/>
<path d="M200.168 207.902C200.05 207.825 200.007 207.675 200.062 207.563C200.121 207.452 200.261 207.393 200.398 207.443C200.53 207.49 200.599 207.654 200.526 207.795C200.455 207.938 200.29 207.982 200.168 207.902Z" fill="#9E4141"/>
<path d="M200.303 206.714C200.321 206.589 200.424 206.482 200.572 206.479C200.711 206.475 200.84 206.601 200.819 206.76C200.807 206.919 200.666 207.021 200.526 206.992C200.386 206.962 200.295 206.839 200.303 206.714Z" fill="#9E4141"/>
<path d="M200.712 205.689C200.762 205.841 200.664 205.989 200.524 206.013C200.382 206.037 200.255 205.956 200.215 205.837C200.185 205.714 200.245 205.577 200.379 205.52C200.508 205.465 200.672 205.535 200.712 205.689Z" fill="#9E4141"/>
<path d="M199.811 205.056C199.728 204.967 199.743 204.808 199.841 204.704C199.939 204.6 200.108 204.612 200.218 204.734C200.325 204.855 200.283 205.03 200.165 205.103C200.04 205.181 199.894 205.146 199.811 205.056Z" fill="#9E4141"/>
<path d="M199.137 204.531C199.03 204.473 198.969 204.332 199.006 204.2C199.048 204.057 199.206 203.985 199.352 204.06C199.501 204.129 199.556 204.285 199.475 204.41C199.4 204.525 199.247 204.582 199.137 204.531Z" fill="#9E4141"/>
<path d="M198.3 204.359C198.18 204.377 198.06 204.276 198.034 204.135C198.007 203.995 198.117 203.861 198.279 203.841C198.441 203.848 198.562 203.971 198.546 204.114C198.532 204.257 198.421 204.367 198.3 204.359Z" fill="#9E4141"/>
<path d="M197.133 204.508C197.045 204.395 197.087 204.234 197.227 204.151C197.364 204.06 197.53 204.126 197.584 204.261C197.634 204.392 197.582 204.531 197.482 204.603C197.377 204.665 197.22 204.621 197.133 204.508Z" fill="#9E4141"/>
<path d="M130.852 222.807C130.099 223.813 129.06 224.611 127.903 225.039C126.794 225.447 125.641 225.493 124.651 225.253C123.712 225.023 122.921 224.539 122.37 223.952C121.849 223.398 121.538 222.754 121.421 222.155C121.31 221.592 121.366 221.067 121.518 220.65C121.833 219.783 122.634 219.233 123.558 219.398C124.252 219.521 124.714 220.184 124.591 220.877C124.467 221.571 123.805 222.032 123.111 221.909C122.932 221.877 122.767 221.81 122.624 221.713C122.703 221.971 122.832 222.237 123.018 222.488C123.35 222.934 123.867 223.339 124.521 223.575C125.218 223.822 126.074 223.876 126.932 223.647C127.843 223.405 128.701 222.86 129.36 222.123C130.049 221.347 130.518 220.368 130.725 219.346C131.158 217.188 130.384 214.964 129.193 213.475C128.027 212.017 126.554 211.213 125.419 210.774C125.465 210.816 125.512 210.859 125.556 210.906C126.081 211.446 126.473 212.317 126.372 213.229C126.32 213.668 126.156 214.106 125.885 214.469C125.622 214.819 125.261 215.096 124.858 215.245C124.473 215.387 124.071 215.403 123.726 215.319C123.399 215.24 123.122 215.069 122.931 214.866C122.749 214.673 122.641 214.449 122.6 214.241C122.563 214.045 122.582 213.862 122.635 213.717C122.744 213.415 123.023 213.224 123.344 213.281C123.587 213.325 123.748 213.555 123.705 213.795C123.662 214.037 123.431 214.199 123.188 214.157C123.127 214.146 123.069 214.12 123.019 214.087C123.048 214.176 123.091 214.27 123.157 214.357C123.272 214.512 123.451 214.654 123.681 214.735C123.921 214.822 124.221 214.84 124.519 214.76C124.836 214.675 125.136 214.486 125.363 214.23C125.605 213.96 125.768 213.619 125.841 213.263C125.99 212.514 125.723 211.737 125.307 211.219C124.984 210.814 124.592 210.555 124.246 210.389C123.604 210.21 123.232 210.145 123.223 210.068C123.222 210.059 123.225 210.05 123.234 210.042C123.231 210.038 123.228 210.037 123.228 210.034C123.227 210.02 123.259 210.004 123.322 209.995C123.565 209.918 124.234 209.877 125.238 210.061C126.514 210.296 128.353 210.969 129.91 212.574C131.417 214.126 132.551 216.63 132.25 219.248C132.105 220.509 131.63 221.766 130.852 222.807Z" fill="#9E4141"/>
<path d="M175.321 118.464C174.806 119.041 175.673 119.679 176.216 119.457C176.804 119.296 177.011 118.599 177.005 118.143C176.887 117.105 175.998 116.615 175.43 116.473C174.185 116.193 173.685 116.504 173.495 116.247C173.291 116.073 173.476 115.68 173.283 115.576C173.142 115.476 172.178 115.683 171.297 117.455C170.416 119.203 171.28 122.196 173.819 123.149C176.11 124.356 180.254 123.15 181.086 119.259C181.504 117.463 181.237 115.136 179.57 113.491C177.963 111.807 175.215 110.605 172.189 111.097C169.177 111.485 166.16 114.021 164.669 117.879C163.147 121.624 163.395 127.018 167.083 131.214C165.78 129.517 163.914 126.291 164.171 122.069C164.334 118.117 167.153 112.657 172.048 111.854C174.414 111.463 177.135 112.286 178.751 114.183C180.326 115.843 180.267 118.854 178.539 120.517C177.185 122.174 173.451 121.061 173.998 118.81C174.181 117.676 175.333 117.102 176.201 117.842C176.557 118.098 176.544 118.784 176.194 119.118C175.861 119.45 174.929 119.092 175.321 118.464Z" fill="#9E4141"/>
<path d="M114.097 335.736L114.164 335.66C118.273 339.138 123.7 340.963 129.01 340.676C134.323 340.437 139.482 338.105 143.135 334.312C150.361 326.814 152.872 315.472 149.788 305.739C146.899 295.743 138.249 288.695 129.06 285.158C119.728 281.544 109.108 281.566 99.8285 285.152C115.643 279.111 135.013 284.769 144.224 298.194C147.881 303.755 149.27 310.601 148.194 316.901C147.772 319.562 146.885 322.345 145.611 324.571C148.339 318.764 148.792 311.885 146.827 305.694C144.941 299.403 140.478 294.255 134.863 290.583C123.785 283.074 108.588 281.996 96.3708 288.017C93.3526 289.47 90.5089 291.312 87.9571 293.514C86.6986 294.542 85.3949 295.914 84.4056 296.918C84.0463 297.414 83.7063 297.875 83.3768 298.321C86.9697 293.869 91.8612 290.586 96.8908 288.36C99.5626 287.191 102.632 286.279 105.363 285.94C96.5847 287.87 88.1954 292.991 83.0713 300.494C80.5061 304.121 78.3115 308.017 76.5644 312.106L74.9044 310.766C76.5553 306.626 78.6523 302.658 81.1228 298.952C86.4264 290.794 95.0968 285.174 104.487 282.814C113.91 280.428 124.193 281.544 132.94 285.931C137.298 288.158 141.311 290.999 144.634 294.774C147.886 298.558 150.163 303.182 151.162 308.084C153.231 317.89 150.058 328.68 142.515 335.602C134.83 342.769 121.893 342.763 114.097 335.736Z" fill="#9E4141"/>
<path d="M95.2355 267.859C86.4655 278.434 78.6695 290.25 75.0846 303.653C74.5182 305.691 74.077 307.755 73.751 309.835L73.6787 309.777C74 307.709 74.4357 305.657 74.9949 303.629C78.5581 290.198 86.3428 278.349 95.1004 267.747C112.849 246.494 134.693 229.22 153.266 208.786C157.888 203.666 162.321 198.361 166.265 192.703C170.049 187.664 173.298 180.994 174.994 174.457C176.762 167.81 177.261 160.829 176.436 154C175.641 147.18 173.513 140.444 169.482 134.846C161.67 123.491 147.382 117.078 133.72 118.844C126.897 119.513 120.316 122.589 115.79 127.756C111.673 132.34 109.246 138.392 109.037 144.54C109.042 143.133 109.154 141.836 109.32 140.715C109.868 137.154 110.827 135.096 110.792 135.094C110.803 135.089 109.685 137.062 108.883 140.637C108.699 141.503 108.537 142.474 108.426 143.524C108.866 137.566 111.32 131.774 115.322 127.337C119.953 122.059 126.733 118.92 133.651 118.261C147.53 116.495 162.004 123.035 169.896 134.557C173.969 140.231 176.113 147.079 176.898 153.945C177.716 160.833 177.198 167.871 175.404 174.566C173.683 181.148 170.39 187.869 166.578 192.922C162.611 198.59 158.158 203.897 153.519 209.015C134.878 229.439 113.01 246.661 95.2355 267.859Z" fill="#9E4141"/>
<path d="M131.086 148.611C131.087 148.611 131.09 148.611 131.092 148.611C131.09 148.611 131.087 148.612 131.086 148.611Z" fill="#9E4141"/>
<path d="M110.792 135.094C110.828 135.097 109.868 137.154 109.321 140.715C109.154 141.836 109.043 143.133 109.037 144.54C109.027 147.527 109.501 151.014 110.988 154.388C113.136 159.342 118.124 163.45 123.572 164.551C129.024 165.756 134.585 164.302 137.348 161.296C141.479 157.4 142.52 149.81 138.371 145.852C136.361 143.898 133.258 143.056 130.495 143.802C127.788 144.504 125.8 147.48 126.347 150.414C126.478 151.578 127.373 152.966 128.866 153.607C130.327 154.201 132.384 153.984 133.215 152.547C134.106 151.215 133.674 149.437 132.723 148.925C131.866 148.401 131.176 148.606 131.091 148.611C131.174 148.603 131.851 148.355 132.769 148.85C133.787 149.333 134.377 151.194 133.48 152.71C132.633 154.351 130.342 154.759 128.655 154.17C126.913 153.557 125.727 151.974 125.47 150.592C124.593 147.287 126.641 143.472 130.031 142.35C133.299 141.238 137.106 142.024 139.744 144.339C145.241 149.28 144.101 158.286 139.125 163.099C135.647 166.804 129.022 168.264 123.069 166.652C116.999 165.173 111.777 160.336 109.78 154.903C108.242 150.78 108.086 146.768 108.427 143.524C108.538 142.474 108.7 141.503 108.884 140.637C109.685 137.062 110.804 135.09 110.792 135.094ZM119.657 164.705C122.617 166.201 126.037 166.889 129.422 166.612C132.782 166.455 136.252 165.102 138.681 162.648C143.418 158.142 144.503 149.471 139.391 144.866C138.589 144.122 136.803 143.02 135.066 142.732C133.342 142.372 131.882 142.69 131.9 142.749C131.905 142.845 133.356 142.707 134.956 143.188C136.577 143.6 138.16 144.723 138.86 145.441C143.263 149.813 142.078 157.679 137.792 161.747C133.281 166.232 125.668 166.512 119.97 164.032C117.784 163.334 114.026 160.361 114.085 160.253C113.867 160.381 117.529 163.912 119.657 164.705Z" fill="#9E4141"/>
<path d="M119.969 164.032C125.667 166.511 133.28 166.232 137.791 161.747C142.077 157.679 143.261 149.813 138.859 145.441C138.159 144.723 136.575 143.6 134.955 143.188C133.355 142.707 131.903 142.845 131.899 142.749C131.881 142.69 133.34 142.372 135.065 142.732C136.802 143.02 138.588 144.122 139.39 144.866C144.502 149.471 143.417 158.142 138.679 162.648C136.25 165.102 132.781 166.455 129.421 166.612C126.036 166.889 122.616 166.201 119.656 164.705C117.528 163.912 113.865 160.381 114.084 160.253C114.025 160.361 117.783 163.334 119.969 164.032Z" fill="white"/>
<path d="M202.597 249.048C190.27 251.239 177.866 251.973 165.6 253.171C148.285 254.834 130.484 257.568 114.913 266.305C99.2588 274.858 87.576 289.483 80.3064 305.526C79.2189 307.879 78.2119 310.265 77.2725 312.677L77.1078 312.544C78.0246 310.142 79.0086 307.764 80.0728 305.417C87.2343 289.297 98.8746 274.5 114.607 265.797C130.253 256.914 148.166 254.108 165.513 252.438C177.798 251.236 190.172 250.515 202.433 248.369C214.636 246.25 226.908 242.489 237.314 235.283C247.765 228.177 255.744 217.839 261.078 206.544C266.487 195.226 269.632 183.046 271.626 170.857C269.765 183.012 266.739 195.206 261.416 206.599C256.168 217.965 248.214 228.448 237.706 235.692C227.245 243.037 214.861 246.885 202.597 249.048Z" fill="#9E4141"/>
<path d="M304.461 118.564C304.738 118.72 305.03 118.885 304.72 118.712L304.72 118.72L304.72 118.712C304.768 118.737 304.629 118.659 304.461 118.564Z" fill="#9E4141"/>
<path d="M304.72 118.719L304.719 118.725L304.718 118.736L304.719 118.725L304.72 118.719Z" fill="#9E4141"/>
<path d="M191.335 238.848C176.489 240.945 161.512 242.461 146.744 245.7C132.046 248.904 117.349 254.105 105.096 263.388C92.7821 272.554 83.6355 285.512 77.7487 299.494C76.289 302.917 74.998 306.396 73.8512 309.915L73.5902 309.705C74.6901 306.245 75.9314 302.82 77.3362 299.445C83.1143 285.38 92.2227 272.248 104.598 262.912C116.912 253.458 131.74 248.146 146.51 244.885C161.355 241.588 176.367 240.054 191.19 237.963C212.115 235.047 233.574 230.807 252.016 219.397C270.568 208.208 283.987 189.855 291.976 170.009C296.928 157.973 300.249 145.312 302.59 132.609C302.996 130.268 303.414 127.929 303.758 125.579C303.939 124.406 304.12 123.233 304.272 122.057L304.509 120.294L304.627 119.414L304.686 118.973L304.715 118.753L304.718 118.736L304.715 118.754L304.686 118.973L304.628 119.415L304.511 120.296L304.276 122.06C304.128 123.238 303.95 124.412 303.774 125.585C303.439 127.936 303.034 130.276 302.641 132.618C300.367 145.34 297.143 158.024 292.265 170.131C284.411 190.063 271.053 208.623 252.414 219.998C233.888 231.589 212.297 235.924 191.335 238.848Z" fill="#9E4141"/>
<path d="M303.986 118.49L304.069 118.416L304.111 118.38L304.069 118.416L303.986 118.49Z" fill="#9E4141"/>
<path d="M304.116 118.375L304.111 118.38L304.117 118.375L304.119 118.373L304.116 118.375Z" fill="#9E4141"/>
<path d="M304.119 118.373C303.779 118.181 304.166 118.398 304.461 118.564C304.258 118.45 304.064 118.342 304.119 118.373Z" fill="#9E4141"/>
<path d="M241.643 244.705C219.513 246.285 197.372 243.37 175.23 243.761C163.99 243.959 152.676 245.033 141.904 248.397C129.517 252.265 118.04 258.858 108.003 267.03C93.8005 278.593 81.9968 293.978 75.5122 311.256L75.3521 311.127C81.2752 295.432 91.5958 281.321 104.022 270.167C113.456 261.698 124.372 254.803 136.191 250.189C146.707 246.085 157.814 244.351 169.042 243.769C191.276 242.616 213.486 245.6 235.726 244.815C246.579 244.432 257.467 243.09 267.835 239.753C278.57 236.298 288.381 230.514 296.554 222.741C297.689 221.662 298.783 220.54 299.852 219.395C299.942 219.299 300.074 219.454 299.986 219.548C292.352 227.725 283.105 234.093 272.706 238.221C262.816 242.148 252.217 243.951 241.643 244.705Z" fill="#9E4141"/>
<path d="M207.811 220.819C189.872 229.25 171.296 236.221 153.148 244.173C136.012 251.683 118.832 260.049 104.306 272.011C91.3507 282.679 81.4884 296.456 77.3955 312.777L77.1843 312.606C77.4122 311.674 77.6566 310.745 77.9235 309.821C80.2889 301.63 84.2182 293.963 89.3166 287.142C99.9054 272.974 115.055 262.906 130.497 254.712C147.885 245.486 166.294 238.353 184.436 230.786C202.126 223.408 219.947 215.733 235.941 205.052C250.297 195.465 262.977 182.963 269.51 166.716C271.188 162.545 272.418 158.2 273.259 153.785C274.193 148.883 274.871 143.678 274.375 138.697C273.047 125.362 265.638 113.173 254.673 105.555C243.741 97.9592 228.419 94.7826 215.812 99.8504C203.016 104.995 194.716 118.499 195.917 132.236C196.518 139.121 200.5 145.339 206.258 149.068C212.082 152.84 220.135 153.945 226.348 150.52C232.556 147.098 236.261 138.746 233.295 132.041C230.264 125.191 218.805 122.678 215.925 131.009C215.629 131.863 215.559 132.767 215.575 133.663C215.577 133.821 215.333 133.803 215.331 133.646C215.284 130.94 216.513 128.236 218.848 126.757C221.385 125.151 224.387 125.154 227.169 126.11C233.103 128.152 235.351 134.431 234.204 140.188C233.02 146.129 228.251 150.811 222.47 152.33C216.501 153.899 209.749 151.937 204.861 148.408C194.139 140.668 193.535 125.992 199.086 114.938C201.853 109.43 206.275 104.846 211.55 101.693C217.113 98.3673 223.463 97.0796 229.89 97.2255C242.553 97.513 254.658 103.289 263.108 112.665C267.334 117.351 270.516 122.935 272.522 128.909C274.391 134.476 275.036 140.161 274.557 145.989C273.831 154.82 271.559 163.492 267.668 171.461C264.036 178.896 259.006 185.562 253.181 191.415C240.391 204.268 224.079 213.172 207.811 220.819Z" fill="#9E4141"/>
<path d="M72.2068 308.587C72.3094 307.149 72.5081 305.718 72.8066 304.31C74.6723 295.496 79.3479 287.621 84.2436 280.186C89.7805 271.825 95.958 263.882 101.102 255.264C105.968 247.056 110.18 237.704 109.162 227.942C108.325 220.271 104.522 212.146 97.0089 209.068C92.8002 207.189 87.9011 206.873 83.4904 208.254C83.251 208.322 83.017 208.423 82.787 208.505C81.7972 208.831 80.8407 209.33 79.8997 209.808C76.2782 211.726 73.5615 215.24 72.8349 219.255C72.0484 223.222 73.215 227.547 75.9164 230.486C78.6881 233.482 83.5189 234.148 86.9997 232.102C90.702 230.344 91.5827 224.809 88.5377 222.149C86.7293 220.465 83.1145 220.868 82.1846 223.28C82.0292 223.638 81.9204 224.35 82.027 224.967C82.1297 225.586 82.4322 226.049 82.353 226.101C82.3223 226.133 81.9088 225.713 81.7103 225.043C81.5079 224.38 81.5756 223.548 81.7286 223.124C82.696 220.186 86.8324 219.632 89.0224 221.574C92.5895 224.596 91.4946 230.854 87.3788 232.769C83.5738 234.96 78.3807 234.133 75.4879 230.89C72.6852 227.729 71.6004 223.246 72.4792 219.182C73.3017 215.075 76.1525 211.553 79.8287 209.681C80.7768 209.219 81.7375 208.74 82.7257 208.423C84.6404 207.757 86.7306 207.337 88.802 207.301C95.2549 207.157 101.699 210.444 105.216 215.88C109.936 223.592 110.544 233.357 107.539 241.803C104.348 251.37 98.5125 259.73 92.8126 267.933C87.2853 275.85 81.4726 283.649 77.1539 292.319C74.6318 297.392 72.683 302.945 72.243 308.617L72.2068 308.587Z" fill="#9E4141"/>
<path d="M99.2926 279.984C92.2238 286.475 85.6621 293.854 81.8284 302.744C80.2443 306.3 79.2538 310.074 78.807 313.916L78.7675 313.884C79.2083 310.046 80.1911 306.275 81.767 302.718C85.5884 293.806 92.1451 286.402 99.207 279.891C113.471 266.849 130.159 256.802 144.388 243.736C151.425 237.214 157.946 229.77 161.606 220.808C165.185 211.955 165.728 201.545 162.024 192.695C157.947 183.955 148.717 177.944 139.077 177.791C134.315 177.705 129.37 178.737 125.466 181.536C121.687 184.216 119.03 188.396 118.164 192.939C118.277 191.891 118.458 191.062 118.44 191.059L118.393 191.045C118.407 191.047 118.042 191.891 117.733 192.99C117.647 193.316 117.571 193.649 117.501 193.986C117.524 193.768 117.557 193.538 117.604 193.3C118.409 188.463 121.199 183.996 125.203 181.168C129.224 178.302 134.253 177.272 139.089 177.369C148.885 177.545 158.236 183.669 162.353 192.539C166.097 201.553 165.507 211.991 161.888 220.923C158.182 229.942 151.617 237.395 144.554 243.916C130.272 256.975 113.57 266.982 99.2926 279.984Z" fill="#9E4141"/>
<path d="M118.394 191.044L118.44 191.058C118.458 191.062 118.277 191.891 118.164 192.939C118.159 192.982 118.155 193.024 118.15 193.068C117.749 197.179 118.612 201.813 121.33 205.096C124.035 208.394 128.683 210.184 133.13 209.193C137.933 208.426 140.749 203.239 139.325 199.036C138.704 197.053 136.81 195.531 134.686 195.319C132.548 195.005 130.311 196.192 129.766 198.402C129.483 199.456 129.722 200.386 129.693 200.383C129.727 200.384 129.305 199.525 129.402 198.34C129.492 195.886 132.075 193.817 134.737 193.896C137.404 193.791 140.252 195.46 141.419 198.221C142.523 200.871 142.439 204.062 141.001 206.755C139.621 209.439 136.794 211.538 133.738 212.058C128.106 213.292 122.372 210.625 119.584 206.41C116.957 202.465 116.683 197.885 117.501 193.986C117.572 193.649 117.647 193.316 117.734 192.99C118.042 191.891 118.407 191.047 118.394 191.044ZM118.012 201.727C119.419 207.989 126.532 212.44 132.725 211.03C139.179 210.165 142.42 203.024 139.791 197.992C139.012 196.53 137.651 195.442 136.223 194.931C135.731 194.699 134.496 194.517 134.405 194.551C134.493 194.559 135.451 194.737 135.907 194.916C137.22 195.352 138.672 196.368 139.519 197.908C140.927 200.601 140.635 203.962 139.141 206.433C137.658 208.997 134.883 210.493 132.045 210.855C126.368 211.865 119.666 207.942 118.111 201.833C117.676 200.059 117.448 198.253 117.605 196.744C117.612 196.235 117.715 195.778 117.796 195.339C117.72 195.739 117.6 196.172 117.589 196.664C117.43 198.118 117.584 199.92 118.012 201.727Z" fill="#9E4141"/>
<path d="M134.935 259.486C121.101 265.656 107.262 272.45 96.1549 282.621C90.6437 287.688 86.0008 293.693 82.9373 300.466C80.9795 304.781 79.6851 309.368 78.985 314.059L76.5022 312.055C77.3136 307.682 78.6285 303.399 80.5043 299.352C83.7892 292.23 88.722 285.975 94.4643 280.778C106.047 270.349 120.121 263.622 134.073 257.516C148.101 251.439 162.418 246.162 176.14 239.623C189.724 233.079 203.256 225.223 212.439 213.132C216.994 207.141 220.154 200.117 221.602 192.72C222.268 189.055 222.844 185.182 222.525 181.539C222.163 177.809 221.15 174.148 219.575 170.744C213.429 156.988 196.86 148.482 182.167 152.557C174.952 154.659 168.964 160.58 166.74 167.782C165.607 171.354 165.233 175.257 166.055 178.926C166.925 182.583 169.089 185.911 172.088 188.2C175.096 190.482 178.899 191.653 182.676 191.517C186.454 191.379 190.07 189.236 192.01 185.975C193.897 182.791 194.445 178.397 192.177 175.249C190.062 172.165 185.378 170.698 182.153 172.944C179.603 174.822 179.895 177.695 179.847 177.742C179.893 177.686 179.579 174.819 182.126 172.908C185.364 170.618 190.107 172.055 192.284 175.172C194.616 178.363 194.095 182.83 192.198 186.087C190.248 189.426 186.569 191.652 182.689 191.824C178.844 191.993 174.948 190.829 171.85 188.515C168.762 186.196 166.51 182.797 165.585 179.038C164.71 175.25 165.065 171.288 166.195 167.61C168.418 160.214 174.516 154.074 181.947 151.844C197.045 147.54 214.078 156.116 220.567 170.276C222.222 173.779 223.299 177.56 223.704 181.418C224.064 185.369 223.503 189.151 222.851 192.964C221.428 200.55 218.23 207.812 213.6 213.999C204.254 226.487 190.553 234.541 176.921 241.243C163.146 247.937 148.845 253.331 134.935 259.486Z" fill="#9E4141"/>
<path d="M179.84 177.738C179.843 177.743 179.845 177.743 179.846 177.742C179.845 177.743 179.843 177.743 179.841 177.739L179.84 177.738Z" fill="#9E4141"/>
</g>
<defs>
<clipPath id="clip0_275_438">
<rect width="303" height="303" fill="white" transform="matrix(0.778127 0.628107 0.628107 -0.778127 -18 235.772)"/>
</clipPath>
</defs>
</svg>
