<svg width="161" height="231" viewBox="0 0 161 231" fill="none" xmlns="http://www.w3.org/2000/svg">
<path d="M15.0555 29.8173C11.6207 30.3055 8.15181 31.7338 4.71415 32.6312C3.6686 32.9041 2.615 33.1147 1.56801 33.289C1.21968 33.3472 0.866767 33.4037 0.517578 33.498C0.85529 33.6095 1.18927 33.7502 1.52555 33.8606C2.53295 34.1911 3.54608 34.5522 4.53913 34.9764C7.80549 36.3726 11.0239 38.2968 14.3488 39.2894C17.7168 40.2949 21.0721 40.1318 24.537 38.5307C25.5722 38.0517 26.6103 37.4888 27.624 36.8134C27.8361 36.6724 28.2062 36.4222 28.4917 36.1642C28.486 36.1625 28.4794 36.1622 28.4742 36.1594C28.4398 36.1487 27.616 35.6079 26.2132 35.2393C24.8193 34.8451 22.8235 34.8214 20.8423 34.9337C18.8679 35.1014 16.8557 35.3611 15.3488 35.2536C13.8235 35.1966 12.9205 34.6709 12.9294 34.6792C12.9231 34.6726 13.8527 35.1315 15.3531 35.0851C16.8465 35.0905 18.7913 34.7041 20.7857 34.3983C22.7807 34.1506 24.8417 34.0262 26.4101 34.3524C27.4117 34.5442 28.1669 34.8354 28.5915 35.024C28.3436 34.7173 28.0031 34.4023 27.8171 34.2332C26.9182 33.4126 25.9716 32.7043 25.0187 32.0774C21.8299 29.9816 18.5351 29.3232 15.0555 29.8173Z" fill="#9E4141"/>
<path d="M30.7093 24.1033C29.4692 21.9042 27.5818 19.9302 26.0619 17.8372C25.6003 17.2009 25.1785 16.5422 24.7831 15.8786C24.6514 15.6576 24.5194 15.4335 24.3633 15.2217C24.3765 15.4796 24.3694 15.7436 24.3837 16.0007C24.4256 16.7712 24.448 17.5534 24.4227 18.3388C24.3384 20.9225 23.8827 23.6134 24.0876 26.13C24.2956 28.6788 25.2938 30.9105 27.298 32.8361C27.8971 33.4111 28.5542 33.9657 29.281 34.4745C29.4327 34.5808 29.7007 34.766 29.9512 34.8909C29.9515 34.8866 29.9498 34.8821 29.9504 34.8778C29.9486 34.852 30.0978 34.1503 29.9773 33.1015C29.8763 32.0521 29.3647 30.6929 28.7645 29.3799C28.1281 28.0857 27.4194 26.7907 27.0943 25.7402C26.7293 24.6911 26.8478 23.9402 26.8441 23.9485C26.8467 23.9422 26.7813 24.6943 27.2096 25.6989C27.601 26.7122 28.378 27.9289 29.1134 29.1999C29.8089 30.4868 30.4387 31.8509 30.6324 33.0006C30.7667 33.7301 30.769 34.3194 30.7529 34.6568C30.8955 34.4074 31.0194 34.0935 31.0851 33.9227C31.4048 33.0963 31.6355 32.2674 31.8093 31.4557C32.3895 28.7392 31.9654 26.3312 30.7093 24.1033Z" fill="#9E4141"/>
<path d="M22.612 40.5234C20.7717 42.2533 19.3055 44.5569 17.6353 46.5318C17.1272 47.132 16.5883 47.699 16.0377 48.2416C15.8546 48.4221 15.6687 48.6036 15.5 48.8065C15.7476 48.7314 16.0059 48.6752 16.2523 48.5999C16.9912 48.3743 17.7458 48.1653 18.5153 48.0019C21.0463 47.4648 23.7704 47.2621 26.1676 46.4604C28.5947 45.6484 30.5243 44.1453 31.9153 41.7402C32.3308 41.0216 32.7124 40.2514 33.0326 39.4248C33.1 39.2516 33.2157 38.9475 33.2771 38.6749C33.2731 38.6758 33.269 38.6787 33.2647 38.6789C33.2398 38.687 32.5222 38.7102 31.532 39.0782C30.5364 39.4276 29.3379 40.2494 28.2054 41.1463C27.1001 42.0735 26.0115 43.071 25.0684 43.6383C24.1362 44.2436 23.3776 44.3084 23.3864 44.3101C23.3801 44.3087 24.1264 44.1923 25.0001 43.5362C25.8913 42.9139 26.8878 41.8686 27.9466 40.8508C29.0311 39.8682 30.2058 38.9303 31.2766 38.4674C31.9535 38.1622 32.5259 38.0191 32.8576 37.9535C32.5813 37.8747 32.2461 37.8299 32.0645 37.8067C31.1851 37.6952 30.324 37.67 29.4934 37.6958C26.7148 37.7835 24.4765 38.7718 22.612 40.5234Z" fill="#9E4141"/>
<path d="M18.426 121.052C12.3902 121.793 7.14983 119.291 5.45123 115.746C3.61806 112.325 4.04845 109.366 4.50696 107.512C5.67245 103.722 7.09962 103.257 7.79255 103.414C8.55348 103.609 9.04785 104.485 9.66532 104.504C10.3445 104.568 10.784 103.699 12.6238 101.222C14.6243 98.8995 16.2721 95.7073 22.3578 93.7502C25.4505 92.7667 29.2896 91.9699 34.0058 92.4695C38.6741 92.9665 44.2775 94.9285 49.5414 99.3788C54.7993 103.777 59.6406 110.566 62.53 119.479C65.7068 128.363 65.4664 139.635 63.4002 151.182C61.5699 162.809 57.4947 175.453 59.0292 189.674C60.9281 203.643 67.7566 220.076 83.3694 230.952C77.428 226.514 68.7537 217.606 63.7861 203.726C61.2993 196.867 59.7121 188.875 60.4021 180.49C60.9347 171.953 63.3322 162.848 65.438 152.665C66.4669 147.568 67.3824 142.161 67.6677 136.436C68.0036 130.754 67.4266 124.399 65.7748 118.673C62.6126 107.12 55.4116 95.2865 43.2755 89.1027C37.2911 86.0811 30.3662 84.895 23.8699 85.5602C22.1145 85.7517 20.8666 85.9486 19.04 86.288C17.3179 86.7139 15.6133 87.2388 14.0269 88.0385C10.819 89.5565 8.06168 91.859 5.96942 94.5694C1.8681 99.9543 -0.0979083 107.14 2.31657 113.714C3.49125 116.979 6.26323 119.641 9.34568 120.721C12.4511 121.773 15.5789 121.655 18.426 121.052Z" fill="#9E4141"/>
<path d="M26.8485 35.0484C26.5145 34.9627 26.5136 34.9668 26.8485 35.0459C35.9916 36.9821 44.9133 40.5418 52.4236 46.2916C60.0085 51.9256 65.9869 59.6226 70.1493 68.1421C78.5468 85.318 80.2557 104.998 78.7835 123.85C78.0378 133.273 76.0735 142.846 73.8461 151.813C71.7469 160.884 69.8741 169.946 68.9261 179.045C68.0306 188.114 68.0229 197.297 70.316 205.938C72.5342 214.563 77.3735 222.481 84.4308 228.292C86.3979 230.99 86.1933 231.531 82.8598 230.366C74.8012 225.078 68.6335 216.651 65.7235 207.288C62.7053 197.912 62.4646 188.014 63.2978 178.503C64.1878 168.957 66.1937 159.648 68.4943 150.525C70.9561 141.368 73.0458 132.603 74.1706 123.371C76.3234 105.173 75.7205 86.0368 68.3767 68.9627C64.7347 60.4939 59.2464 52.7024 51.9691 46.8712C44.7733 40.9284 35.9675 37.1099 26.8485 35.0484Z" fill="#9E4141"/>
<path d="M69.1233 184.745L69.4822 182.227C70.8351 173.953 74.5731 166.43 79.1226 159.641C82.2963 154.955 85.8884 150.546 89.7418 146.39C93.6135 142.159 97.7114 138.179 102.094 134.545C106.441 130.967 111.118 127.801 116.276 125.394C120.573 123.426 125.243 122.103 130.12 121.631C128.178 121.574 126.228 121.601 124.284 121.787C121.657 122.109 119.033 122.593 116.499 123.396C111.247 125.001 106.325 127.567 101.905 130.713C97.8311 133.636 94.1458 137.076 90.5738 140.554C88.7186 142.421 86.8128 144.257 85.0508 146.212C84.8118 146.471 84.6405 146.26 84.8743 145.996C86.6688 143.935 88.6365 142 90.5245 140.029C94.1007 136.389 97.8342 132.881 102.026 129.878C109.448 124.634 118.417 121.123 127.668 120.953C124.38 120.816 121.055 121.049 117.759 121.562C112.613 122.416 107.496 123.973 102.701 126.302C97.1427 128.95 91.9324 132.515 87.4108 136.828C82.8989 141.184 79.1198 146.225 76.2563 151.63C73.3858 156.953 71.3745 162.609 70.1487 168.309C69.5215 171.195 69.1637 174.117 68.9623 177.013C68.7899 179.605 68.8143 182.254 69.1233 184.745Z" fill="#9E4141"/>
<path d="M72.3704 135.726C73.3035 132.45 74.22 127.425 74.3445 122.194C74.5161 116.973 73.8145 111.572 72.7099 107.874C71.1005 102.484 68.0209 96.7519 63.7741 92.4688C59.5841 88.126 54.2832 85.5067 49.748 84.9902C53.7877 86.3942 57.1748 90.0309 59.6897 94.0558C62.2709 98.1094 64.0516 102.457 66.6916 106.259C65.2509 105.084 63.6023 103.18 62.3171 103.361C65.6598 108.576 69.8802 114.315 72.2493 120.564C71.219 118.322 69.6197 117.137 68.3707 116.584C70.5711 122.021 73.0872 128.786 72.3908 135.548L72.3704 135.726Z" fill="#9E4141"/>
<path d="M80.2997 218.795C79.8822 219.542 79.5284 220.74 79.8584 222.252C78.686 218.227 78.6338 213.758 78.3388 209.883C77.6258 210.276 77.5196 211.853 77.2413 212.986C77.1283 210.084 76.3791 207.232 76.1418 204.227C75.8822 201.262 76.2061 198.161 77.701 195.934C75.6225 197.902 73.9546 201.214 73.4941 204.971C72.9828 208.719 73.6045 212.754 74.8334 216.063C75.677 218.334 77.3656 221.307 79.4234 223.859C81.4626 226.435 83.8197 228.609 85.5254 229.9L85.4477 229.818C82.544 226.69 81.2497 222.35 80.2997 218.795Z" fill="#9E4141"/>
<path d="M82.946 52.6439C79.0392 55.9224 76.2471 60.2382 74.8248 64.2614C73.8475 67.0222 73.2743 71.0276 73.513 74.8771C73.7098 78.736 74.6423 82.4192 75.5639 84.8129L75.5424 84.6813C74.789 79.7097 77.039 74.646 79.0142 70.5724C77.8542 71.015 76.3774 71.9339 75.4474 73.6165C77.5675 68.9389 81.4281 64.5864 84.4736 60.6452C83.269 60.5466 81.7561 61.9981 80.4273 62.9044C82.8366 60.0255 84.4371 56.7668 86.7893 53.7041C89.0793 50.6641 92.1907 47.8861 95.946 46.7393C91.7144 47.244 86.7971 49.3232 82.946 52.6439Z" fill="#9E4141"/>
<path d="M36.5804 182.441C38.9618 183.248 41.2492 184.437 43.3217 185.848C50.2859 190.627 54.7861 197.697 59.5574 204.881C64.2721 211.974 68.9464 219.418 75.903 225.101C78.0073 226.813 80.3713 228.325 82.9315 229.451C83.7705 229.849 84.6789 230.139 85.5399 230.473C84.6944 230.085 83.8192 229.757 83.007 229.32C80.5331 228.086 78.2956 226.47 76.3652 224.659C69.9894 218.643 66.2952 211.002 61.9148 203.668C57.5311 196.299 52.4606 188.774 44.3351 184.447C41.945 183.188 39.3684 182.253 36.7907 181.799C35.8553 181.575 33.6425 181.374 33.6388 181.448C33.6207 181.566 35.7623 182.101 36.5804 182.441Z" fill="#9E4141"/>
<path d="M84.0984 229.435C83.194 229.015 82.3146 228.501 81.4162 228.038C78.4818 226.373 75.7494 224.595 72.9306 222.702C70.1555 220.834 67.432 218.889 64.9114 216.732C64.1364 216.077 63.3944 215.389 62.661 214.693L61.9219 214.002L62.552 214.809L64.4787 217.221C66.5881 219.866 68.8021 222.598 71.5508 224.918C74.3099 227.268 77.5909 228.989 80.9979 229.715C82.0348 229.901 83.0126 230.105 84.01 230.115C84.3735 230.131 85.1907 230.154 85.1961 230.054C85.203 229.955 84.418 229.584 84.0984 229.435Z" fill="#9E4141"/>
<path d="M61.013 206.332C60.7588 205.491 60.4501 204.595 60.0599 203.781C58.6967 200.912 56.9186 198.41 54.3552 196.072C51.8317 193.769 48.7275 192.163 45.8811 191.245C44.9983 190.916 44.0285 190.753 43.1467 190.56C42.8486 190.503 42.5347 190.482 42.2363 190.454C42.5801 190.526 42.7631 190.547 43.1046 190.647C43.9481 190.909 44.8812 191.165 45.6792 191.593C48.4038 192.918 50.9351 195.001 53.1995 197.424C55.2708 199.638 57.2116 202.16 59.1079 204.666C59.6344 205.359 60.1379 206.045 60.6177 206.683C60.7938 206.917 61.1898 207.46 61.2466 207.409C61.3031 207.358 61.1026 206.628 61.013 206.332Z" fill="#9E4141"/>
<path d="M66.0066 211.309C65.5593 210.82 65.0971 210.281 64.7252 209.733C63.4082 207.804 62.5276 205.855 61.8723 203.565C61.2193 201.308 61.0164 198.995 60.7869 196.822L60.5963 194.723L60.5527 194.021C60.5978 194.299 60.6222 194.438 60.6735 194.717C60.7958 195.412 60.9484 196.128 61.1111 196.802C61.7004 199.04 62.4163 201.27 63.2691 203.5C64.0374 205.537 64.887 207.61 65.7243 209.645C65.9596 210.205 66.194 210.75 66.4103 211.264C66.4898 211.453 66.6766 211.882 66.6204 211.888C66.5598 211.896 66.1659 211.482 66.0066 211.309Z" fill="#9E4141"/>
<path d="M63.0396 206.76C62.1438 205.89 61.2236 204.923 60.4352 203.945C57.6454 200.498 55.5701 197.057 53.2657 193.089C50.9798 189.207 48.8198 185.135 45.5836 181.644C44.5891 180.525 43.4446 179.434 42.2392 178.402L41.0117 177.371C41.546 177.753 41.812 177.942 42.3428 178.318C43.6394 179.285 44.9251 180.32 46.0619 181.356C49.948 184.715 52.9688 188.554 55.6162 192.49C58.0543 196.081 60.164 199.896 62.1567 203.636C62.701 204.671 63.2393 205.68 63.7348 206.625C63.9176 206.973 64.3428 207.762 64.2427 207.782C64.142 207.801 63.3561 207.068 63.0396 206.76Z" fill="#9E4141"/>
<path d="M83.9551 229.878C82.82 229.553 81.695 229.075 80.6225 228.532C77.0247 226.679 74.2375 223.863 72.3108 220.655C70.3792 217.48 69.1755 214.117 67.9243 210.768C67.5464 209.744 67.1435 208.722 66.7421 207.69L66.3496 206.657L66.9298 207.626C67.4956 208.601 68.0867 209.558 68.6889 210.498C70.6862 213.57 72.9392 216.431 75.1855 219.167C77.478 221.939 79.644 224.455 82.1193 227.007C82.8897 227.719 83.6398 228.531 84.4678 229.199C84.7636 229.456 85.4721 230.064 85.4064 230.163C85.3409 230.262 84.3594 229.992 83.9551 229.878Z" fill="#9E4141"/>
<path d="M67.7833 216.27C67.4137 215.705 67.0115 215.133 66.5989 214.57C65.2517 212.673 63.7709 210.91 62.1243 209.209C60.4974 207.535 58.7821 205.967 57.1231 204.396L55.6171 202.946L55.1152 202.465L55.5445 203.009L56.8224 204.652C58.1845 206.471 59.4622 208.399 60.9077 210.243C62.3618 212.113 63.9801 213.815 65.8038 215.304C66.3564 215.747 66.9156 216.175 67.4703 216.571C67.6777 216.714 68.1652 217.04 68.2077 216.996C68.253 216.953 67.913 216.471 67.7833 216.27Z" fill="#9E4141"/>
<path d="M158.719 178.094C157.284 177.711 155.88 177.079 154.588 176.292C150.243 173.624 147.19 169.354 143.973 165.027C140.793 160.754 137.618 156.255 133.221 153.009C131.891 152.032 130.423 151.196 128.864 150.618C128.353 150.411 127.806 150.276 127.285 150.111C127.8 150.312 128.33 150.473 128.829 150.706C130.344 151.357 131.745 152.267 132.978 153.316C137.058 156.808 139.677 161.489 142.676 165.934C145.68 170.402 149.093 174.931 154.085 177.245C155.553 177.916 157.109 178.369 158.636 178.516C159.194 178.607 160.494 178.611 160.491 178.565C160.495 178.488 159.216 178.266 158.719 178.094Z" fill="#9E4141"/>
<path d="M128.187 150.695C128.738 150.914 129.281 151.193 129.832 151.439C131.642 152.34 133.341 153.324 135.096 154.377C136.827 155.416 138.53 156.509 140.128 157.748C140.62 158.123 141.094 158.522 141.563 158.925L142.036 159.325L141.62 158.844L140.351 157.41C138.96 155.837 137.505 154.212 135.764 152.882C134.014 151.535 132 150.618 129.974 150.343C129.358 150.282 128.777 150.206 128.197 150.255C127.984 150.265 127.507 150.296 127.51 150.361C127.512 150.425 127.992 150.618 128.187 150.695Z" fill="#9E4141"/>
<path d="M143.038 164.181C143.237 164.703 143.473 165.26 143.749 165.758C144.719 167.517 145.907 169.018 147.542 170.37C149.152 171.702 151.056 172.555 152.769 172.984C153.303 173.145 153.876 173.195 154.401 173.269C154.578 173.288 154.763 173.285 154.937 173.285C154.733 173.258 154.625 173.256 154.42 173.211C153.914 173.091 153.355 172.979 152.865 172.75C151.198 172.054 149.598 170.864 148.131 169.441C146.79 168.141 145.506 166.636 144.248 165.139C143.9 164.726 143.564 164.315 143.247 163.934C143.13 163.794 142.866 163.469 142.836 163.505C142.806 163.541 142.968 163.996 143.038 164.181Z" fill="#9E4141"/>
<path d="M139.826 161.275C140.117 161.564 140.418 161.882 140.668 162.212C141.553 163.373 142.186 164.57 142.708 165.998C143.227 167.405 143.487 168.874 143.754 170.25L143.994 171.582L144.063 172.028C144.019 171.854 143.997 171.766 143.95 171.59C143.836 171.151 143.703 170.704 143.566 170.281C143.086 168.884 142.532 167.497 141.899 166.117C141.326 164.859 140.704 163.58 140.092 162.325C139.921 161.981 139.751 161.645 139.594 161.328C139.536 161.211 139.401 160.947 139.433 160.941C139.468 160.931 139.722 161.174 139.826 161.275Z" fill="#9E4141"/>
<path d="M141.832 164.021C142.407 164.526 143.001 165.093 143.521 165.674C145.355 167.724 146.775 169.809 148.358 172.217C149.928 174.572 151.434 177.055 153.532 179.106C154.179 179.768 154.912 180.401 155.677 180.994L156.454 181.585C156.12 181.37 155.954 181.264 155.622 181.053C154.808 180.507 153.997 179.917 153.272 179.318C150.804 177.388 148.811 175.102 147.029 172.732C145.39 170.571 143.927 168.248 142.538 165.969C142.158 165.336 141.782 164.722 141.437 164.146C141.308 163.933 141.012 163.451 141.07 163.434C141.127 163.416 141.629 163.841 141.832 164.021Z" fill="#9E4141"/>
<path d="M128.243 150.403C128.924 150.548 129.607 150.791 130.265 151.078C132.472 152.062 134.266 153.707 135.585 155.651C136.903 157.574 137.811 159.658 138.745 161.729C139.026 162.363 139.325 162.994 139.622 163.633L139.914 164.271L139.517 163.683C139.127 163.092 138.725 162.513 138.317 161.945C136.966 160.092 135.479 158.388 134.004 156.764C132.5 155.12 131.086 153.631 129.489 152.137C128.997 151.725 128.511 151.248 127.988 150.866C127.8 150.719 127.351 150.37 127.382 150.302C127.414 150.235 128.002 150.354 128.243 150.403Z" fill="#9E4141"/>
<path d="M138.486 158.202C138.737 158.544 139.005 158.887 139.279 159.224C140.18 160.362 141.15 161.407 142.213 162.402C143.263 163.382 144.356 164.289 145.418 165.201L146.383 166.044L146.705 166.324L146.422 166L145.577 165.021C144.673 163.933 143.811 162.771 142.857 161.672C141.896 160.558 140.85 159.561 139.698 158.71C139.349 158.457 138.997 158.215 138.65 157.993C138.521 157.912 138.218 157.731 138.195 157.761C138.171 157.793 138.399 158.081 138.486 158.202Z" fill="#9E4141"/>
<path d="M104.23 114.563C103.034 114.93 101.829 115.331 100.648 115.762C96.7485 117.125 92.8153 118.796 89.3071 121.31C85.8115 123.885 82.9594 127.333 81.5673 131.459C81.1374 132.672 80.8474 133.938 80.7125 135.171C80.6657 135.631 80.5756 136.665 80.7458 136.721C80.9154 136.778 81.5919 135.98 81.8614 135.666C82.6378 134.777 83.4286 133.889 84.2563 133.055C86.9646 130.241 89.592 127.661 92.3109 124.778C95.031 121.994 97.8394 119.093 101.168 116.773C102.169 116.054 103.241 115.409 104.338 114.818L105.435 114.214L104.23 114.563Z" fill="#9E4141"/>
<path d="M85.7902 84.8514C85.2407 84.009 84.755 83.1505 84.1507 82.3714L83.5671 81.5869L83.9143 82.5004C84.3048 83.3832 84.5338 84.3346 84.7584 85.2458C85.3323 88.3471 84.8405 91.3035 84.1751 94.14C83.5355 97.0255 82.9095 99.9672 82.9964 103.263C83.0242 104.239 83.0945 105.232 83.2549 106.196C83.3137 106.552 83.4581 107.365 83.6288 107.394C83.8001 107.424 84.2597 106.725 84.4454 106.445C84.969 105.648 85.4734 104.826 85.9477 103.987C87.5175 101.216 88.6095 98.1127 88.6138 94.5837C88.6574 91.1048 87.44 87.6532 85.7902 84.8514Z" fill="#9E4141"/>
<path d="M95.4166 97.3877L95.2109 96.3682L95.1311 97.3986C95.0539 98.4061 94.7845 99.3941 94.3584 100.287C93.0076 103.259 90.4967 105.446 88.3746 107.98C86.1971 110.533 84.2595 113.427 83.461 117.037C83.2162 118.087 83.1026 119.21 83.1519 120.27C83.1769 120.673 83.2601 121.549 83.442 121.583C83.6228 121.614 84.1674 120.921 84.3808 120.661C85.0195 119.911 85.6542 119.188 86.3406 118.488C88.5487 116.166 90.6381 113.742 92.2885 110.642C93.8741 107.592 95.1965 104.125 95.4955 100.573C95.6051 99.5114 95.593 98.4173 95.4166 97.3877Z" fill="#9E4141"/>
<path d="M47.6909 76.6901C47.6046 76.4361 47.5681 76.1727 47.5156 75.9087L47.4442 75.2558C47.3859 74.8184 47.4192 74.3735 47.4232 73.9284C47.4973 73.0415 47.6752 72.1513 48.0017 71.3071C49.2358 67.8965 52.8255 65.4045 56.4499 65.422C59.6299 65.3564 62.7459 66.351 65.2485 68.0324C67.7649 69.712 69.6913 72.0509 70.8929 74.6215C71.6197 76.1893 72.1161 77.8544 72.3204 79.5332C72.3924 80.0913 72.4257 80.6591 72.4208 81.2137C72.3241 80.6614 72.197 80.1191 72.0469 79.5874C71.6088 77.9902 70.8631 76.4889 69.9088 75.2062C66.7024 70.9179 61.3216 69.2629 56.7828 70.0273C54.8153 70.338 53.2978 71.535 52.4617 73.1794C52.2539 73.589 52.1131 74.0273 51.9917 74.4807C51.9638 74.7112 51.8858 74.9408 51.8815 75.181L51.8448 75.5415C51.8488 75.6115 51.8224 75.69 51.8319 75.7614C51.8046 76.343 52.1386 77.0547 52.8375 77.4648C53.0441 77.5847 53.28 77.6838 53.5417 77.7363C53.6782 77.7879 53.8094 77.8263 53.9864 77.7859C54.162 77.7503 54.3273 77.6265 54.4501 77.4491C54.5293 77.3711 54.5488 77.2292 54.5993 77.1533C54.6443 77.1111 54.6607 77.0489 54.6515 76.9718C54.6891 76.8509 54.3941 76.6574 54.3083 76.631C54.2337 76.6339 54.1422 76.7428 54.1207 76.7824C54.1023 76.8598 54.1904 76.9202 54.1938 76.9653C54.2076 76.9933 54.0885 77.1091 53.8814 76.9807C53.6756 76.8108 53.6467 76.4863 53.822 76.1787C54.3812 75.5266 55.1915 75.8124 55.5507 76.0919C55.8098 76.2894 56.0264 76.5889 56.1122 76.9377C56.1782 77.2487 56.233 77.5099 56.1995 77.8131C56.1659 78.4016 55.9294 79.019 55.4864 79.4953C55.0581 79.978 54.4165 80.328 53.7491 80.4556C53.2074 80.5696 52.6292 80.5883 52.0534 80.5117C50.1163 80.2773 48.2766 78.7707 47.6909 76.6901Z" fill="#9E4141"/>
<path d="M93.0789 0.840217C88.9937 1.25555 85.4338 3.75154 82.4847 6.47684C79.7647 9.01639 77.5912 12.0653 75.8674 15.2908C74.3329 18.1336 73.1829 21.1478 72.3545 24.2194C70.9985 29.1526 70.594 34.2328 70.3217 39.2237C69.6626 51.83 70.7587 64.3458 73.1376 76.614C70.7948 64.3705 69.9952 51.673 72.1084 39.4252C72.9525 34.5811 74.3699 29.8758 76.0149 25.365C77.0263 22.546 78.116 19.7731 79.4505 17.1404C80.9494 14.1508 82.6933 11.2839 84.8978 8.81633C87.2609 6.13058 90.1448 4.06368 93.3182 2.16732C93.6178 1.98588 94.373 1.42208 94.3038 1.11739C94.2375 0.830472 93.3802 0.805534 93.0789 0.840217Z" fill="#9E4141"/>
<path d="M76.1618 89.2853C74.9894 85.1022 73.9809 80.8746 73.1367 76.6133C73.9659 80.8778 74.9877 85.103 76.1618 89.2853Z" fill="#9E4141"/>
<path d="M124.858 179.203C125.443 181.811 123.801 184.399 121.192 184.983C118.581 185.568 115.99 183.927 115.405 181.321C114.82 178.712 116.462 176.124 119.073 175.54C121.682 174.956 124.273 176.596 124.858 179.203Z" fill="#9E4141"/>
<path d="M121.886 184.601C121.797 184.481 122.396 184.016 122.932 183.297C124.517 181.419 124.53 178.529 123.182 176.549C121.837 174.511 119.505 173.211 117.095 173.001C112.085 172.516 107.873 177.003 106.919 181.649C105.742 186.517 108.251 191.459 112.135 194.401C115.943 197.482 121.138 198.653 125.894 197.716C135.527 195.645 142.264 185.742 142.529 176.152C143.107 166.217 136.628 157.257 128.429 152.101C120.186 146.82 109.666 145.344 100.324 148.076C90.9474 150.769 83.1505 157.686 77.6237 165.658C66.4035 181.831 66.3303 204.647 77.4387 220.732C78.249 222.406 77.3382 222.739 77.0034 223.046C76.6003 223.251 75.9949 224.039 74.681 222.55C63.0361 205.226 63.4843 181.063 75.4956 164.2C81.4089 155.894 89.631 148.738 99.7222 145.943C109.707 143.154 120.812 144.873 129.432 150.54C137.96 156.016 144.75 165.633 144.021 176.22C143.55 186.429 136.493 196.671 126.106 198.828C121.015 199.768 115.525 198.445 111.54 195.145C107.497 192.035 104.834 186.64 106.164 181.484C107.238 176.559 111.745 171.851 117.15 172.414C119.729 172.669 122.193 174.088 123.598 176.27C125.041 178.445 124.972 181.56 123.253 183.552C122.659 184.322 121.912 184.662 121.886 184.601Z" fill="#9E4141"/>
<path d="M134.342 133.838C134.322 133.832 134.392 133.593 134.6 133.382C135.793 132.052 137.962 133.182 138.205 134.745C138.598 136.338 137.38 137.896 135.942 138.424C132.739 139.633 129.657 136.225 129.883 133.163C130.09 129.947 132.881 127.398 135.936 126.825C139.097 126.153 142.267 127.806 144.282 130.128C146.366 132.474 147.328 135.747 146.918 138.86C146.494 141.998 144.712 144.797 142.446 146.904C137.885 151.227 130.629 152.398 124.922 149.629C124.413 149.31 124.625 149.093 124.67 148.965C124.747 148.85 124.808 148.564 125.353 148.723C130.664 151.383 137.53 150.384 141.916 146.327C144.098 144.349 145.826 141.689 146.249 138.77C146.67 135.852 145.804 132.745 143.855 130.496C141.949 128.26 138.99 126.671 136.018 127.272C133.143 127.757 130.439 130.194 130.227 133.18C129.972 136.045 132.864 139.316 135.861 138.205C137.218 137.724 138.384 136.263 138.03 134.787C137.811 133.318 135.81 132.241 134.689 133.467C134.496 133.66 134.382 133.859 134.342 133.838Z" fill="#9E4141"/>
<path d="M85.7738 187.579C85.7577 187.549 85.7577 187.549 85.7738 187.579V187.579Z" fill="#9E4141"/>
<path d="M95.1446 179.551C93.3353 176.256 89.9653 173.859 86.2184 173.203C82.4054 172.45 78.5853 173.747 75.5006 175.688C69.1618 179.684 66.0627 187.929 68.124 194.881C68.7727 196.022 68.9609 195.915 69.0726 194.669C67.8744 187.95 71.0423 180.947 76.6417 177.461C79.4449 175.762 82.7058 174.642 85.8701 175.225C89.0331 175.713 91.9738 177.64 93.6523 180.425C95.4301 183.173 95.7891 186.754 93.9278 189.529C92.222 192.227 88.4696 193.973 85.462 192.374C84.0073 191.606 82.9311 190.135 82.6178 188.511C82.3282 186.876 83.257 185.11 84.8053 184.397C86.2982 183.508 88.4564 184.388 88.8768 186.113C89.1008 186.936 88.7244 187.896 87.96 188.322C87.2281 188.806 86.103 188.508 85.8058 187.642C85.7914 187.614 85.7808 187.593 85.7742 187.578C85.7808 187.594 85.7914 187.614 85.8052 187.643C86.0861 188.512 87.2223 188.843 87.9836 188.362C88.7732 187.944 89.1944 186.962 88.9818 186.087C88.6076 184.285 86.3389 183.251 84.6908 184.147C83.0108 184.846 81.8958 186.718 82.1349 188.574C82.4014 190.391 83.5018 192.054 85.1054 193.01C88.4696 194.99 92.8538 193.25 94.9593 190.236C97.3035 187.184 97.0639 182.706 95.1446 179.551Z" fill="#9E4141"/>
<path d="M47.7382 22.4248C47.8091 28.3205 55.5377 31.9146 55.7081 38.314C56.214 36.9066 56.3681 35.0455 57.5482 34.1317C58.7398 38.289 57.7442 43.5593 57.8374 47.9861C57.9708 46.2858 59.0715 44.7084 60.1104 43.6135C60.587 47.5983 60.2066 52.5375 62.6279 56.0324L62.6985 56.1233C58.9567 53.3604 53.1224 47.0849 50.9234 43.1277C47.7304 37.3271 45.5401 29.4381 47.7382 22.4248Z" fill="#9E4141"/>
<path d="M37.3691 48.6747C41.6231 48.3494 44.7073 53.6798 49.3308 53.3944C48.3481 53.8481 47.0167 54.078 46.4331 54.9849C49.5055 55.5768 53.241 54.5246 56.4382 54.3093C55.2214 54.514 54.1543 55.4062 53.4312 56.2234C56.3338 56.3123 59.8702 55.7232 62.5434 57.2424L62.6134 57.2871C60.3832 54.7719 55.4876 50.9749 52.4953 49.6455C48.1102 47.7188 42.2842 46.6456 37.3691 48.6747Z" fill="#9E4141"/>
<path d="M43.6994 153.325C42.0131 153.461 40.283 154.055 38.5838 154.391C38.0667 154.493 37.5477 154.565 37.0332 154.619C36.8619 154.637 36.6884 154.654 36.5156 154.691C36.6763 154.755 36.835 154.832 36.9957 154.896C37.476 155.086 37.9586 155.292 38.4294 155.528C39.978 156.303 41.4883 157.333 43.0776 157.914C44.687 158.502 46.3245 158.521 48.0578 157.843C48.576 157.641 49.0973 157.397 49.6109 157.098C49.7185 157.035 49.9059 156.925 50.0522 156.807C50.0493 156.806 50.0462 156.806 50.0439 156.803C50.0272 156.798 49.6422 156.51 48.9705 156.289C48.3034 156.057 47.3327 155.988 46.3652 155.984C45.3994 156.007 44.4124 156.075 43.6825 155.979C42.9419 155.907 42.5172 155.624 42.5218 155.629C42.5187 155.625 42.958 155.875 43.6896 155.897C44.4164 155.942 45.3745 155.812 46.3537 155.721C47.3319 155.659 48.3381 155.659 49.0924 155.863C49.5742 155.987 49.9331 156.151 50.1343 156.255C50.0227 156.098 49.8657 155.935 49.7808 155.847C49.367 155.421 48.9275 155.049 48.4819 154.716C46.9916 153.603 45.4072 153.185 43.6994 153.325Z" fill="#9E4141"/>
<path d="M52.1482 148.099C51.698 146.964 50.9224 145.896 50.3311 144.795C50.1514 144.459 49.9919 144.117 49.8461 143.774C49.7974 143.659 49.7486 143.543 49.6878 143.432C49.6771 143.556 49.6565 143.682 49.6462 143.806C49.6169 144.178 49.5762 144.554 49.5125 144.929C49.3036 146.161 48.9102 147.42 48.8442 148.639C48.7776 149.874 49.1105 151.007 49.9451 152.06C50.1939 152.375 50.4731 152.684 50.7881 152.974C50.8541 153.035 50.9703 153.142 51.0822 153.217C51.0825 153.214 51.0822 153.213 51.0825 153.211C51.0837 153.198 51.2007 152.872 51.2113 152.362C51.2311 151.852 51.0745 151.168 50.8728 150.5C50.6524 149.838 50.3976 149.172 50.3098 148.648C50.2039 148.122 50.309 147.769 50.3069 147.774C50.3087 147.77 50.2283 148.126 50.3678 148.636C50.4891 149.147 50.7821 149.78 51.0515 150.436C51.3009 151.098 51.5135 151.792 51.5315 152.356C51.5482 152.714 51.5109 152.997 51.481 153.157C51.5654 153.047 51.6455 152.904 51.6885 152.827C51.8954 152.452 52.0598 152.07 52.1958 151.693C52.6514 150.428 52.6052 149.247 52.1482 148.099Z" fill="#9E4141"/>
<path d="M26.2858 135.923C26.0643 135.85 25.8781 135.812 25.8695 135.837C25.8608 135.863 26.0318 135.946 26.2519 136.021C45.3273 142.402 58.9399 161.618 58.6748 181.553C58.7532 182.021 58.991 181.955 59.1058 181.97C59.22 181.954 59.461 182.024 59.5149 181.546C59.5264 161.252 45.4728 142.071 26.2858 135.923Z" fill="#9E4141"/>
<path d="M18.7221 131.345C16.6758 131.465 14.6446 132.262 12.7308 132.847C12.1458 133.039 11.5622 133.198 10.9852 133.335C10.7932 133.38 10.5995 133.425 10.4102 133.491L10.9854 133.662C11.5576 133.815 12.1294 133.984 12.6852 134.19C14.5181 134.922 16.2195 136.028 17.9158 136.717C19.6394 137.424 21.3529 137.508 23.3571 136.976C23.9579 136.811 24.5846 136.588 25.2115 136.353C25.3429 136.301 25.575 136.209 25.7644 136.103L25.7555 136.099C25.736 136.094 25.3702 135.665 24.642 135.304C23.9149 134.953 22.8229 134.681 21.7081 134.619C20.6015 134.543 19.475 134.582 18.6464 134.461C17.8111 134.345 17.3259 134.035 17.3291 134.041C17.3277 134.036 17.8286 134.309 18.6575 134.365C19.4842 134.429 20.586 134.311 21.7216 134.311C22.8607 134.299 24.0165 134.493 24.8563 134.829C25.3908 135.047 25.7624 135.326 25.971 135.482C25.8763 135.278 25.7297 135.058 25.6485 134.939C25.2617 134.348 24.8035 133.865 24.3284 133.405C22.7402 131.853 20.7831 131.233 18.7221 131.345Z" fill="#9E4141"/>
<path d="M28.8659 128.278C27.8135 126.559 26.0888 125.041 24.5497 123.512C24.0812 123.05 23.6356 122.568 23.2037 122.082C23.0591 121.922 22.9142 121.752 22.7461 121.604L22.8632 122.184C22.9957 122.759 23.1059 123.342 23.1696 123.929C23.3727 125.857 23.2353 127.87 23.563 129.715C23.8855 131.607 24.7391 133.201 26.1938 134.651C26.6268 135.091 27.1036 135.487 27.6095 135.895C27.7154 135.981 27.9004 136.13 28.0757 136.234V136.224C28.0752 136.204 28.2212 135.697 28.1739 134.915C28.1452 134.123 27.7911 133.115 27.3263 132.127C26.8397 131.145 26.252 130.16 25.9447 129.395C25.6099 128.617 25.6644 128.057 25.6633 128.063C25.6641 128.059 25.6532 128.619 26.0368 129.364C26.3958 130.1 27.0325 131.04 27.5983 132.003C28.1403 132.964 28.5733 134.011 28.6631 134.875C28.7311 135.42 28.7004 135.853 28.6708 136.1C28.7885 135.924 28.8966 135.7 28.9543 135.578C29.2343 134.988 29.4498 134.392 29.6194 133.804C30.1815 131.854 29.9494 129.98 28.8659 128.278Z" fill="#9E4141"/>
<path d="M21.4525 138.541C20.1114 139.781 19.0879 141.415 18.0214 142.912C17.6977 143.364 17.3658 143.795 17.0375 144.208L16.7188 144.638L17.1503 144.464C17.5761 144.282 18.0243 144.087 18.4767 143.969C19.9728 143.561 21.6091 143.461 23.1574 143.038C24.7326 142.589 26.1598 141.729 27.4765 140.177C27.8687 139.713 28.2543 139.21 28.6118 138.661C28.6864 138.547 28.8173 138.345 28.9053 138.158L28.8956 138.16C28.8778 138.163 28.3711 138.083 27.6363 138.219C26.9023 138.335 25.9753 138.785 25.1076 139.349C24.254 139.933 23.454 140.54 22.7915 140.926C22.1362 141.325 21.6616 141.341 21.6656 141.342C21.6628 141.342 22.1348 141.287 22.758 140.849C23.3929 140.424 24.1415 139.762 24.9716 139.112C25.8129 138.489 26.7477 137.925 27.5511 137.744C28.0626 137.613 28.4864 137.588 28.7289 137.586C28.5478 137.492 28.3203 137.414 28.1964 137.374C27.595 137.183 27.0085 137.021 26.4163 136.971C24.4577 136.729 22.7953 137.339 21.4525 138.541Z" fill="#9E4141"/>
<path d="M33.1226 165.738C32.9858 165.735 32.8753 165.747 32.875 165.763C32.875 165.779 32.9849 165.795 33.1209 165.799C44.8926 166.011 55.8732 174.348 59.2334 185.523C59.3597 185.771 59.4808 185.692 59.5473 185.679C59.6082 185.651 59.7554 185.648 59.7011 185.371C56.1369 174.04 44.9156 165.801 33.1226 165.738Z" fill="#9E4141"/>
<path d="M28.0946 164.51C26.9733 164.937 25.9797 165.738 25.0142 166.401C24.7215 166.611 24.4234 166.801 24.1256 166.979L23.832 167.168L24.1835 167.162C24.5295 167.147 24.8787 167.141 25.2251 167.159C26.3773 167.245 27.5216 167.564 28.5898 167.65C29.6764 167.743 30.648 167.489 31.6731 166.84C31.9793 166.642 32.29 166.407 32.5988 166.166C32.663 166.114 32.7761 166.022 32.8633 165.93L32.8573 165.928C32.8458 165.93 32.566 165.755 32.0961 165.68C31.6284 165.612 30.9707 165.653 30.3378 165.813C29.7068 165.966 29.0845 166.185 28.601 166.263C28.1138 166.345 27.7885 166.257 27.7916 166.259C27.7896 166.257 28.1176 166.322 28.5901 166.207C29.0627 166.098 29.6569 165.839 30.291 165.64C30.9248 165.433 31.6043 165.338 32.1322 165.378C32.4691 165.406 32.7256 165.496 32.8693 165.547C32.7807 165.449 32.6599 165.352 32.5939 165.3C32.274 165.039 31.9331 164.849 31.5871 164.676C30.427 164.088 29.2254 164.086 28.0946 164.51Z" fill="#9E4141"/>
<path d="M33.2178 161.016C32.3277 160.241 31.0977 159.698 29.9698 159.114L28.9664 158.551L28.627 158.365L28.7945 158.669C28.9695 158.966 29.134 159.273 29.2725 159.588C29.7253 160.63 30.0028 161.778 30.5103 162.749C31.0234 163.749 31.7803 164.489 32.8476 165.043C33.1667 165.212 33.5027 165.349 33.8568 165.489C33.9305 165.518 34.0608 165.568 34.1767 165.596L34.1747 165.591C34.1707 165.579 34.1632 165.27 33.9991 164.842C33.8438 164.406 33.4685 163.905 33.0356 163.435C32.5911 162.972 32.0899 162.526 31.7837 162.152C31.4601 161.776 31.3918 161.455 31.3923 161.459C31.3918 161.455 31.4842 161.77 31.8299 162.119C32.1593 162.466 32.6804 162.88 33.1658 163.319C33.6375 163.76 34.0633 164.268 34.2656 164.735C34.3993 165.027 34.4582 165.274 34.4851 165.417C34.5198 165.298 34.5411 165.154 34.5514 165.076C34.6042 164.697 34.6194 164.327 34.6105 163.968C34.5818 162.782 34.1219 161.776 33.2178 161.016Z" fill="#9E4141"/>
<path d="M30.8859 168.047C30.3557 168.974 30.0716 170.067 29.7396 171.09L29.4188 171.987L29.3164 172.283L29.5267 172.109C29.7324 171.933 29.9482 171.745 30.1801 171.6C30.9433 171.11 31.8396 170.767 32.6295 170.259C33.4298 169.731 34.0748 169 34.537 167.903C34.6742 167.575 34.801 167.227 34.904 166.857C34.9255 166.78 34.9628 166.645 34.9795 166.525L34.9743 166.528C34.9648 166.532 34.6676 166.577 34.2817 166.782C33.8923 166.976 33.4536 167.389 33.0688 167.857C32.6952 168.333 32.3555 168.812 32.0534 169.144C31.7579 169.481 31.4959 169.574 31.4982 169.574C31.4968 169.574 31.7501 169.46 32.021 169.107C32.3004 168.758 32.602 168.257 32.9512 167.749C33.3113 167.252 33.7339 166.773 34.1505 166.532C34.4134 166.369 34.6455 166.281 34.7806 166.237C34.6627 166.217 34.5218 166.213 34.4458 166.212C34.0762 166.211 33.7204 166.223 33.381 166.299C32.2445 166.508 31.4239 167.14 30.8859 168.047Z" fill="#9E4141"/>
<path d="M43.298 125.4C43.3422 125.309 43.3695 125.231 43.3594 125.226C43.3494 125.22 43.3046 125.29 43.2593 125.38C39.1141 133.086 40.4488 143.328 46.5781 149.699C46.7348 149.838 46.7867 149.745 46.8255 149.718C46.8556 149.68 46.9468 149.634 46.8329 149.46C40.7306 143.269 39.2532 133.144 43.298 125.4Z" fill="#9E4141"/>
<path d="M46.0684 123.032C46.374 122.29 46.5565 121.424 46.9252 120.659C47.0305 120.421 47.1507 120.189 47.2778 119.962L47.4004 119.729L47.1809 119.866L46.514 120.278C45.7304 120.682 44.8889 121.089 44.2393 121.698C43.5375 122.276 43.1992 123.111 43.1438 124.044C43.1315 124.325 43.1283 124.605 43.1934 124.906C43.2049 124.968 43.2267 125.076 43.2583 125.165L43.2603 125.161C43.2712 125.157 43.4468 125.009 43.6732 124.739C43.9113 124.477 44.1326 124.052 44.3274 123.609C44.4955 123.153 44.6964 122.701 44.9265 122.41C45.14 122.102 45.3646 121.983 45.362 121.983C45.3643 121.983 45.1491 122.116 44.9606 122.431C44.7555 122.733 44.5862 123.183 44.4465 123.656C44.28 124.114 44.0861 124.566 43.8456 124.868C43.6993 125.065 43.5822 125.215 43.4999 125.291C43.5891 125.263 43.6875 125.216 43.7406 125.19C43.9885 125.061 44.2548 124.938 44.4878 124.802C45.2808 124.355 45.7101 123.752 46.0684 123.032Z" fill="#9E4141"/>
<path d="M46.2969 126.925C46.9536 126.716 47.658 126.424 48.3128 126.246C48.5142 126.193 48.7174 126.155 48.9182 126.127L49.1191 126.096L48.8999 126.017L48.2434 125.787C47.518 125.511 46.7711 125.14 46.0223 124.985C45.2797 124.837 44.4927 124.928 43.8259 125.439C43.6253 125.591 43.4264 125.765 43.2371 125.965C43.1975 126.007 43.1283 126.081 43.0781 126.152L43.0824 126.153C43.0905 126.153 43.2988 126.226 43.6239 126.236C43.9481 126.251 44.3819 126.165 44.7962 126.066C45.2028 125.953 45.6128 125.839 45.9546 125.835C46.2885 125.817 46.5029 125.91 46.5006 125.908C46.5023 125.91 46.2851 125.831 45.9603 125.869C45.624 125.892 45.2433 126.036 44.8364 126.178C44.4261 126.305 43.9862 126.425 43.6264 126.435C43.3975 126.445 43.2161 126.423 43.1131 126.405C43.1831 126.459 43.2744 126.507 43.3237 126.534C43.5639 126.661 43.8086 126.762 44.0499 126.846C44.8576 127.126 45.6048 127.12 46.2969 126.925Z" fill="#9E4141"/>
<path d="M42.7919 123.016C42.54 122.26 42.0606 121.5 41.7909 120.728C41.7077 120.492 41.6417 120.247 41.5871 119.999L41.5249 119.751L41.4463 120.025L41.2225 120.842C41.0033 121.775 40.6343 122.695 40.5978 123.583C40.5694 124.488 40.8251 125.245 41.421 125.853C41.5989 126.036 41.7969 126.208 42.0184 126.364C42.0649 126.396 42.1464 126.452 42.2235 126.489L42.2233 126.485C42.2233 126.477 42.2789 126.258 42.258 125.925C42.2431 125.592 42.1088 125.153 41.955 124.712C41.7963 124.283 41.5923 123.821 41.5607 123.472C41.5054 123.115 41.5909 122.861 41.5892 122.864C41.5903 122.862 41.522 123.117 41.6001 123.46C41.6563 123.799 41.8741 124.23 42.0672 124.654C42.2511 125.086 42.4209 125.529 42.4634 125.893C42.4944 126.124 42.4875 126.307 42.4781 126.412C42.526 126.335 42.569 126.237 42.5917 126.183C42.7024 125.925 42.7859 125.665 42.8531 125.409C43.0513 124.537 43.0599 123.79 42.7919 123.016Z" fill="#9E4141"/>
<path d="M38.8123 130.525C38.0296 129.819 37.0211 129.289 36.1425 128.662C35.8754 128.472 35.6206 128.266 35.3764 128.056C35.2949 127.987 35.2129 127.916 35.123 127.853C35.1626 127.953 35.1951 128.058 35.2344 128.158C35.3537 128.457 35.4662 128.764 35.5606 129.078C35.8705 130.11 36.0472 131.235 36.4624 132.204C36.8833 133.184 37.5745 133.935 38.623 134.431C38.936 134.58 39.2697 134.712 39.6246 134.816C39.6987 134.839 39.8292 134.876 39.9454 134.892C39.9448 134.891 39.9434 134.889 39.9431 134.887C39.9391 134.877 39.9044 134.58 39.7179 134.181C39.5383 133.78 39.1555 133.31 38.7435 132.869C38.3203 132.441 37.8684 132.023 37.5995 131.651C37.3163 131.285 37.2629 130.972 37.2627 130.975C37.2629 130.973 37.337 131.278 37.6394 131.619C37.9292 131.968 38.3983 132.347 38.8577 132.752C39.3038 133.169 39.7337 133.625 39.9635 134.054C40.1133 134.325 40.1922 134.558 40.2306 134.693C40.2544 134.575 40.2613 134.435 40.2651 134.359C40.282 133.99 40.2628 133.631 40.2237 133.287C40.0929 132.136 39.6054 131.239 38.8123 130.525Z" fill="#9E4141"/>
<path d="M44.796 132.122C45.1188 131.433 45.2723 130.625 45.5199 129.887C45.5954 129.662 45.6826 129.444 45.7767 129.231C45.8077 129.16 45.8398 129.088 45.8642 129.013C45.8034 129.061 45.7371 129.106 45.6766 129.154C45.495 129.299 45.3067 129.442 45.1093 129.573C44.4606 130.004 43.7206 130.365 43.1384 130.856C42.5497 131.353 42.177 131.988 42.0553 132.816C42.0189 133.064 41.9976 133.322 42.0002 133.589C42.0002 133.645 42.0022 133.742 42.0157 133.826C42.0168 133.825 42.0171 133.824 42.0189 133.823C42.0249 133.818 42.2229 133.732 42.4593 133.519C42.6992 133.31 42.943 132.947 43.1603 132.57C43.3666 132.187 43.5605 131.787 43.7611 131.523C43.9545 131.251 44.1599 131.148 44.157 131.149C44.1588 131.148 43.9631 131.264 43.7915 131.545C43.6116 131.818 43.4489 132.221 43.2655 132.624C43.0716 133.02 42.8469 133.412 42.5993 133.662C42.4435 133.823 42.2989 133.926 42.2134 133.981C42.2995 133.972 42.3985 133.948 42.4518 133.934C42.7109 133.867 42.9545 133.779 43.1838 133.679C43.9525 133.345 44.4689 132.82 44.796 132.122Z" fill="#9E4141"/>
<path d="M25.4475 97.4784C25.5629 98.064 25.203 98.6659 24.6415 98.8035C24.0806 98.9428 23.4869 98.5831 23.3148 98.0015C23.1423 97.4202 23.5001 96.8252 24.1167 96.673C24.7334 96.5233 25.329 96.8765 25.4475 97.4784Z" fill="#9E4141"/>
<path d="M31.4377 97.062C31.4188 97.5946 30.9887 98.03 30.4788 98.0346C29.9687 98.0386 29.534 97.6078 29.5053 97.0761C29.4766 96.5424 29.9041 96.1075 30.4613 96.1035C31.0191 96.1007 31.4569 96.5295 31.4377 97.062Z" fill="#9E4141"/>
<path d="M37.3777 98.0411C37.2535 98.4931 36.7947 98.7783 36.3539 98.6786C35.9135 98.5774 35.6303 98.1228 35.7196 97.6619C35.8094 97.2013 36.2659 96.9152 36.7416 97.0241C37.2167 97.1333 37.5022 97.5885 37.3777 98.0411Z" fill="#9E4141"/>
<path d="M42.9581 100.338C42.769 100.697 42.3197 100.853 41.9562 100.684C41.5935 100.513 41.4382 100.07 41.6075 99.6926C41.7768 99.3163 42.2259 99.1583 42.6112 99.3401C42.9963 99.5215 43.1538 99.9649 42.9581 100.338Z" fill="#9E4141"/>
<path d="M47.9687 103.722C47.7449 104.002 47.3314 104.058 47.0442 103.848C46.7584 103.638 46.7004 103.229 46.9136 102.935C47.1271 102.64 47.5423 102.58 47.8418 102.802C48.1422 103.023 48.1996 103.434 47.9687 103.722Z" fill="#9E4141"/>
<path d="M52.3044 107.955C52.0657 108.167 51.6967 108.155 51.4807 107.928C51.2646 107.7 51.2767 107.335 51.5074 107.114C51.7383 106.892 52.1067 106.904 52.3308 107.141C52.5546 107.377 52.5432 107.742 52.3044 107.955Z" fill="#9E4141"/>
<path d="M55.9131 112.832C55.6776 112.986 55.3599 112.925 55.2039 112.695C55.0475 112.466 55.1086 112.15 55.3399 111.989C55.5708 111.828 55.8887 111.889 56.0494 112.126C56.2098 112.362 56.1493 112.678 55.9131 112.832Z" fill="#9E4141"/>
<path d="M58.7888 118.183C58.5645 118.289 58.2973 118.195 58.1917 117.975C58.0862 117.754 58.1803 117.485 58.4021 117.374C58.6236 117.263 58.8913 117.356 58.9989 117.583C59.1076 117.808 59.0129 118.078 58.7888 118.183Z" fill="#9E4141"/>
<path d="M60.926 123.877C60.7183 123.944 60.4979 123.83 60.4348 123.624C60.3754 123.417 60.4764 123.198 60.6842 123.127C60.8887 123.057 61.1243 123.165 61.1851 123.377C61.25 123.587 61.1341 123.812 60.926 123.877Z" fill="#9E4141"/>
<path d="M62.3057 129.807C62.1175 129.841 61.9332 129.717 61.8957 129.531C61.8575 129.344 61.9794 129.163 62.1677 129.126C62.3562 129.089 62.5395 129.211 62.578 129.402C62.6164 129.59 62.4945 129.772 62.3057 129.807Z" fill="#9E4141"/>
<path d="M62.8993 135.871C62.7308 135.88 62.5871 135.752 62.5785 135.584C62.5704 135.417 62.7001 135.272 62.8683 135.261C63.0373 135.25 63.1807 135.378 63.1891 135.548C63.1977 135.718 63.0683 135.863 62.8993 135.871Z" fill="#9E4141"/>
<path d="M62.7272 141.967C62.5795 141.955 62.4655 141.827 62.473 141.679C62.4807 141.531 62.6073 141.421 62.7556 141.43C62.9043 141.44 63.0176 141.569 63.0098 141.719C63.0021 141.867 62.8756 141.979 62.7272 141.967Z" fill="#9E4141"/>
<path d="M129.863 156.127C130.208 155.627 130.895 155.522 131.399 155.892C131.904 156.261 132.01 156.949 131.635 157.425C131.261 157.902 130.571 158.006 130.097 157.659C129.623 157.312 129.519 156.627 129.863 156.127Z" fill="#9E4141"/>
<path d="M124.732 153.009C124.962 152.527 125.548 152.333 126.042 152.577C126.542 152.811 126.708 153.431 126.452 153.891C126.188 154.365 125.626 154.511 125.156 154.293C124.692 154.066 124.503 153.491 124.732 153.009Z" fill="#9E4141"/>
<path d="M119.141 150.784C119.264 150.331 119.742 150.069 120.209 150.2C120.674 150.332 120.917 150.84 120.768 151.279C120.615 151.729 120.149 151.951 119.711 151.824C119.272 151.703 119.017 151.237 119.141 150.784Z" fill="#9E4141"/>
<path d="M113.221 149.628C113.251 149.216 113.619 148.909 114.043 148.944C114.469 148.968 114.763 149.375 114.711 149.777C114.655 150.194 114.292 150.455 113.891 150.431C113.49 150.4 113.191 150.041 113.221 149.628Z" fill="#9E4141"/>
<path d="M107.177 149.641C107.133 149.28 107.396 148.954 107.767 148.912C108.138 148.866 108.46 149.136 108.486 149.504C108.512 149.862 108.246 150.176 107.894 150.222C107.54 150.262 107.22 150.001 107.177 149.641Z" fill="#9E4141"/>
<path d="M101.234 150.809C101.137 150.504 101.311 150.18 101.623 150.085C101.936 149.99 102.258 150.162 102.343 150.47C102.427 150.779 102.253 151.103 101.952 151.195C101.652 151.287 101.331 151.114 101.234 150.809Z" fill="#9E4141"/>
<path d="M95.588 153.03C95.4577 152.781 95.5593 152.473 95.8147 152.343C96.0703 152.215 96.3765 152.315 96.499 152.568C96.6204 152.822 96.5185 153.13 96.2718 153.255C96.0244 153.381 95.7189 153.28 95.588 153.03Z" fill="#9E4141"/>
<path d="M90.376 156.152C90.2285 155.952 90.2732 155.67 90.4761 155.523C90.6787 155.375 90.9593 155.419 91.101 155.623C91.243 155.825 91.198 156.107 90.9997 156.251C90.8023 156.396 90.5229 156.351 90.376 156.152Z" fill="#9E4141"/>
<path d="M85.6693 160.009C85.5161 159.854 85.5198 159.601 85.6762 159.447C85.8335 159.291 86.0799 159.294 86.2314 159.453C86.3798 159.611 86.3766 159.864 86.2228 160.016C86.0693 160.168 85.8214 160.165 85.6693 160.009Z" fill="#9E4141"/>
<path d="M81.4961 164.449C81.3446 164.328 81.3242 164.112 81.4479 163.963C81.5718 163.815 81.7922 163.793 81.9422 163.915C82.0891 164.038 82.1104 164.254 81.989 164.4C81.8668 164.547 81.645 164.566 81.4961 164.449Z" fill="#9E4141"/>
<path d="M77.8932 169.368C77.7495 169.278 77.707 169.089 77.7977 168.946C77.8889 168.802 78.078 168.76 78.2197 168.851C78.3618 168.942 78.4048 169.131 78.3144 169.274C78.2249 169.416 78.0361 169.458 77.8932 169.368Z" fill="#9E4141"/>
<path d="M74.8094 174.633C74.6759 174.569 74.6237 174.407 74.6923 174.274C74.7623 174.143 74.925 174.09 75.0581 174.157C75.1907 174.224 75.2432 174.385 75.1746 174.516C75.1063 174.647 74.9428 174.7 74.8094 174.633Z" fill="#9E4141"/>
<path d="M146.125 129.415C145.939 129.615 145.618 129.647 145.416 129.478C145.215 129.312 145.186 128.995 145.351 128.771C145.517 128.548 145.834 128.517 146.061 128.705C146.286 128.894 146.318 129.209 146.125 129.415Z" fill="#9E4141"/>
<path d="M147.839 131.565C147.63 131.691 147.354 131.638 147.223 131.447C147.093 131.255 147.147 130.98 147.342 130.833C147.537 130.684 147.813 130.736 147.958 130.95C148.102 131.163 148.048 131.439 147.839 131.565Z" fill="#9E4141"/>
<path d="M148.906 134.106C148.7 134.164 148.477 134.053 148.412 133.858C148.345 133.664 148.455 133.444 148.657 133.368C148.859 133.292 149.08 133.402 149.152 133.615C149.224 133.828 149.116 134.047 148.906 134.106Z" fill="#9E4141"/>
<path d="M149.293 136.844C149.107 136.85 148.94 136.708 148.925 136.525C148.91 136.343 149.051 136.179 149.239 136.16C149.428 136.141 149.594 136.283 149.61 136.478C149.625 136.672 149.486 136.837 149.293 136.844Z" fill="#9E4141"/>
<path d="M149.063 139.604C148.899 139.575 148.784 139.422 148.805 139.261C148.827 139.1 148.979 138.986 149.144 139.006C149.31 139.026 149.425 139.179 149.403 139.349C149.379 139.518 149.227 139.633 149.063 139.604Z" fill="#9E4141"/>
<path d="M148.285 142.269C148.148 142.217 148.074 142.065 148.122 141.929C148.168 141.793 148.32 141.72 148.459 141.767C148.598 141.813 148.671 141.964 148.622 142.106C148.573 142.247 148.422 142.32 148.285 142.269Z" fill="#9E4141"/>
<path d="M147.03 144.749C146.92 144.684 146.881 144.541 146.944 144.431C147.008 144.321 147.151 144.283 147.263 144.346C147.377 144.408 147.415 144.55 147.349 144.664C147.284 144.778 147.141 144.816 147.03 144.749Z" fill="#9E4141"/>
<path d="M145.354 146.972C145.269 146.897 145.259 146.769 145.332 146.684C145.407 146.6 145.537 146.591 145.625 146.662C145.713 146.735 145.723 146.863 145.646 146.95C145.57 147.038 145.44 147.047 145.354 146.972Z" fill="#9E4141"/>
<path d="M143.305 148.862C143.242 148.783 143.256 148.671 143.335 148.611C143.414 148.554 143.522 148.557 143.588 148.636C143.65 148.711 143.644 148.832 143.563 148.893C143.482 148.954 143.367 148.94 143.305 148.862Z" fill="#9E4141"/>
<path d="M140.936 150.339C140.896 150.261 140.925 150.163 141.001 150.121C141.077 150.078 141.173 150.106 141.215 150.184C141.257 150.26 141.228 150.358 141.15 150.401C141.072 150.444 140.977 150.417 140.936 150.339Z" fill="#9E4141"/>
<path d="M138.322 151.326C138.3 151.253 138.343 151.175 138.416 151.153C138.489 151.131 138.568 151.174 138.591 151.247C138.614 151.321 138.572 151.398 138.497 151.421C138.423 151.444 138.344 151.401 138.322 151.326Z" fill="#9E4141"/>
<path d="M135.569 151.816C135.562 151.749 135.612 151.686 135.678 151.677C135.745 151.668 135.806 151.715 135.813 151.783C135.821 151.85 135.773 151.913 135.704 151.923C135.636 151.931 135.575 151.884 135.569 151.816Z" fill="#9E4141"/>
<path d="M91.5873 6.85112C91.3299 6.44325 91.4742 5.87743 91.9428 5.62892C92.4251 5.3979 92.9665 5.57848 93.1484 6.03021C93.3318 6.48137 93.1562 7.00562 92.7591 7.19508C92.3649 7.39974 91.8495 7.26903 91.5873 6.85112Z" fill="#9E4141"/>
<path d="M87.85 9.88484C87.5347 9.59333 87.5284 9.09746 87.8362 8.77615C88.1484 8.45712 88.6623 8.47518 88.9495 8.78732C89.2422 9.10606 89.2258 9.57929 88.9375 9.87251C88.6517 10.1709 88.1654 10.1761 87.85 9.88484Z" fill="#9E4141"/>
<path d="M84.7777 13.6247C84.4649 13.4126 84.3817 12.9806 84.6113 12.6699C84.8379 12.3569 85.2657 12.285 85.5699 12.51C85.8726 12.7344 85.9443 13.1598 85.7286 13.4593C85.5091 13.7563 85.0899 13.8354 84.7777 13.6247Z" fill="#9E4141"/>
<path d="M82.1984 17.7353C81.9084 17.58 81.7893 17.2079 81.9589 16.9164C82.1247 16.6235 82.4934 16.5189 82.7818 16.6834C83.0707 16.8479 83.1734 17.2119 83.0136 17.4968C82.8478 17.7798 82.4951 17.8935 82.1984 17.7353Z" fill="#9E4141"/>
<path d="M80.0001 22.0744C79.7298 21.9575 79.6113 21.6456 79.7338 21.3768C79.8552 21.1079 80.1703 20.9887 80.4359 21.1099C80.7022 21.2312 80.8213 21.5436 80.7016 21.8073C80.5823 22.071 80.2664 22.1899 80.0001 22.0744Z" fill="#9E4141"/>
<path d="M78.1357 26.5766C77.8935 26.4912 77.7684 26.2235 77.8562 25.9798C77.9443 25.7362 78.2111 25.6112 78.4524 25.7009C78.694 25.7901 78.8185 26.0575 78.7319 26.298C78.6458 26.5382 78.3787 26.6629 78.1357 26.5766Z" fill="#9E4141"/>
<path d="M76.5599 31.1958C76.3424 31.1336 76.2153 30.9057 76.2775 30.6864C76.3444 30.4689 76.5737 30.3453 76.7909 30.4095C77.0078 30.4749 77.1303 30.7016 77.0649 30.9169C77.0029 31.133 76.7782 31.2586 76.5599 31.1958Z" fill="#9E4141"/>
<path d="M75.2667 35.9098C75.0721 35.8662 74.9511 35.6727 74.9955 35.4778C75.0403 35.2829 75.2342 35.1611 75.4282 35.2069C75.6222 35.2525 75.7433 35.446 75.6991 35.6392C75.6549 35.8324 75.4609 35.9533 75.2667 35.9098Z" fill="#9E4141"/>
<path d="M74.238 40.6932C74.0638 40.6646 73.9484 40.5009 73.9797 40.3278C74.0104 40.1543 74.176 40.0385 74.3481 40.0681C74.5217 40.0985 74.6365 40.2616 74.6055 40.4335C74.5757 40.6055 74.4098 40.7216 74.238 40.6932Z" fill="#9E4141"/>
<path d="M73.4967 45.5355C73.3435 45.5195 73.2313 45.3819 73.2477 45.2274C73.2635 45.0735 73.4003 44.9628 73.5538 44.9803C73.7071 44.9978 73.8187 45.1357 73.8029 45.2888C73.7871 45.441 73.65 45.5522 73.4967 45.5355Z" fill="#9E4141"/>
<path d="M73.0364 50.4168C72.9009 50.4108 72.7959 50.2953 72.8031 50.1597C72.8094 50.0233 72.9256 49.919 73.061 49.9261C73.1967 49.9333 73.3012 50.0485 73.2943 50.1835C73.2877 50.3185 73.1721 50.4232 73.0364 50.4168Z" fill="#9E4141"/>
<path d="M72.8718 55.3209C72.7521 55.3229 72.6554 55.2278 72.6543 55.108C72.6543 54.9882 72.7504 54.8901 72.8703 54.8887C72.99 54.887 73.087 54.9827 73.0876 55.1017C73.0878 55.2203 72.9911 55.3184 72.8718 55.3209Z" fill="#9E4141"/>
<path d="M22.2258 112.025C23.0496 111.875 23.5965 111.088 23.4476 110.265C23.2981 109.442 22.5093 108.895 21.6858 109.044C20.8615 109.193 20.3152 109.982 20.4638 110.804C20.613 111.628 21.4024 112.174 22.2258 112.025Z" fill="#9E4141"/>
<path d="M28.0411 109.994C27.6927 108.413 26.6423 106.993 25.2042 106.247C23.8146 105.462 21.9333 105.351 20.6068 106.363C19.3168 107.271 18.5071 109.143 19.3277 110.631C19.7153 111.343 20.4252 111.879 21.226 112.019C22.0291 112.169 22.9194 111.77 23.285 111.032C23.435 110.767 23.4422 110.51 23.4216 110.511C23.3762 110.5 23.3148 110.728 23.1719 110.971C22.8233 111.655 21.9909 112.011 21.2553 111.864C20.5035 111.725 19.8439 111.211 19.4904 110.544C18.7395 109.16 19.5217 107.4 20.7463 106.56C22.0076 105.628 23.7398 105.749 25.0616 106.509C26.4142 107.23 27.3854 108.584 27.6942 110.068C28.27 113.094 26.2326 116.24 23.4964 117.485C20.7006 118.861 17.3252 118.087 14.839 116.353C12.3112 114.623 10.6037 111.772 10.2542 108.75C9.88985 105.721 10.9363 102.633 12.5634 100.07C14.7613 96.6079 18.4098 94.2096 22.372 93.3592L20.1865 93.0049C16.7878 94.2334 13.7863 96.5525 11.8834 99.6353C10.2072 102.35 9.14298 105.589 9.56533 108.836C9.97707 112.051 11.8252 115.04 14.5108 116.832C17.1296 118.622 20.7322 119.406 23.6984 117.907C26.5875 116.528 28.6838 113.248 28.0411 109.994Z" fill="#9E4141"/>
<path d="M112.612 61.6875C114.586 63.1393 117.137 61.9824 117.826 60.1847C118.621 58.4388 118.387 56.5367 117.53 55.279C115.704 52.7655 113.022 52.2905 111.365 52.2779C107.831 52.4559 106.907 53.4935 106.508 53.11C106.124 52.9039 106.568 52.0936 106.179 52.0205C105.955 51.9494 103.896 52.6038 102.043 56.8339C100.363 60.9729 101.062 67.5216 107.011 71.492C109.83 73.2393 113.628 74.4736 117.953 73.9227C122.186 73.401 127.029 70.9574 129.755 66.0457C132.593 61.3243 133.974 54.5521 131.499 47.7377C129.202 40.9107 122.24 35.0803 113.009 32.9581C103.964 30.8058 92.016 33.0816 83.7875 42.2822C75.7212 51.3639 70.6151 65.8846 74.1678 81.4313C73.0097 75.4183 72.1128 64.741 77.4551 53.2645C80.1536 47.6749 84.098 41.6889 90.1794 37.8623C96.1859 33.9779 104.165 32.228 111.929 33.8793C119.586 35.5595 127.431 40.4251 129.897 48.2089C131.176 52.0369 131.242 56.3341 129.949 60.2712C128.582 64.2285 126.142 67.8446 122.513 69.5151C118.897 71.2679 114.394 71.2008 110.753 69.1869C107.102 67.3969 105.111 63.1757 106.182 59.18C106.71 57.1899 107.848 55.3704 109.568 54.5286C111.277 53.5689 113.51 53.5827 115.307 54.5796C117.139 55.389 118.11 57.5898 117.504 59.5916C117.101 61.7064 114.595 62.9504 112.612 61.6875Z" fill="#9E4141"/>
</svg>
