<svg width="104" height="320" viewBox="0 0 104 320" fill="none" xmlns="http://www.w3.org/2000/svg">
<path fill-rule="evenodd" clip-rule="evenodd" d="M90.8816 265.662C92.2484 267.153 92.6798 268.78 92.0052 270.544C91.3768 272.187 90.1774 273.351 88.3309 274.03C89.8187 275.095 90.6365 276.398 90.456 278.092C91.7605 277.684 93.0096 277.283 94.2638 276.9C96.7452 276.143 99.1485 276.38 101.481 277.487C101.803 277.64 102.128 277.825 102.472 277.887C102.99 277.979 103.212 278.298 103.296 278.752C103.393 279.279 103.097 279.551 102.624 279.69C102.568 279.707 102.531 279.793 102.485 279.846C102.861 280.392 102.805 280.772 102.253 280.785C101.303 280.806 100.997 281.502 100.569 282.098C99.9847 282.912 99.4819 283.795 98.8258 284.544C98.3641 285.072 97.7112 285.435 97.1316 285.856C96.7577 286.126 96.3622 286.367 95.8555 286.701C96.1909 286.821 96.4046 286.912 96.6261 286.976C98.1418 287.409 99.346 288.295 100.138 289.636C100.549 290.332 100.815 291.145 100.996 291.939C101.259 293.091 101.4 294.272 101.566 295.444C101.696 296.356 101.783 297.275 101.902 298.305C99.717 298.66 97.9142 297.699 96.0567 296.899C94.0497 296.033 92.9916 294.265 91.7855 292.529C91.0989 293.287 90.4572 293.995 89.8173 294.7C90.3365 294.932 90.9233 295.194 91.5103 295.455C93.5625 296.368 94.4495 299.588 92.4134 301.45C90.846 302.884 89.0536 303.742 86.858 303.647C85.5899 303.592 84.4996 303.122 83.4496 302.483C83.2454 302.359 83.0459 302.227 82.7452 302.035C82.7659 302.295 82.7654 302.432 82.7892 302.565C83.1376 304.509 82.3552 306.238 80.654 307.181C80.0299 307.527 79.3738 307.822 78.7108 308.088C77.407 308.61 76.0672 308.568 74.8373 307.951C73.8553 307.458 72.9562 306.781 72.0742 306.114C71.5422 305.712 71.3221 305.077 71.2502 304.407C71.2134 304.062 71.1573 303.72 71.094 303.26C69.4003 303.984 67.8415 304.832 66.0123 304.228C65.9859 304.296 65.9592 304.364 65.9325 304.432C66.1603 304.592 66.3766 304.774 66.6179 304.91C67.2417 305.263 67.9161 305.54 68.4993 305.949C69.8764 306.914 70.7069 308.195 70.5176 309.961C70.3992 311.065 70.188 312.164 70.1375 313.271C70.0501 315.178 69.1708 316.775 68.2832 318.373C67.9902 318.901 67.6358 319.421 67.2035 319.833C67.005 320.022 66.5272 320.033 66.2217 319.953C66.0439 319.906 65.7977 319.464 65.8552 319.291C66.0845 318.602 65.7364 318.076 65.4203 317.586C65.0149 316.957 64.5298 316.362 63.9991 315.834C62.7379 314.578 62.3374 313.056 62.3667 311.33C62.385 310.267 62.6578 309.291 63.0016 308.304C63.2716 307.529 63.2586 306.705 63.1602 305.712C62.8537 306.061 62.6345 306.274 62.4577 306.518C61.0781 308.416 59.1789 309.454 56.9309 309.996C55.9259 310.238 54.965 310.665 53.9885 311.02C53.72 311.117 53.4777 311.301 53.2044 311.368C52.5154 311.536 52.0366 311.161 52.0118 310.435C51.9974 310.009 52.0024 309.57 52.0859 309.154C52.5024 307.079 52.8813 304.993 53.4053 302.945C53.7794 301.482 54.3376 300.046 55.5694 299.047C56.1189 298.601 56.7644 298.273 57.3678 297.894C57.5643 297.771 57.7652 297.654 58.1521 297.421C57.7539 297.335 57.5629 297.251 57.3757 297.259C54.8618 297.359 52.3479 297.46 49.8355 297.589C49.0478 297.63 48.2664 297.789 47.4787 297.833C46.8079 297.871 46.1314 297.796 45.4592 297.818C44.8161 297.839 44.1759 297.932 43.5333 297.976C43.0045 298.012 42.474 298.018 41.9447 298.047C40.2991 298.138 38.6532 298.23 37.0078 298.328C35.3264 298.428 33.6459 298.542 31.9644 298.639C29.886 298.759 27.8078 298.877 25.7286 298.98C24.051 299.064 22.3974 299.42 20.6864 299.096C19.2729 298.828 18.435 297.936 17.6694 296.89C17.521 296.687 17.5349 296.341 17.5303 296.061C17.4851 293.12 17.4421 290.179 17.4168 287.238C17.3956 284.773 17.4062 282.308 17.3886 279.843C17.3706 277.332 17.3961 274.818 17.2869 272.31C17.212 270.596 16.886 268.893 16.7689 267.179C16.6447 265.361 16.357 263.556 16.4258 261.719C16.471 260.508 16.2983 259.291 16.2442 258.075C16.1855 256.756 15.955 255.454 16.132 254.112C16.2574 253.164 16.102 252.181 16.088 251.213C16.0755 250.355 16.0854 249.498 16.0854 248.652C14.4099 248.652 12.8093 248.657 11.2089 248.649C10.5622 248.645 9.9155 248.581 9.27001 248.596C7.90539 248.629 6.54102 248.751 5.17785 248.734C3.71051 248.716 2.24317 248.602 0.779193 248.486C0.114931 248.433 -0.00801212 248.212 0.0528565 247.561C0.0992899 247.064 0.28767 246.633 0.726983 246.393C1.60537 245.916 2.50685 245.48 3.39991 245.029C3.46319 244.997 3.53729 244.987 3.60585 244.965C7.26543 243.779 10.8235 242.363 14.1905 240.475C15.5951 239.687 17.0874 239.056 18.5394 238.352C18.8947 238.18 19.27 238.037 19.5987 237.824C21.5515 236.554 23.5705 235.369 25.4187 233.96C27.552 232.334 29.5775 230.582 31.3812 228.547C33.1276 226.576 34.6349 224.455 36.0972 222.292C36.856 221.17 37.4815 219.944 38.0553 218.713C38.9188 216.861 39.7214 214.978 40.4824 213.081C41.7777 209.852 42.6296 206.485 43.5063 203.125C44.0195 201.158 43.7231 199.2 43.6572 197.236C43.6471 196.933 43.5099 196.588 43.322 196.348C42.8401 195.73 42.3563 195.091 41.7654 194.588C40.5387 193.543 40.6482 192.119 40.5245 190.747C40.5214 190.712 40.5293 190.673 40.5433 190.641C41.2977 188.933 42.0258 187.244 44.1307 186.719C45.8766 186.284 48.1951 187.365 49.234 189.127C50.2923 190.923 49.8922 192.642 49.1296 194.361C48.9946 194.665 48.6643 194.91 48.3758 195.113C47.5872 195.67 46.7726 196.191 45.8557 196.8C45.9789 199.742 45.3483 202.809 46.2502 205.804C46.5546 206.815 47.0834 207.758 47.5095 208.732C47.578 208.713 47.6464 208.695 47.7147 208.677C47.7828 207.808 47.802 206.932 47.9286 206.072C48.2322 204.002 48.8709 202.034 49.8157 200.163C50.1056 199.589 50.364 198.995 50.583 198.391C50.7567 197.911 51.0512 197.682 51.5489 197.73C52.0549 197.778 52.3419 198.118 52.3758 198.676C52.4251 199.489 53.1933 201.097 53.7967 201.667C54.415 202.251 55.0281 202.84 55.79 203.567C55.79 202.378 55.7265 201.324 55.8028 200.281C55.9851 197.786 56.6701 195.412 57.7599 193.164C57.9726 192.726 58.3624 192.373 58.6667 191.978C59.0108 191.531 59.3791 191.099 59.6834 190.625C59.995 190.141 60.3888 189.977 60.9509 190.195C61.4303 190.382 61.5701 190.722 61.4999 191.308C61.4068 192.086 61.4746 192.826 61.9173 193.533C63.0052 195.27 64.0138 197.061 64.4921 199.076C64.7962 200.357 65.2398 201.631 65.0993 202.982C64.9922 204.009 64.8955 205.041 64.7096 206.056C64.5096 207.144 64.2106 208.214 63.9178 209.449C65.4667 209.074 66.9502 209.053 68.3756 209.607C69.8314 210.174 71.119 210.909 71.9014 212.412C72.604 213.763 73.0596 215.141 73.0678 216.731C73.7184 216.24 74.2195 215.785 74.7904 215.447C76.3718 214.511 78.028 214.302 79.6991 215.202C80.7462 215.767 81.5596 216.718 81.94 217.74C82.4137 219.013 82.6201 220.481 81.9563 221.822C81.561 222.62 81.0998 223.411 80.5306 224.09C80.0862 224.619 79.4294 224.971 78.7368 225.501C79.2579 225.756 79.6255 225.935 79.9936 226.114C81.3262 226.764 82.2732 227.734 82.5089 229.252C82.7433 230.758 82.4363 232.143 81.4164 233.31C81.0163 233.768 80.5578 234.177 80.1033 234.583C79.2788 235.32 78.2363 235.219 77.242 235.279C76.8537 235.303 76.4627 235.283 75.811 235.283C76.2212 235.543 76.4257 235.701 76.6533 235.812C78.0393 236.486 79.4761 237.07 80.8102 237.835C82.9896 239.083 85.3426 240.031 87.3452 241.589C87.8519 241.983 88.4125 242.308 88.9406 242.676C89.5057 243.07 89.5675 243.303 89.3476 244.077C89.1306 244.843 88.954 245.026 88.2621 245.043C87.4747 245.062 86.6836 244.988 85.8983 245.03C83.6804 245.151 81.4638 245.302 79.248 245.46C78.6817 245.5 78.1206 245.613 77.5933 245.687C77.5281 248.302 77.465 250.832 77.3962 253.592C77.7576 253.229 78.008 253.046 78.1707 252.803C79.6712 250.567 81.8897 249.377 84.3557 248.567C85.5822 248.163 86.8318 247.828 88.0769 247.483C88.609 247.336 89.0527 247.139 89.3996 246.651C89.7836 246.11 90.3648 246.08 90.8039 246.442C91.2983 246.848 91.3337 247.254 90.8559 247.835C90.2713 248.546 89.939 249.273 90.3911 250.191C90.4753 250.362 90.4469 250.62 90.398 250.82C89.9253 252.759 89.4369 254.694 88.9194 256.763C89.8343 256.503 90.7488 256.38 91.5572 255.941C91.8664 255.773 92.1021 255.753 92.4406 255.768C93.1896 255.802 93.9445 255.696 94.6973 255.655C96.2385 255.569 97.6842 255.9 99.0652 256.595C99.6029 256.866 100.206 257.005 100.769 257.229C101.032 257.334 101.304 257.46 101.514 257.643C101.962 258.033 101.935 258.68 101.436 259.01C100.635 259.54 99.9672 260.144 99.7492 261.139C99.7083 261.326 99.518 261.514 99.3486 261.634C97.4489 262.987 95.5902 264.419 93.2928 265.066C92.5482 265.275 91.7908 265.439 90.8816 265.662ZM27.6574 292.13C28.0943 292.13 28.3443 292.144 28.5923 292.127C29.4199 292.069 29.5316 291.978 29.6098 291.199C29.6995 290.305 29.7919 289.409 29.8248 288.513C29.9192 285.934 29.9764 283.354 30.0628 280.775C30.1251 278.91 30.2281 277.046 30.2822 275.181C30.3664 272.271 30.4071 269.359 30.4973 266.449C30.6173 262.573 30.7699 258.697 30.9027 254.821C30.9797 252.58 30.5555 250.337 30.914 248.096C30.9176 248.072 30.8753 248.041 30.7757 247.911C30.0358 247.973 29.2227 248.032 28.4119 248.114C27.5963 248.197 26.7829 248.305 26.0337 248.393C25.4676 249.189 25.5782 250.027 25.4979 250.837C25.4137 251.687 25.1731 252.523 25.1033 253.373C24.9712 254.984 24.8846 256.6 24.8283 258.216C24.6986 261.946 24.5998 265.677 24.4867 269.408C24.3688 273.288 24.2649 277.169 24.122 281.049C24.069 282.484 23.8847 283.913 23.8289 285.348C23.7743 286.746 23.7719 288.149 23.8145 289.547C23.8448 290.536 23.9889 291.52 24.0873 292.563C24.8415 292.475 25.4368 292.405 26.1756 292.319C26.2519 291.277 26.3334 290.247 26.4018 289.217C26.5485 286.997 26.7237 284.779 26.8209 282.557C26.9149 280.407 26.9068 278.252 26.9773 276.099C27.0514 273.84 27.1721 271.582 27.2597 269.324C27.3314 267.467 27.4093 265.611 27.4385 263.754C27.4683 261.853 27.4575 259.951 27.4375 258.05C27.4096 255.4 27.341 252.749 27.3302 250.098C27.3283 249.655 27.4474 249.164 27.667 248.785C27.8114 248.537 28.2425 248.323 28.5341 248.337C28.7343 248.346 28.99 248.745 29.0858 249.018C29.2 249.343 29.285 249.757 29.182 250.066C28.8471 251.07 28.7939 252.084 28.7559 253.133C28.6833 255.14 28.4167 257.138 28.3079 259.144C28.1424 262.191 28.0046 265.242 27.9244 268.292C27.8039 272.89 27.7433 277.49 27.6567 282.089C27.604 284.889 27.5409 287.689 27.5053 290.489C27.4993 291.016 27.6004 291.545 27.6574 292.13ZM74.7166 295.558C74.6369 294.94 74.5291 294.548 74.5474 294.163C74.6076 292.903 73.8793 292.209 72.8193 291.867C71.9411 291.584 71.0019 291.335 70.0905 291.338C66.7849 291.351 63.4777 291.433 60.1742 291.569C56.837 291.705 53.5044 291.948 50.1689 292.123C46.8315 292.298 43.4926 292.446 40.1542 292.606C39.1058 293.239 37.9827 292.811 36.8895 292.863C35.1702 292.945 33.4587 293.181 31.7416 293.323C30.4549 293.43 29.163 293.473 27.8761 293.577C25.9131 293.736 23.9523 293.92 21.9911 294.099C21.1057 294.18 20.2211 294.273 19.277 294.367C19.277 294.932 19.2125 295.403 19.2888 295.849C19.5306 297.263 20.3979 297.778 21.7358 297.632C23.4146 297.449 25.0937 297.269 26.7739 297.102C27.5215 297.028 28.2721 296.949 29.0218 296.943C30.6664 296.929 32.3132 297.007 33.9564 296.96C35.68 296.91 37.4017 296.771 39.1224 296.644C40.301 296.557 41.4762 296.424 42.6527 296.311C42.8315 296.294 43.0093 296.257 43.188 296.255C46.2081 296.208 49.229 296.189 52.2481 296.109C53.7183 296.071 55.1854 295.921 56.654 295.82C57.9772 295.73 59.3007 295.553 60.6232 295.561C63.5302 295.578 66.437 295.688 69.344 295.759C70.5638 295.789 71.7845 295.845 73.0038 295.827C73.5577 295.819 74.1093 295.659 74.7166 295.558ZM43.6644 208.663C43.4714 209.133 43.3204 209.473 43.1904 209.821C41.8376 213.445 40.5724 217.093 38.7379 220.53C36.8654 224.038 34.5866 227.207 31.9054 230.132C30.1725 232.023 28.1929 233.603 26.1924 235.17C25.3179 235.855 24.3481 236.417 23.4524 237.076C21.0174 238.869 18.5697 240.629 15.679 241.65C14.5307 242.056 13.3927 242.496 12.2687 242.966C10.0524 243.892 7.84742 244.845 5.64099 245.795C4.73301 246.185 3.83273 246.594 2.92908 246.995C2.94328 247.077 2.95747 247.16 2.97143 247.242C4.60141 247.249 6.23162 247.267 7.86136 247.261C10.2345 247.251 12.6077 247.219 14.9811 247.207C15.4805 247.204 15.9145 247.255 16.2807 246.718C16.6216 246.218 17.1021 246.285 17.5825 246.717C17.7103 246.832 17.7971 246.992 17.973 247.225C18.4835 246.94 19.0023 246.701 19.462 246.379C20.1638 245.887 20.8134 245.322 21.5056 244.817C22.1426 244.35 22.8529 243.976 23.4507 243.467C26.5055 240.868 29.8217 238.573 32.6311 235.689C33.9488 234.337 35.2486 232.953 36.4217 231.476C37.7392 229.818 38.6289 227.889 39.4471 225.94C39.6117 225.547 39.6653 225.11 39.8133 224.709C40.2596 223.502 40.8043 222.325 41.1697 221.094C41.822 218.897 42.436 216.684 42.9421 214.45C43.3432 212.679 43.5617 210.867 43.8511 209.072C43.8636 208.995 43.7775 208.902 43.6644 208.663ZM74.5248 290.784C74.5248 289.761 74.4832 288.831 74.5327 287.905C74.6634 285.475 74.8498 283.048 74.9831 280.618C75.0945 278.584 75.1749 276.546 75.2461 274.51C75.3209 272.366 75.3628 270.221 75.4306 268.076C75.4556 267.289 75.5095 266.502 75.5564 265.716C75.6339 264.428 75.7537 263.141 75.7877 261.851C75.8281 260.316 75.7992 258.778 75.7956 257.241C75.7942 256.6 75.7684 255.958 75.7735 255.317C75.7857 253.746 75.7785 252.174 75.8377 250.605C75.8974 249.021 75.65 247.483 75.3912 245.963C74.5087 245.963 73.707 245.963 72.8356 245.963C72.6848 247.747 72.5161 249.421 72.4096 251.098C72.3092 252.672 72.2775 254.25 72.2101 255.825C72.1654 256.867 72.0886 257.908 72.0653 258.951C71.9792 262.823 71.9079 266.695 71.8343 270.568C71.8228 271.176 71.8408 271.786 71.8237 272.394C71.7609 274.614 71.6803 276.833 71.6231 279.053C71.5704 281.096 71.5432 283.14 71.497 285.184C71.471 286.333 71.4119 287.482 71.4017 288.631C71.3967 289.215 71.4631 289.792 72.1719 290.009C72.9203 290.24 73.6596 290.498 74.5248 290.784ZM36.9207 247.907C36.8142 248.824 36.7155 249.664 36.6188 250.504C36.41 252.316 36.1403 254.123 36.0075 255.941C35.7907 258.908 35.6136 261.88 35.5106 264.853C35.3661 269.012 35.3182 273.175 35.2005 277.335C35.1539 278.985 35.0841 280.637 34.9313 282.278C34.6917 284.859 34.4937 287.437 34.6895 290.027C34.7314 290.58 34.908 291.123 35.0348 291.729C36.0775 291.619 36.9917 291.523 37.9579 291.421C38.0253 289.772 38.0825 288.196 38.1554 286.621C38.3116 283.248 38.4812 279.875 38.6342 276.502C38.7268 274.462 38.7997 272.421 38.8798 270.38C38.953 268.517 39.0357 266.654 39.0918 264.791C39.1394 263.211 39.0875 261.625 39.1989 260.051C39.4536 256.44 39.4279 252.837 39.144 249.231C39.1115 248.819 39.1957 248.397 39.2309 247.907C38.5069 247.907 37.7363 247.907 36.9207 247.907ZM69.8266 289.761C69.9445 289.208 70.0929 288.796 70.1122 288.378C70.2286 285.837 70.3415 283.296 70.4069 280.754C70.5171 276.486 70.5999 272.216 70.6752 267.947C70.7074 266.115 70.667 264.282 70.7064 262.451C70.7372 261.026 70.8859 259.604 70.902 258.18C70.9302 255.674 70.8999 253.169 70.8886 250.663C70.8816 249.136 70.864 247.61 70.8503 245.986C69.8916 245.986 69.0868 245.986 68.2741 245.986C68.2741 246.786 68.3302 247.494 68.2582 248.188C68.1887 248.857 67.9291 249.506 67.8581 250.174C67.7754 250.955 67.8203 251.749 67.7852 252.536C67.6832 254.833 67.5432 257.129 67.4681 259.427C67.4142 261.077 67.4744 262.731 67.4251 264.382C67.3293 267.575 67.1734 270.768 67.0774 273.961C66.9718 277.481 66.889 281.002 66.8296 284.522C66.8 286.27 66.6857 288.036 67.3972 289.761C68.1524 289.761 68.9268 289.761 69.8266 289.761ZM46.5784 212.328C46.6123 213.785 47.1553 215.095 47.7385 216.373C48.4345 217.897 49.2205 219.382 49.9928 220.871C50.3871 221.632 50.7663 222.416 51.2747 223.099C52.7069 225.022 54.0017 227.035 55.6038 228.851C57.1869 230.645 58.9891 232.138 60.8493 233.582C62.6032 234.944 64.391 236.276 66.2568 237.476C67.9683 238.577 69.76 239.579 71.5995 240.448C72.9874 241.103 74.521 241.444 75.9642 241.992C77.4347 242.55 78.872 243.195 80.3287 243.79C80.553 243.882 80.8087 243.976 81.0404 243.957C82.758 243.813 84.4743 243.651 86.188 243.467C86.393 243.445 86.5797 243.254 86.8345 243.107C86.1021 242.388 85.3077 241.979 84.4603 241.687C82.4599 240.997 80.4348 240.375 78.4454 239.655C76.9964 239.13 75.5769 238.517 74.1658 237.894C73.3125 237.518 72.5183 237.006 71.6664 236.627C69.6156 235.711 67.7585 234.512 66.052 233.052C65.2627 232.377 64.4194 231.745 63.5302 231.211C61.3909 229.924 59.4224 228.455 57.7867 226.546C57.3023 225.981 56.6499 225.559 56.0705 225.076C55.1902 224.343 54.302 223.619 53.4296 222.876C53.304 222.769 53.2475 222.581 53.1589 222.43C53.1984 222.401 53.2383 222.372 53.278 222.343C53.5323 222.551 53.7866 222.76 54.0409 222.968C54.0924 222.924 54.1439 222.881 54.1954 222.837C53.945 222.484 53.6945 222.131 53.4573 221.797C53.1669 221.872 52.9451 221.929 52.7745 221.974C51.298 218.319 48.8568 215.382 46.5784 212.328ZM64.4144 246.273C64.2298 246.755 64.0684 247.078 63.9825 247.42C63.7823 248.218 63.5049 249.019 63.4592 249.831C63.268 253.237 63.1193 256.647 63.0122 260.059C62.8272 265.951 62.685 271.845 62.5238 277.739C62.4524 280.36 62.3479 282.98 62.322 285.601C62.3123 286.559 62.3564 287.558 62.6246 288.465C62.7861 289.01 62.9629 289.449 62.5306 290.074C63.6041 290.019 64.5152 289.972 65.4987 289.921C65.5444 288.442 65.5968 287.085 65.6267 285.727C65.733 280.882 65.8281 276.036 65.9346 271.19C65.9859 268.859 66.0535 266.53 66.1127 264.2C66.1846 261.372 66.2563 258.544 66.3261 255.716C66.366 254.105 66.4175 252.494 66.4314 250.883C66.4362 250.315 66.3499 249.746 66.2962 249.179C66.2041 248.204 66.105 247.23 66.0104 246.273C65.5285 246.273 64.9672 246.273 64.4144 246.273ZM61.4005 290.125C60.6597 289.536 60.5279 288.988 61.0921 288.317C61.2636 288.112 61.2015 287.694 61.2078 287.372C61.2535 284.968 61.2687 282.563 61.3331 280.159C61.4378 276.245 61.5793 272.333 61.6912 268.42C61.7373 266.809 61.7395 265.197 61.7756 263.586C61.8302 261.152 61.9014 258.717 61.9572 256.283C61.9936 254.709 62.0309 253.134 62.0395 251.559C62.0489 249.881 62.0131 248.205 61.3587 246.547C60.9167 246.584 60.5007 246.618 60.1187 246.65C59.6053 247.744 59.2874 248.796 59.241 249.929C59.1972 250.999 59.1053 252.067 59.0478 253.137C58.9205 255.503 58.7543 257.868 58.6896 260.236C58.5772 264.329 58.5346 268.424 58.4545 272.518C58.359 277.403 58.2551 282.288 58.1538 287.172C58.1321 288.213 58.2989 289.222 58.5758 290.25C59.5121 290.209 60.3643 290.171 61.4005 290.125ZM21.3451 246.832C22.4388 246.832 23.2674 246.748 24.0729 246.849C26.2033 247.117 28.2964 246.669 30.408 246.619C30.8286 246.609 31.1464 246.473 31.4471 246.161C32.6871 244.877 33.9836 243.646 35.2044 242.344C37.3252 240.082 38.9838 237.487 40.4304 234.761C41.4219 232.892 42.256 230.964 42.715 228.866C42.99 227.609 43.3432 226.374 43.5107 225.091C43.7327 223.386 44.0712 221.695 44.2649 219.987C44.3715 219.047 44.2839 218.086 44.2839 217.134C43.9608 217.341 43.8054 217.571 43.7277 217.825C43.4043 218.884 43.1544 219.968 42.7853 221.011C41.9271 223.435 41.0637 225.856 40.0999 228.245C39.3704 230.054 38.3246 231.634 37.1296 233.056C34.8935 235.718 32.2887 238.049 29.6564 240.328C29.1726 240.747 28.5805 241.037 28.0738 241.432C26.3212 242.799 24.5812 244.182 22.8423 245.566C22.3991 245.919 21.9762 246.297 21.3451 246.832ZM32.3462 247.974C32.4872 248.524 32.5533 248.9 32.6811 249.253C32.8755 249.792 32.9912 250.261 32.4292 250.697C32.2165 250.862 32.0895 251.245 32.0715 251.537C31.9189 254.01 31.7839 256.486 31.6774 258.962C31.5956 260.862 31.5652 262.766 31.5073 264.667C31.4038 268.076 31.2903 271.485 31.1936 274.895C31.1296 277.154 31.091 279.413 31.035 281.672C30.9655 284.475 30.8926 287.278 30.8141 290.081C30.7942 290.793 30.9438 291.425 31.5212 291.902C31.6473 291.902 31.7546 291.905 31.8619 291.902C33.3502 291.858 33.4276 291.796 33.4993 290.295C33.7086 285.917 33.916 281.538 34.1025 277.159C34.1742 275.476 34.1619 273.79 34.2334 272.106C34.3048 270.422 34.4581 268.742 34.5307 267.058C34.6128 265.158 34.6188 263.255 34.7044 261.357C34.8291 258.597 35.0716 255.84 35.1163 253.08C35.1438 251.381 35.194 249.651 34.7425 247.974C33.987 247.974 33.2811 247.974 32.3462 247.974ZM56.6811 290.42C56.7767 289.597 56.9039 288.892 56.9335 288.183C57.0589 285.176 57.1724 282.167 57.2578 279.158C57.3606 275.529 57.438 271.899 57.5112 268.269C57.5453 266.581 57.5347 264.893 57.5598 263.205C57.5886 261.267 57.6312 259.33 57.6741 257.392C57.7176 255.418 57.7871 253.445 57.8102 251.472C57.8283 249.942 57.9336 248.393 57.2533 246.917C56.9927 247.151 56.7904 247.473 56.5291 247.531C56.2127 247.602 55.8468 247.449 55.3406 247.368C55.163 249.38 54.9037 251.327 54.8361 253.282C54.6737 257.986 54.5969 262.693 54.4935 267.398C54.4182 270.813 54.3489 274.226 54.2888 277.641C54.2291 281.016 54.1718 284.391 54.1475 287.766C54.1439 288.254 54.302 288.751 54.4406 289.228C54.5577 289.631 54.7557 290.01 54.9263 290.419C55.4886 290.42 56.0539 290.42 56.6811 290.42ZM41.5951 291.27C41.7508 290.472 41.937 289.848 41.9846 289.214C42.1244 287.351 42.237 285.486 42.3089 283.619C42.403 281.179 42.4376 278.736 42.5163 276.295C42.6017 273.642 42.7165 270.991 42.8038 268.338C42.8839 265.898 42.9385 263.456 43.016 261.014C43.0981 258.434 43.2479 255.854 43.2549 253.274C43.2576 252.355 43.08 251.434 43.2446 250.509C43.2689 250.373 43.2826 250.179 43.2082 250.089C42.6453 249.408 42.5543 248.626 42.7345 247.827C42.0306 247.827 41.4087 247.827 40.8798 247.827C40.8798 248.388 40.9051 248.842 40.8736 249.292C40.8286 249.936 40.7189 250.576 40.6773 251.22C40.4918 254.086 40.2938 256.952 40.1521 259.821C40.0031 262.837 39.9095 265.857 39.7986 268.875C39.6182 273.792 39.4277 278.709 39.2734 283.626C39.2027 285.889 39.2082 288.154 39.1789 290.418C39.1779 290.49 39.1721 290.562 39.1765 290.634C39.202 291.06 39.3976 291.29 39.8571 291.275C40.3917 291.256 40.9275 291.27 41.5951 291.27ZM45.3129 247.428C45.2441 247.659 45.1851 247.762 45.1876 247.864C45.2068 248.673 45.4178 249.521 44.6296 250.141C44.544 250.209 44.5507 250.41 44.5389 250.552C44.4593 251.511 44.3717 252.47 44.3147 253.431C44.2509 254.507 44.2069 255.583 44.1718 256.66C44.0765 259.604 43.9839 262.548 43.9038 265.492C43.8737 266.606 43.9074 267.721 43.8643 268.833C43.7866 270.842 43.6543 272.849 43.579 274.859C43.4472 278.378 43.329 281.898 43.2306 285.419C43.1928 286.772 43.2244 288.128 43.2244 289.461C44.1266 289.583 44.1266 289.583 43.9837 290.972C44.4788 290.972 44.9693 290.972 45.3747 290.972C45.5306 290.323 45.7344 289.754 45.7929 289.171C45.9108 287.995 45.9786 286.812 46.0166 285.63C46.1795 280.602 46.3277 275.573 46.4735 270.544C46.5558 267.709 46.6224 264.873 46.6987 262.037C46.7353 260.673 46.7904 259.309 46.8139 257.944C46.8442 256.185 46.736 254.415 46.9013 252.67C47.0716 250.87 47.0319 249.101 46.8192 247.224C46.3166 247.292 45.8299 247.358 45.3129 247.428ZM21.8535 248.325C21.6983 249.335 21.5551 250.207 21.4324 251.082C21.3143 251.924 21.1343 252.77 21.1266 253.615C21.1011 256.553 21.1918 259.492 21.1406 262.429C21.0549 267.342 20.8476 272.253 20.7788 277.167C20.7169 281.581 20.7585 285.998 20.7932 290.414C20.798 291.005 20.94 291.634 21.1779 292.175C21.4731 292.846 21.9932 292.846 22.2225 292.173C22.4949 291.375 22.6582 290.517 22.7268 289.673C22.8837 287.743 22.9825 285.806 23.0535 283.869C23.1846 280.287 23.2741 276.703 23.3908 273.12C23.4596 271.001 23.5417 268.884 23.6266 266.766C23.8034 262.354 23.9757 257.943 24.1744 253.532C24.2213 252.493 24.1968 251.462 24.1713 250.426C24.1525 249.672 24.0163 249.03 23.7197 248.325C23.087 248.325 22.4499 248.325 21.8535 248.325ZM46.3775 217.363C46.3395 217.374 46.3017 217.385 46.2635 217.395C46.4374 218.228 46.5861 219.067 46.7896 219.892C47.3134 222.017 47.8352 224.149 48.7791 226.137C49.9647 228.634 51.4666 230.935 53.1758 233.109C55.7147 236.338 58.7435 239.003 62.3641 240.933C64.6085 242.128 66.9535 243.136 69.2634 244.207C69.5427 244.336 69.8841 244.373 70.1981 244.378C71.094 244.392 71.9907 244.368 72.8869 244.358C74.2515 244.342 75.6168 244.334 77.1164 244.068C75.2011 243.387 73.4171 242.836 71.7027 242.119C70.0237 241.417 68.3417 240.666 66.7957 239.718C64.9966 238.613 63.3721 237.23 61.6223 236.04C58.7023 234.055 55.9652 231.875 53.7404 229.104C53.0675 228.266 52.3496 227.462 51.7106 226.599C51.1589 225.853 50.6164 225.084 50.2028 224.258C49.6728 223.201 48.7961 222.389 48.3609 221.245C47.8477 219.895 47.0514 218.652 46.3775 217.363ZM52.0445 247.069C51.8408 247.998 51.5549 248.851 51.4818 249.723C51.2992 251.902 51.1669 254.089 51.0983 256.275C50.9924 259.648 50.965 263.023 50.8892 266.397C50.8207 269.449 50.7148 272.501 50.6566 275.554C50.6039 278.32 50.5957 281.086 50.5637 283.852C50.5452 285.468 50.4947 287.083 50.5053 288.699C50.5103 289.449 50.594 290.21 51.1866 290.746C51.6088 290.746 51.9943 290.746 52.3773 290.746C52.4425 290.619 52.5226 290.53 52.5327 290.434C52.741 288.476 53.0447 286.521 53.1212 284.559C53.2653 280.865 53.2872 277.167 53.3418 273.471C53.406 269.128 53.4484 264.786 53.5056 260.443C53.5369 258.076 53.625 255.707 53.6036 253.341C53.5848 251.249 53.7777 249.133 53.1349 247.069C52.7519 247.069 52.3693 247.069 52.0445 247.069ZM48.8625 247.176C48.703 248.238 48.5885 249.189 48.4141 250.128C47.8602 253.109 47.9202 256.139 47.6995 259.145C47.5131 261.687 47.5333 264.244 47.4678 266.794C47.3803 270.205 47.2913 273.616 47.2169 277.027C47.1635 279.469 47.087 281.913 47.1101 284.355C47.1238 285.82 46.8902 287.294 47.2287 288.756C47.3863 289.436 47.4669 290.134 47.5891 290.866C47.9822 290.866 48.3701 290.866 48.9075 290.866C49.0432 290.335 49.2737 289.802 49.3016 289.26C49.4123 287.107 49.4794 284.951 49.5268 282.796C49.6115 278.951 49.6627 275.104 49.7419 271.259C49.8112 267.88 49.8997 264.501 49.9791 261.123C50.0137 259.652 50.0712 258.181 50.0746 256.71C50.0785 255.06 50.0383 253.409 50.0056 251.759C49.9921 251.081 49.9055 250.403 49.9298 249.728C49.957 248.972 49.3947 248.294 49.6731 247.515C49.6916 247.462 49.637 247.383 49.5975 247.257C49.418 247.237 49.2138 247.215 48.8625 247.176ZM66.2293 244.606C64.8597 243.911 63.6385 243.254 62.3852 242.665C61.1094 242.065 59.945 241.316 58.8683 240.408C57.7994 239.506 56.6441 238.703 55.6137 237.761C54.5823 236.818 53.6081 235.8 52.7018 234.735C51.7963 233.671 50.9771 232.53 50.1733 231.385C49.3928 230.273 48.6797 229.114 47.937 227.976C47.8915 228.911 48.0051 229.759 48.1117 230.609C48.4485 233.291 49.0793 235.86 50.2882 238.325C51.5253 240.847 53.3805 242.88 55.0483 245.067C55.2126 245.283 55.578 245.446 55.8554 245.454C56.7168 245.48 57.5829 245.452 58.4427 245.388C60.7343 245.215 63.0245 245.017 65.3139 244.817C65.5834 244.794 65.8466 244.697 66.2293 244.606ZM70.3549 222.901C70.648 221.901 70.8917 221.114 71.1087 220.32C71.7313 218.041 71.6551 215.821 70.8874 213.548C70.3215 211.873 67.4867 210.139 65.6967 210.455C64.737 210.624 63.2247 211.855 63.1123 212.788C62.9602 214.05 63.0372 215.304 63.7859 216.411C64.7355 217.815 65.5473 219.29 66.1338 220.885C66.2067 221.083 66.327 221.263 66.4608 221.52C67.8993 221.316 69.0654 222.036 70.3549 222.901ZM19.617 292.017C19.6497 291.46 19.6886 290.962 19.7065 290.464C19.7461 289.349 19.7772 288.234 19.8087 287.12C19.8982 283.961 20.0108 280.802 20.0656 277.643C20.1037 275.457 20.0546 273.27 20.0555 271.084C20.057 267.888 20.0587 264.692 20.0789 261.496C20.0969 258.659 20.1419 255.823 20.1703 252.986C20.1727 252.735 20.19 252.469 20.1169 252.236C19.7218 250.976 19.526 249.701 19.8188 248.332C19.0966 248.379 18.4722 248.42 17.8725 248.46C17.7813 249.374 17.5748 250.174 17.6603 250.941C17.7481 251.728 17.5657 252.471 17.5825 253.233C17.5926 253.688 17.6992 254.154 17.834 254.594C18.2769 256.039 18.3998 257.475 17.8835 258.93C17.802 259.16 17.762 259.423 17.7767 259.666C17.9054 261.815 18.0361 263.964 18.1953 266.11C18.3231 267.829 18.524 269.543 18.6315 271.263C18.7275 272.803 18.7188 274.348 18.7985 275.889C18.8408 276.708 19.0506 277.524 19.0456 278.341C19.0381 279.558 18.8536 280.774 18.8408 281.992C18.8163 284.328 18.8594 286.663 18.8747 288.999C18.8803 289.826 18.8993 290.653 18.8894 291.48C18.8844 291.895 19.0537 292.069 19.617 292.017ZM62.6369 225.876C62.7697 225.369 62.8383 224.977 62.9759 224.612C63.1753 224.082 63.2975 223.436 63.6777 223.079C64.6054 222.209 64.8842 221.361 64.0568 220.304C63.6341 218.269 62.1449 217.143 60.5301 216.096C59.6625 215.534 58.7201 215.375 57.751 215.494C55.3666 215.785 54.1519 217.981 55.1703 219.956C55.5338 220.661 55.9548 221.319 56.6258 221.79C58.4117 223.042 60.1868 224.31 61.9719 225.564C62.1423 225.683 62.3525 225.745 62.6369 225.876ZM72.1649 225.506C73.1927 225.383 74.1834 225.173 75.1742 225.172C76.0906 225.172 76.8667 224.898 77.5901 224.415C78.0949 224.077 78.5496 223.665 79.032 223.293C80.6114 222.075 81.2665 219.869 80.3747 218.1C79.5444 216.453 78.4307 215.636 76.3323 216.297C75.0259 216.708 74.2688 217.728 73.7472 218.87C73.0517 220.392 72.5313 221.994 71.9168 223.555C71.6505 224.23 71.6741 224.853 72.1649 225.506ZM76.367 298.379C75.7407 298.946 75.1349 299.445 74.5883 300.001C74.035 300.564 73.4797 301.143 73.0327 301.789C72.2426 302.933 72.0843 304.527 73.2639 305.505C73.9205 306.049 74.6721 306.492 75.421 306.908C76.1026 307.288 76.8628 307.39 77.6111 307.088C78.4382 306.753 79.2997 306.46 80.0533 305.997C81.3382 305.208 81.8358 303.431 81.1905 302.22C80.6701 301.242 80.1035 300.29 79.5415 299.298C78.3819 299.366 77.2834 299.279 76.367 298.379ZM45.3569 226.603C45.2646 226.579 45.1724 226.556 45.08 226.532C44.2339 230.283 42.9838 233.844 40.8782 237.096C38.7988 240.307 36.6926 243.479 33.8737 246.348C34.3885 246.412 34.7388 246.516 35.0781 246.487C36.3958 246.376 37.7101 246.224 39.0252 246.083C39.4779 246.034 39.8309 245.86 40.0371 245.405C40.2726 244.886 40.5399 244.377 40.8433 243.894C42.4612 241.32 43.5342 238.508 44.417 235.621C44.7603 234.498 45.0629 233.337 45.1642 232.173C45.3257 230.325 45.3023 228.461 45.3569 226.603ZM69.9613 231.299C70.6179 231.642 71.1672 231.895 71.6811 232.205C73.0873 233.055 74.6304 233.56 76.2342 233.725C77.1559 233.821 78.2294 233.745 79.0356 233.345C80.1789 232.777 80.8628 231.649 81.0991 230.342C81.267 229.415 80.5094 227.913 79.664 227.567C78.6345 227.146 77.5714 226.802 76.4305 226.97C75.0907 227.168 73.7542 227.39 72.3598 227.611C72.2859 229.297 71.1744 230.282 69.9613 231.299ZM89.5671 286.319C89.1759 286.22 88.9247 286.078 88.701 286.113C87.8897 286.239 87.0551 286.336 86.3862 286.892C85.4489 287.672 84.4911 288.431 83.5913 289.253C83.0811 289.719 82.6689 290.292 82.1897 290.844C83.5074 291.979 83.9619 293.397 84.2005 294.971C86.6254 294.846 88.6649 294.068 90.1777 292.182C91.2541 290.84 91.69 289.365 90.9586 287.701C90.4866 287.541 90.0396 287.409 89.6092 287.237C89.1374 287.048 89.1624 286.744 89.5671 286.319ZM80.9184 299.166C82.4498 300.314 83.6501 301.633 85.3784 302.161C86.0141 302.355 86.7118 302.515 87.3618 302.46C88.9021 302.33 90.2544 301.706 91.3356 300.557C92.6793 299.129 92.2422 297.042 90.4048 296.404C89.7104 296.162 88.941 296.038 88.2058 296.038C87.2093 296.039 86.2099 296.187 85.2177 296.318C84.3324 296.435 83.5112 296.615 83.05 297.59C82.8448 298.025 82.2575 298.285 81.8302 298.605C81.607 298.773 81.3539 298.901 80.9184 299.166ZM77.42 290.054C78.4358 290.003 79.3594 289.858 80.2611 289.943C80.9338 290.007 81.3483 289.797 81.7419 289.334C82.1367 288.871 82.5032 288.367 82.9673 287.984C83.9496 287.173 84.36 286.086 84.5607 284.904C84.732 283.893 84.5968 282.914 83.7573 282.199C83.3296 281.834 82.8239 281.563 82.3696 281.227C81.695 280.728 81.1773 280.796 80.6066 281.396C80.2712 281.748 79.8882 282.097 79.4581 282.307C78.8811 282.588 78.5623 282.988 78.4623 283.6C78.1803 285.329 77.8937 287.057 77.6118 288.785C77.5396 289.23 77.4768 289.676 77.42 290.054ZM81.914 268.388C82.942 267.539 83.8317 266.836 84.6819 266.089C85.2187 265.617 85.7321 265.096 85.516 264.258C85.4937 264.171 85.5334 264.06 85.5661 263.968C85.9392 262.912 85.7129 262.116 84.7938 261.516C84.43 261.278 84.0886 260.92 83.5269 261.189C82.8778 261.499 82.2953 261.33 82.0042 260.615C81.568 260.748 81.2281 260.858 80.8845 260.954C79.8978 261.233 79.3022 261.912 78.9916 262.85C78.699 263.733 78.4218 264.622 78.195 265.523C77.982 266.37 77.8435 267.234 77.6368 268.267C79.2398 267.887 80.6793 267.308 81.914 268.388ZM83.9313 272.972C84.9228 273.078 85.8572 273.339 86.7522 273.241C88.5835 273.038 90.3617 271.551 90.8234 269.698C91.1205 268.506 90.7452 267.539 90.0025 266.721C89.2887 265.935 88.284 266.046 87.3719 266.314C85.8822 266.753 84.7332 267.729 83.7049 268.859C83.3832 269.213 83.2218 269.647 83.4624 270.044C83.991 270.919 84.092 271.851 83.9313 272.972ZM74.7141 297.749C74.1204 297.181 73.5283 297.419 72.9788 297.416C71.7662 297.409 70.5532 297.4 69.3416 297.435C68.4141 297.462 67.4725 297.47 66.5666 297.641C65.3091 297.878 64.6278 298.751 64.5599 299.965C64.4752 301.476 64.9987 302.46 66.1957 302.938C67.0596 303.284 67.9765 303.348 68.8096 302.924C69.6327 302.504 70.4695 302.034 71.1424 301.414C72.3742 300.28 73.4896 299.02 74.7141 297.749ZM80.9247 276.815C81.0815 277.241 81.3313 277.693 81.4068 278.173C81.5603 279.145 82.1707 279.548 83.0397 279.783C83.5459 279.919 84.143 280.071 84.4748 280.426C85.0719 281.064 85.6955 280.951 86.3432 280.736C87.2608 280.432 87.9888 279.807 88.4303 278.972C89.3205 277.288 88.451 275.386 86.9504 275.042C86.6025 274.962 86.2648 274.837 85.9169 274.757C84.5703 274.446 83.3269 274.414 82.3631 275.701C82.0162 276.163 81.4222 276.441 80.9247 276.815ZM80.1654 296.111C80.0711 295.774 80.0035 295.482 79.9063 295.2C79.8031 294.901 79.7169 294.581 79.5437 294.324C79.2663 293.913 78.3116 293.657 77.8824 293.908C77.4592 294.155 77.0175 294.463 77.3151 295.109C77.3705 295.228 77.2499 295.435 77.197 295.596C76.8879 296.541 77.6472 297.941 78.6232 298.114C80.4036 298.429 82.4173 297.523 82.674 295.976C82.4863 295.775 82.3052 295.582 82.0672 295.328C82.374 295.194 82.5845 295.103 82.7767 295.02C82.7454 293.771 82.7235 293.463 81.9291 292.623C81.3695 292.031 80.6102 291.626 79.9272 291.157C79.8228 291.085 79.6488 291.095 79.5083 291.099C78.2703 291.139 77.2868 291.668 76.5626 292.669C76.5246 292.722 76.5874 292.848 76.635 293.123C77.2817 292.483 77.9344 292.248 78.7433 292.486C79.5355 292.719 80.2051 293.067 80.6266 293.798C81.1056 294.631 80.9653 295.531 80.1654 296.111ZM52.8994 245.631C51.2188 242.962 49.6317 240.441 48.0178 237.878C47.8458 238.23 47.5167 238.585 47.5379 238.916C47.6315 240.379 47.0952 241.742 46.9633 243.165C46.8815 244.047 46.7064 244.92 46.5524 245.934C48.6922 245.832 50.7545 245.734 52.8994 245.631ZM67.8817 229.485C67.3762 229.267 67.3955 228.968 67.522 228.572C67.6832 228.069 67.8435 227.543 67.862 227.022C67.8836 226.415 67.5196 226.214 66.9381 226.407C66.3968 226.587 65.9209 226.882 65.9065 227.508C65.8884 228.284 65.7607 229.154 66.5508 229.667C67.3856 230.207 68.2979 230.31 69.203 229.802C70.3893 229.136 71.069 227.659 70.8289 226.318C70.493 224.444 68.9372 223.127 66.8041 222.936C66.5794 223.26 66.9239 223.954 66.1189 223.98C65.9645 223.763 65.7859 223.512 65.5992 223.249C64.2563 223.727 64.0042 224.959 63.8199 226.022C63.6303 227.114 63.5297 228.351 64.4322 229.312C64.4966 229.02 64.5255 228.717 64.4163 228.476C64.0054 227.573 64.3203 226.776 64.781 226.038C65.3089 225.193 66.1283 224.732 67.1342 224.792C68.0263 224.845 68.6574 225.34 69.018 226.185C69.5011 227.317 69.1202 228.492 67.8817 229.485ZM94.3122 284.486C93.3864 285.01 93.052 284.858 91.2853 283.178C90.6432 283.614 89.9879 284.06 89.2473 284.564C89.9532 285.057 90.577 285.408 91.0914 285.878C91.4865 286.24 91.8454 286.314 92.3473 286.233C94.1192 285.947 95.6647 285.142 97.1564 284.206C97.3828 284.064 97.5599 283.843 97.7247 283.691C96.6196 283.071 95.5813 282.474 94.5251 281.91C94.3617 281.824 94.0947 281.829 93.9147 281.896C93.561 282.029 93.2351 282.235 92.7852 282.47C93.3303 283.19 93.7949 283.803 94.3122 284.486ZM45.9346 236.717C44.6304 239.899 43.452 243.033 41.4156 245.839C42.8219 245.839 44.0498 245.839 45.386 245.839C45.5304 244.264 45.7029 242.777 45.7929 241.286C45.8824 239.804 45.8886 238.318 45.9346 236.717ZM43.1108 189.791C42.8741 190.377 42.66 190.815 42.5238 191.277C42.4372 191.57 42.4095 191.906 42.454 192.208C42.5825 193.081 43.1134 193.775 43.635 194.438C43.8039 194.652 44.2964 194.79 44.5664 194.71C45.1373 194.542 45.694 194.259 46.1901 193.924C46.6703 193.601 46.9912 191.902 46.6039 191.541C45.605 190.612 44.6794 189.441 43.1108 189.791ZM60.7721 301.219C59.4927 302.138 57.7212 304.451 57.0894 306.002C57.3928 306.697 57.6882 307.375 58.0489 308.202C58.608 307.885 59.1366 307.586 59.6587 307.29C59.5453 307.048 59.4826 306.956 59.4583 306.855C59.2429 305.959 59.0035 305.065 58.839 304.159C58.7718 303.79 58.9788 303.378 59.3813 303.362C59.6142 303.353 59.9938 303.633 60.0715 303.862C60.2269 304.321 60.2296 304.834 60.277 305.327C60.3123 305.696 60.3191 306.068 60.3453 306.562C61.3206 305.911 61.6026 305.005 61.9758 304.323C61.56 303.251 61.1787 302.267 60.7721 301.219ZM79.4056 277.215C78.0367 277.16 77.5423 276.023 76.8573 275.086C76.6713 276.651 76.5874 278.152 76.4647 279.65C76.3578 280.955 76.5854 281.256 77.8531 281.426C78.3759 280.975 78.8749 280.576 79.3315 280.134C79.4937 279.977 79.6515 279.709 79.6411 279.5C79.6046 278.759 79.4949 278.021 79.4056 277.215ZM67.1284 233.129C69.2278 235.402 79.7441 240.309 82.3198 240.243C81.0298 239.522 79.7922 238.817 78.5395 238.139C78.0364 237.867 77.5088 237.635 76.9776 237.421C73.6524 236.088 70.309 234.797 67.1284 233.129ZM89.2476 258.28C88.8727 259.175 88.533 259.986 88.1558 260.887C88.4098 260.887 88.5869 260.92 88.7471 260.882C90.3463 260.499 91.9441 260.109 93.5382 259.705C93.6965 259.665 93.8704 259.551 93.9655 259.42C94.4774 258.711 94.9668 257.987 95.4848 257.238C94.7296 257.012 93.0099 257.055 92.5417 257.338C92.322 257.471 92.1823 257.743 92.0196 257.962C91.467 258.706 90.9329 259.464 90.3591 260.19C90.2657 260.309 89.9662 260.386 89.8329 260.326C89.544 260.195 89.6087 259.951 89.7564 259.699C90.1057 259.1 90.4264 258.484 90.7587 257.875C90.7072 257.822 90.6557 257.769 90.604 257.716C90.1233 257.915 89.6426 258.115 89.2476 258.28ZM77.6979 270.808C78.0506 270.667 78.2619 270.555 78.4868 270.498C79.1381 270.334 79.7739 270.382 80.3056 270.825C81.5184 271.836 81.2776 273.739 79.8565 274.49C79.4227 274.719 78.9877 274.946 78.3629 275.273C78.8121 275.474 79.1061 275.729 79.3604 275.694C79.8774 275.622 80.47 275.517 80.8588 275.208C81.8086 274.454 82.4069 273.477 82.4002 272.173C82.3939 270.94 81.8274 269.919 80.7339 269.404C79.825 268.976 77.9991 269.315 77.6979 270.808ZM43.1327 189.256C44.7747 189.113 45.7835 190 46.7596 190.878C47.0307 191.122 47.1924 191.631 47.1837 192.013C47.1633 192.921 47.1419 193.87 46.1138 194.605C47.6813 194.183 48.2038 193.467 48.2736 191.756C48.3361 190.217 47.5792 189.103 46.2774 188.465C45.1948 187.936 44.0291 188.226 43.1327 189.256ZM52.8431 211.719C53.7176 211.186 54.4408 210.803 55.0995 210.33C56.3489 209.434 56.4083 209.21 55.9363 207.736C55.8232 207.384 55.6125 207.062 55.5037 206.842C54.5775 207.805 53.6892 208.728 52.8007 209.652C52.7059 209.586 52.6107 209.52 52.5156 209.453C52.6121 210.12 52.7083 210.787 52.8431 211.719ZM63.479 201.213C63.3962 201.166 63.3134 201.118 63.2309 201.07C62.6877 201.568 62.1995 202.152 61.5882 202.544C60.666 203.136 60.5159 203.976 60.5553 204.933C60.5741 205.387 60.628 205.84 60.6682 206.322C61.3274 206.249 61.7621 205.838 62.058 205.383C62.422 204.824 62.8445 204.408 63.4792 204.259C63.4789 203.192 63.479 202.203 63.479 201.213ZM62.7986 206.451C62.2671 206.7 61.7219 207.05 61.1262 207.202C60.6992 207.312 60.5409 207.482 60.4586 207.872C60.1851 209.168 59.8814 210.458 59.6038 211.752C59.5352 212.072 59.521 212.403 59.4821 212.729C59.5624 212.751 59.643 212.772 59.7236 212.794C60.9066 210.743 62.569 208.936 62.7986 206.451ZM85.9335 257.811C84.4361 257.694 83.0161 257.583 81.4588 257.461C81.128 257.905 80.7387 258.428 80.3347 258.97C81.4896 259.702 82.6853 259.272 83.7819 259.516C83.9015 259.542 84.0713 259.464 84.1827 259.384C84.8138 258.934 85.5495 258.596 85.9335 257.811ZM86.5438 257.172C86.8191 256.39 87.7451 255.886 87.6517 254.835C86.5915 254.699 85.5661 254.568 84.5275 254.434C83.9847 254.92 83.4398 255.407 82.8434 255.94C84.1235 256.366 85.2694 256.747 86.5438 257.172ZM80.8847 255.889C80.7887 254.638 80.698 253.454 80.5977 252.145C79.5456 252.716 79.139 253.539 78.7993 254.405C78.7551 254.518 78.8258 254.675 78.839 254.812C78.9223 255.659 79.0017 256.508 79.088 257.356C79.1073 257.544 79.1491 257.729 79.2021 258.042C79.6154 257.546 79.9397 257.175 80.2431 256.786C80.4854 256.477 80.7016 256.147 80.8847 255.889ZM53.6909 216.146C54.9715 215.462 56.3029 212.487 56.002 211.041C55.0146 211.813 54.0443 212.571 53.1303 213.285C53.3353 214.33 53.5109 215.226 53.6909 216.146ZM95.5779 290.414C96.0588 290.941 96.4394 291.316 96.7719 291.73C97.5211 292.663 98.5662 292.883 99.7814 292.303C99.4858 291.264 99.0907 290.282 98.3052 289.474C97.5803 290.281 97.5806 290.272 96.45 290.252C96.214 290.248 95.9766 290.337 95.5779 290.414ZM65.8822 306.156C65.9483 307.022 66.0537 307.731 66.9095 308.073C67.0863 308.143 67.1821 308.459 67.2805 308.677C67.6986 309.603 68.4637 310.203 69.2083 310.905C69.7708 308.859 68.6766 307.218 65.8822 306.156ZM59.7751 300.05C58.6595 300.004 57.6897 299.964 56.5334 299.917C56.0381 300.238 55.5059 300.775 55.2549 301.699C56.2156 301.761 57.1036 301.838 57.9928 301.858C58.2089 301.862 58.4904 301.726 58.6357 301.561C59.0096 301.136 59.3242 300.658 59.7751 300.05ZM87.135 264.043C88.6353 264.077 90.0951 264.207 91.8064 263.908C91.0743 263.317 90.5718 262.872 90.0249 262.491C89.8187 262.347 89.4906 262.255 89.2512 262.304C88.5287 262.45 87.8223 262.676 87.1352 262.864C87.135 263.308 87.135 263.622 87.135 264.043ZM89.7369 280.42C89.7369 280.914 89.7441 281.198 89.735 281.481C89.7251 281.778 89.6996 282.074 89.6736 282.485C90.0773 282.237 90.3466 282.073 90.6136 281.906C90.8848 281.736 91.1383 281.529 91.4263 281.397C92.5973 280.862 92.8698 280.334 92.6208 278.784C91.6212 279.351 90.6714 279.89 89.7369 280.42ZM62.4827 197.931C61.7114 198.53 61.095 199.009 60.4218 199.532C60.4685 200.194 60.518 200.893 60.5804 201.773C61.5073 201.117 62.3032 200.554 63.1828 199.931C62.9725 199.331 62.7531 198.704 62.4827 197.931ZM81.92 254.718C82.3985 254.318 82.7596 254.038 83.0921 253.728C83.2432 253.587 83.427 253.394 83.4436 253.21C83.53 252.256 83.5673 251.297 83.627 250.247C83.2716 250.375 82.9757 250.475 82.6839 250.586C82.1712 250.782 81.8834 251.102 81.9094 251.708C81.9496 252.657 81.92 253.61 81.92 254.718ZM94.3918 278.308C94.3362 279.014 94.2912 279.584 94.2436 280.187C94.7231 280.121 95.2502 280.07 95.7689 279.974C96.7936 279.785 97.223 279.128 97.1119 277.901C96.1163 277.848 95.1391 277.881 94.3918 278.308ZM99.6453 258.593C98.5225 257.669 97.9224 257.413 96.6733 257.247C96.3023 257.939 95.9525 258.591 95.5401 259.361C96.7873 259.249 97.8943 259.171 98.994 259.035C99.2158 259.008 99.4097 258.76 99.6453 258.593ZM88.1591 253.65C88.7924 252.593 88.5453 251.437 88.7113 250.323C87.6433 251.138 86.7584 252.072 85.889 253.155C86.7288 253.338 87.4203 253.489 88.1591 253.65ZM54.2837 305.088C56.0828 305.258 56.6191 304.883 57.3286 303.02C56.9737 303.02 56.6193 302.997 56.269 303.024C54.3888 303.172 54.2948 303.416 54.2837 305.088ZM51.3622 211.737C51.4363 211.711 51.5102 211.685 51.5843 211.659C51.4638 210.901 51.3432 210.142 51.2369 209.474C50.5616 209.084 49.9822 208.749 49.355 208.387C49.1236 209.77 49.3658 210.767 50.6744 211.259C50.928 211.355 51.1344 211.575 51.3622 211.737ZM57.3153 201.232C57.3153 201.916 57.3129 202.575 57.3189 203.234C57.3197 203.3 57.3521 203.387 57.4003 203.429C57.9748 203.933 58.5553 204.43 59.1801 204.969C59.3606 203.229 58.6949 201.912 57.3153 201.232ZM65.5788 310.952C65.0731 311.805 64.6133 312.58 64.1105 313.428C64.3268 313.873 64.5426 314.424 65.2268 314.7C65.645 313.473 66.4098 312.364 65.5788 310.952ZM50.0325 212.503C50.4966 214.039 51.131 215.385 52.2173 216.652C52.2392 214.284 51.6979 213.017 50.0325 212.503ZM94.6463 262.872C94.0328 262.279 93.511 261.775 92.9295 261.213C92.4765 261.39 91.9751 261.587 91.3407 261.835C91.9667 262.376 92.4236 262.823 92.9379 263.19C93.129 263.326 93.4684 263.342 93.7148 263.29C94.0189 263.226 94.2963 263.036 94.6463 262.872ZM98.4233 294.052C98.6743 295.387 99.3987 296.196 100.544 296.956C100.432 295.956 100.342 295.152 100.245 294.274C99.6311 294.199 99.0813 294.132 98.4233 294.052ZM99.0806 277.913C98.7563 278.557 98.5097 279.046 98.2508 279.561C100.483 279.809 100.733 279.743 101.091 278.731C100.448 278.469 99.7988 278.205 99.0806 277.913ZM87.4309 249.232C87.3849 249.167 87.3387 249.101 87.2928 249.036C86.7159 249.192 86.1295 249.321 85.5678 249.519C85.3688 249.589 85.1258 249.804 85.0823 249.994C84.9449 250.595 84.8922 251.216 84.8068 251.829C84.8636 251.863 84.9206 251.897 84.9771 251.932C85.7949 251.031 86.6129 250.132 87.4309 249.232ZM78.8951 272.094C78.9841 272.605 78.749 272.956 78.221 272.876C77.8252 272.815 77.4537 272.597 77.0507 272.44C76.5936 273.413 77.7287 273.552 77.7701 274.256C78.6215 273.972 79.3777 273.755 79.6972 272.911C79.9378 272.275 79.8307 272.153 78.8951 272.094ZM58.8053 200.749C59.1796 199.731 59.3755 199.605 57.7922 197.636C57.1197 199.027 57.1544 199.202 58.2187 200.119C58.4307 200.301 58.6032 200.53 58.8053 200.749ZM58.2515 195.672C58.488 195.989 58.7026 196.277 58.9398 196.596C59.4854 195.55 60.0944 193.354 59.988 192.792C59.0471 193.519 58.6354 194.525 58.2515 195.672ZM95.0914 291.994C95.0197 292.016 94.9476 292.039 94.8759 292.062C94.8145 292.717 94.7529 293.371 94.6832 294.112C95.1133 294.437 95.5779 294.787 96.0735 295.16C96.1587 294.525 96.2239 294.039 96.297 293.492C95.9234 293.028 95.5074 292.511 95.0914 291.994ZM77.2783 282.906C77.0223 282.81 76.7413 282.702 76.3848 282.567C76.2772 284.421 76.1757 286.171 76.074 287.921C76.1454 287.93 76.2166 287.94 76.2881 287.948C76.6076 286.322 76.9268 284.696 77.2783 282.906ZM53.7226 203.722C53.4606 203.163 52.9795 202.717 52.3551 202.33C52.1391 203.345 52.0376 204.273 52.2281 205.433C52.7952 204.784 53.2304 204.286 53.7226 203.722ZM98.4909 282.865C98.8468 282.208 99.1095 281.722 99.4278 281.135C98.3471 281.111 97.3987 280.891 96.336 281.542C97.0934 282.007 97.7148 282.389 98.4909 282.865ZM52.3729 207.853C53.3733 207.069 54.2553 206.379 55.183 205.652C54.9535 205.359 54.786 205.145 54.6037 204.912C53.796 205.593 53.3334 206.629 52.1733 206.774C52.1733 207.007 52.154 207.184 52.1793 207.355C52.1988 207.486 52.2745 207.608 52.3729 207.853ZM60.4937 197.947C60.8103 197.694 61.024 197.516 61.2448 197.348C62.0631 196.724 62.0915 196.454 61.4342 195.658C61.2564 195.442 61.1032 195.207 60.8096 194.803C60.5678 195.979 60.109 196.821 60.4937 197.947ZM96.0478 262.175C96.6759 261.648 97.1995 261.209 97.9 260.622C96.6021 260.455 95.6469 260.729 94.4748 261.04C95.0739 261.473 95.5187 261.794 96.0478 262.175ZM85.8461 283.591C86.4767 284.112 86.7779 284.112 87.6036 283.596C88.1724 283.24 88.3398 282.727 88.1418 281.818C87.3835 282.404 86.6495 282.971 85.8461 283.591ZM67.1316 310.834C67.2875 311.942 67.6863 312.733 68.3477 313.421C68.8619 313.035 69.1826 312.607 69.1202 312.008C68.4851 311.633 67.8844 311.278 67.1316 310.834ZM50.9633 204.661C51.0143 203.974 51.0937 203.404 51.088 202.835C51.0829 202.296 51.508 201.774 51.15 201.117C50.4822 201.993 50.2339 202.941 49.9274 203.888C50.1607 204.111 50.3602 204.313 50.5743 204.498C50.645 204.56 50.754 204.576 50.9633 204.661ZM49.7284 205.289C49.2658 205.981 49.1775 206.482 49.5581 206.815C49.9493 207.157 50.4025 207.428 50.9335 207.805C50.9335 207.212 50.9335 206.762 50.9335 206.359C50.511 205.984 50.1177 205.634 49.7284 205.289ZM96.656 288.72C95.6777 288.152 94.6447 287.942 93.5074 288.178C94.1045 289.132 94.273 289.285 94.809 289.181C95.4311 289.061 96.0408 288.876 96.656 288.72ZM63.848 310.95C63.9262 310.977 64.0044 311.005 64.0826 311.032C64.2861 310.559 64.405 310.02 64.7112 309.627C65.3288 308.834 64.9704 308.193 64.5488 307.509C64.398 308.677 63.7426 309.748 63.848 310.95ZM58.679 209.45C58.8387 208.659 58.9869 208.038 59.0788 207.409C59.1125 207.179 59.0767 206.89 58.9598 206.697C58.6939 206.256 58.3583 205.858 58.0508 205.443C57.9806 205.476 57.9105 205.509 57.8403 205.543C58.1059 206.78 58.3715 208.017 58.679 209.45ZM77.765 257.425C77.1667 258.449 77.49 259.393 77.3878 260.309C77.4585 260.335 77.5293 260.361 77.6 260.386C77.9784 259.906 78.3571 259.426 78.725 258.959C78.4733 258.696 78.2729 258.543 78.1502 258.343C78.0068 258.109 77.9313 257.833 77.765 257.425ZM62.763 228.387C62.8445 228.282 62.9263 228.179 63.0079 228.075C61.6553 227.041 60.3696 225.92 58.7259 225.267C60.0715 226.307 61.4174 227.347 62.763 228.387ZM62.0884 299.769C62.1415 300.266 62.1824 300.656 62.2248 301.045C62.2669 301.43 62.3104 301.814 62.3535 302.199C62.416 302.202 62.4788 302.206 62.5414 302.209C62.7062 301.352 62.8708 300.494 63.0577 299.521C62.6641 299.621 62.4011 299.688 62.0884 299.769ZM56.7081 308.526C56.5021 308.095 56.3571 307.791 56.1307 307.317C55.6678 307.98 55.3187 308.48 54.9699 308.981C55.0271 309.047 55.0844 309.113 55.1414 309.18C55.6199 308.98 56.0982 308.78 56.7081 308.526ZM53.5997 308.628C54.1574 307.917 54.7204 307.439 54.9934 306.655C53.733 306.883 53.6671 306.971 53.5997 308.628ZM61.3004 213.32C60.9497 213.812 60.7064 214.153 60.4064 214.574C60.8551 214.775 61.1573 214.91 61.6332 215.124C61.5126 214.47 61.4265 214.004 61.3004 213.32ZM87.3416 259.684C87.2206 259.574 87.0996 259.464 86.9786 259.353C86.7111 259.725 86.4344 260.09 86.1781 260.469C85.9222 260.849 86.1139 261.023 86.5393 261.153C86.8176 260.643 87.0796 260.163 87.3416 259.684ZM93.2856 292.039C93.5764 290.603 93.5765 290.603 92.9146 290.543C93.044 291.065 93.1646 291.552 93.2856 292.039ZM78.1979 261.353C77.8266 261.353 77.6339 261.353 77.3729 261.353C77.4034 261.834 77.4304 262.258 77.4573 262.682C77.516 262.689 77.5745 262.696 77.633 262.702C77.8047 262.293 77.9763 261.882 78.1979 261.353ZM61.3132 298.388C60.8308 298.423 60.4728 298.449 60.1151 298.475C60.5041 298.853 60.8823 299.092 61.3132 298.388ZM68.2613 315.18C68.1923 315.159 68.1235 315.139 68.0544 315.118C67.8102 315.584 67.8011 315.863 68.1168 315.857C68.1622 315.644 68.2118 315.412 68.2613 315.18ZM66.3393 315.228C65.7337 315.882 66.3042 316.081 66.5683 316.373C66.5002 316.032 66.4322 315.692 66.3393 315.228ZM46.064 211.294C46.1379 211.25 46.2117 211.207 46.2856 211.163C46.1836 210.876 46.0818 210.589 45.9801 210.302C45.9226 210.32 45.865 210.339 45.8073 210.358C45.893 210.67 45.9784 210.982 46.064 211.294ZM69.036 232.327C68.795 232.06 68.7211 231.915 68.6076 231.869C68.4914 231.823 68.3362 231.874 68.1981 231.883C68.1942 231.939 68.1901 231.994 68.1863 232.049C68.4011 232.119 68.6162 232.19 69.036 232.327Z" fill="#9E4141"/>
<path d="M44.9727 187.383V0" stroke="#9E4141" stroke-width="8" stroke-miterlimit="10"/>
</svg>
