<svg width="1200" height="120" viewBox="0 0 1200 120" fill="none" xmlns="http://www.w3.org/2000/svg">
<g clip-path="url(#clip0_274_207)">
<path opacity="0.5" d="M0 1.2002V120C161.16 120 184.44 1.2002 355.2 1.2002H0Z" fill="#9E4141"/>
<path opacity="0.5" d="M1200 4.80031V108C999.96 108 999.96 4.32031 800.04 4.32031C600.12 4.32031 600 108 399.96 108C199.92 108 200.04 4.80031 0 4.80031H1200Z" fill="#9E4141"/>
<path opacity="0.5" d="M740.399 1.2002V104.4C446.399 142.8 460.799 1.2002 235.199 1.2002H740.399Z" fill="#9E4141"/>
<path d="M1200 0H0V62.4C75 33.6 150 4.8 300 4.8C600 4.8 600 120 900 120C1050 120 1125 91.2 1200 62.4V0Z" fill="#9E4141"/>
</g>
<defs>
<clipPath id="clip0_274_207">
<rect width="1200" height="120" fill="white"/>
</clipPath>
</defs>
</svg>
