<svg width="40" height="393" viewBox="0 0 40 393" fill="none" xmlns="http://www.w3.org/2000/svg">
<path d="M18.5291 199.616C18.9801 199.997 19.4411 200.364 19.9101 200.722C20.0641 200.844 20.2201 200.962 20.3751 201.081C20.6171 201.265 20.8951 201.428 21.1821 201.519C21.2721 201.55 21.3601 201.569 21.4521 201.583C21.6431 201.614 21.8371 201.605 22.0241 201.548C22.2861 201.471 22.5061 201.302 22.6941 201.101C22.7861 201.005 22.8701 200.901 22.9461 200.795C23.0651 200.63 23.1671 200.459 23.2601 200.279C23.4101 199.995 23.5301 199.695 23.6171 199.386C23.6501 199.27 23.6801 199.155 23.7031 199.035C23.7931 198.585 23.9701 197.599 23.6541 197.202C23.6091 197.143 23.5681 197.118 23.5291 197.113C23.4471 197.099 23.3611 197.174 23.2191 197.238C22.4321 197.574 21.5741 197.676 20.7421 197.846C20.5291 197.891 19.4001 198.248 18.7011 198.645C18.2621 198.894 17.9901 199.159 18.2301 199.366C18.3281 199.451 18.4301 199.534 18.5291 199.616Z" fill="#9E4141"/>
<path d="M28.9796 202.25C28.8916 201.98 28.7686 201.725 28.6666 201.462C28.6606 201.454 28.6586 201.446 28.6546 201.438C28.4276 200.878 28.0566 200.421 27.6896 199.955C27.3946 199.58 26.7946 198.878 26.2306 198.792C26.1236 198.775 26.0156 198.781 25.9146 198.817C25.6036 198.921 25.3696 199.173 25.1506 199.416C25.0376 199.538 24.5546 200.095 23.9786 200.745C23.7426 201.013 23.4926 201.291 23.2426 201.566C22.9866 201.847 22.7326 202.12 22.5046 202.36C22.0146 202.87 21.6256 203.236 21.5276 203.222C21.5216 203.22 21.5176 203.22 21.5156 203.217C22.1876 203.771 22.0876 204.438 21.6756 205.133C21.7356 205.141 21.7576 205.147 21.7786 205.144C22.7236 205.001 23.5246 204.499 24.3566 204.078C24.7996 203.854 25.2476 203.634 25.7046 203.44C26.1986 203.236 26.7046 203.088 27.2206 202.983C27.6756 202.889 28.1426 202.829 28.6116 202.795C28.9476 202.773 29.0746 202.615 28.9966 202.313C28.9916 202.289 28.9876 202.274 28.9796 202.25Z" fill="#9E4141"/>
<path d="M16.1864 196.346C16.1004 196.534 16.0344 196.705 16.2254 196.906C16.5344 197.243 16.8074 197.615 17.0774 197.984C17.1694 198.108 17.2254 198.17 17.2924 198.18C17.3604 198.191 17.4374 198.145 17.5674 198.057C17.9734 197.782 18.3954 197.527 18.8274 197.292C19.3484 197.013 19.9014 196.79 20.4174 196.503C20.7944 196.293 21.1474 196.043 21.5034 195.797C21.5404 195.774 21.5754 195.748 21.6144 195.724C21.9384 195.5 22.2474 195.257 22.5304 194.99C22.7864 194.748 23.0264 194.49 23.2454 194.206C23.2574 194.189 23.2704 194.173 23.2824 194.156C23.3874 194.018 23.4254 193.843 23.4794 193.68C23.4344 193.813 22.6514 193.944 22.5144 193.974C22.4104 193.995 22.3074 194.011 22.2034 194.031C21.9574 194.073 21.7074 194.108 21.4574 194.128C20.9144 194.163 20.3654 194.143 19.8264 194.06C19.6604 194.036 19.4964 194.004 19.3324 193.966C18.6974 193.827 18.1414 193.61 17.6214 193.328C16.9534 192.967 16.3514 192.501 15.7384 191.961C15.6584 191.89 15.5504 191.846 15.4414 191.828C15.2324 191.796 15.0034 191.858 14.8984 192.013C14.7324 192.249 14.6364 192.521 14.6624 192.817C14.6644 192.854 14.6704 192.89 14.6744 192.929C14.7014 193.232 14.7334 193.536 14.7664 193.838C14.7704 193.888 14.7764 193.94 14.7824 193.989C14.8094 194.258 14.8354 194.526 14.8604 194.794C14.8854 195.036 14.9074 195.279 14.9324 195.519C14.9384 195.567 14.9504 195.621 14.9814 195.649C15.2354 195.895 15.4974 196.134 15.7804 196.399C16.0224 195.911 16.0834 195.437 16.0444 194.971C16.0174 194.64 15.9364 194.312 15.8334 193.987C15.7824 193.822 15.7264 193.657 15.6654 193.492C15.8394 193.668 15.9974 193.848 16.1474 194.029C16.2214 194.12 16.2994 194.211 16.3684 194.305C16.5444 194.541 16.6404 194.797 16.6474 195.062C16.6514 195.236 16.6224 195.409 16.5554 195.588C16.4584 195.849 16.3044 196.093 16.1864 196.346Z" fill="#9E4141"/>
<path d="M17.1932 191.894C17.0802 191.976 16.9453 192.081 16.7812 192.208C17.4862 192.577 18.0862 193.032 18.8552 193.338C18.8182 193.109 18.8002 192.955 18.7672 192.806C18.6692 192.357 18.7012 191.941 19.0992 191.646C19.2772 191.514 19.4823 191.395 19.6953 191.334C20.1273 191.207 20.5742 191.125 21.0452 191.021C20.9772 190.959 20.9163 190.905 20.8503 190.855C20.4613 190.576 19.9962 190.524 19.5492 190.422C19.4922 190.41 19.4382 190.4 19.3812 190.392C18.9022 190.318 18.4322 190.405 18.0652 190.728C17.5982 191.136 17.4382 191.244 17.8292 191.811C17.9662 192.01 18.1382 192.189 18.2922 192.376C18.2842 192.388 18.2762 192.401 18.2672 192.412C17.9142 192.241 17.5622 192.07 17.1932 191.894Z" fill="#9E4141"/>
<path d="M18.002 198.704C18.07 198.671 18.133 198.622 18.195 198.569C18.244 198.524 18.293 198.48 18.343 198.442C18.759 198.128 19.2159 197.824 19.7039 197.628C20.1319 197.455 20.628 197.416 21.081 197.306C21.995 197.082 22.909 196.749 23.626 196.125C23.677 196.081 23.728 196.04 23.774 195.996C23.995 195.784 24.184 195.547 24.356 195.293C24.532 195.031 24.686 194.755 24.823 194.469C24.874 194.367 24.923 194.265 24.969 194.16C25.123 193.812 25.264 193.443 25.233 193.065C25.21 192.779 24.819 192.161 24.44 192.102C24.346 192.088 24.252 192.109 24.165 192.177C23.888 192.398 24.12 193.029 24.073 193.327C24.02 193.664 23.907 193.986 23.749 194.29C23.63 194.516 23.487 194.73 23.323 194.926C23.274 194.985 23.221 195.039 23.169 195.097C22.882 195.404 22.552 195.671 22.202 195.906C21.837 196.151 21.45 196.364 21.059 196.561C20.43 196.881 19.784 197.17 19.174 197.53C18.727 197.795 18.1779 198.07 17.8849 198.519C17.8319 198.602 17.785 198.687 17.752 198.778C17.764 198.748 17.947 198.729 17.984 198.713C17.99 198.71 17.996 198.706 18.002 198.704Z" fill="#9E4141"/>
<path d="M19.6841 191.87C19.4961 191.964 19.3291 192.107 19.2411 192.295C19.1261 192.543 19.1711 192.843 19.3131 193.074C19.5671 193.48 20.055 193.656 20.518 193.727C20.612 193.741 20.704 193.749 20.795 193.758C20.955 193.769 21.1331 193.761 21.2581 193.661C21.4051 193.551 21.449 193.333 21.377 193.165C21.309 193.002 21.147 192.892 20.971 192.863C20.963 192.863 20.957 192.861 20.949 192.861C20.65 192.828 20.4571 193.012 20.2541 193.198C20.2381 193.091 20.2771 192.98 20.3441 192.894C20.4121 192.808 20.504 192.748 20.6 192.695C20.85 192.56 21.1351 192.486 21.4221 192.48C21.4861 192.48 21.5531 192.483 21.6191 192.495C21.7501 192.514 21.875 192.56 21.971 192.652C22.078 192.754 22.1351 192.905 22.1191 193.054C22.0991 193.236 21.9411 193.398 21.8301 193.533C21.8281 193.536 21.828 193.536 21.828 193.536C21.81 193.61 21.853 193.64 21.92 193.651C21.928 193.651 21.94 193.654 21.949 193.654C21.951 193.654 21.951 193.654 21.953 193.654C22.305 193.607 22.648 193.522 22.996 193.456C23.224 193.409 23.7671 193.421 23.6331 193.031C23.6081 192.96 23.5611 192.893 23.5281 192.825C23.4561 192.68 23.4281 192.518 23.4421 192.358C23.4481 192.305 23.4871 192.218 23.5161 192.132C23.5491 192.038 23.5731 191.944 23.5301 191.9H23.5281C23.4561 191.883 23.3821 191.869 23.3091 191.858C23.2251 191.844 23.1371 191.833 23.0511 191.822C22.9871 191.811 22.9201 191.8 22.8561 191.787C22.5901 191.726 22.3311 191.646 22.0631 191.596C22.0261 191.588 21.9851 191.582 21.9461 191.578C21.2221 191.47 20.3371 191.544 19.6841 191.87Z" fill="#9E4141"/>
<path d="M18.209 187.974C17.123 188.074 16.107 188.57 15.201 189.176C14.293 189.78 13.4691 190.499 12.5741 191.121C12.2361 191.353 11.886 191.577 11.623 191.889C11.473 192.063 11.3731 192.263 11.3201 192.476C11.2421 192.768 11.252 193.08 11.343 193.367C11.431 193.651 11.5971 193.91 11.8331 194.108C11.8641 194.13 11.8991 194.155 11.9361 194.169C12.2521 194.276 12.5791 194.373 12.8931 194.494C12.8991 194.497 12.909 194.502 12.916 194.506C13.191 194.612 13.4631 194.737 13.7321 194.862C13.9251 194.953 14.109 195.063 14.322 195.176C14.334 195.093 14.343 195.055 14.342 195.019C14.33 194.916 14.3201 194.815 14.3071 194.712C14.2701 194.395 14.231 194.078 14.196 193.762C14.161 193.458 14.1301 193.156 14.1121 192.854C14.0981 192.626 14.0901 192.397 14.0941 192.169C14.0961 191.915 14.1191 191.645 14.2761 191.443C14.4561 191.212 14.778 191.137 15.071 191.181C15.1 191.184 15.1281 191.19 15.1551 191.198C15.4601 191.269 15.6731 191.54 15.9691 191.6C15.9791 191.603 15.9911 191.605 16.0001 191.605C16.2911 191.65 16.605 191.482 16.803 191.28C17.076 191 17.2391 190.63 17.4831 190.324C17.7991 189.93 18.2621 189.666 18.7551 189.563C18.9911 189.513 19.187 189.513 19.368 189.541C19.663 189.584 19.9251 189.705 20.2761 189.819C20.3391 189.84 20.4071 189.854 20.4731 189.865C20.6371 189.89 20.8051 189.882 20.9571 189.819C21.8731 189.444 20.9611 188.801 20.5551 188.528C20.1391 188.25 19.659 188.077 19.162 188.002C18.848 187.955 18.523 187.944 18.209 187.974Z" fill="#9E4141"/>
<path d="M7.32579 198.993H7.32781C7.36281 199.034 7.4018 199.072 7.4428 199.105C7.6768 199.303 7.9118 199.5 8.1498 199.693C8.1498 199.696 8.1498 199.696 8.1498 199.696C8.1698 199.707 8.18881 199.72 8.20681 199.734C8.63881 200.032 9.0678 200.338 9.4728 200.668C9.4788 200.675 9.48279 200.678 9.48879 200.681C9.94379 201.035 10.4108 201.381 10.7038 201.899C10.7328 201.952 10.7628 202.002 10.7918 202.053C10.7938 202.053 10.7938 202.056 10.7938 202.056C11.2778 202.748 11.6378 203.515 12.0638 204.25C12.4288 204.876 12.9698 205.213 13.6188 205.312C13.7498 205.332 13.8888 205.342 14.0268 205.342C14.7298 205.347 15.4328 205.24 16.1378 205.182C16.1418 205.161 16.1458 205.141 16.1478 205.119C15.7118 204.807 15.2568 204.521 14.8448 204.179C13.7818 203.302 12.8468 202.29 12.0988 201.129C11.7608 200.608 11.4638 200.063 11.2058 199.497C11.1768 199.426 11.1448 199.351 11.1158 199.279C10.9848 198.964 10.8698 198.644 10.7548 198.322C10.6868 198.13 10.6178 197.936 10.5458 197.744C10.4908 197.605 10.4408 197.443 10.2758 197.416C10.2508 197.413 10.2228 197.413 10.1938 197.416C9.52181 197.474 8.85181 197.545 8.22081 197.799C8.17781 197.816 8.1348 197.832 8.0938 197.849C7.7868 197.973 7.49181 198.108 7.27181 198.375C7.26981 198.375 7.26979 198.375 7.26979 198.379C7.23479 198.44 7.2108 198.505 7.2018 198.573C7.1958 198.621 7.19179 198.668 7.19979 198.717C7.21479 198.815 7.26579 198.91 7.32579 198.993Z" fill="#9E4141"/>
<path d="M28.4403 194.963C28.3933 195.277 28.2213 195.533 28.0043 195.757C28.0003 195.757 27.9943 195.757 27.9923 195.757C27.7173 196.044 27.3653 196.281 27.0943 196.526C27.0923 196.529 27.0903 196.532 27.0883 196.535C26.5413 197.036 26.0453 197.593 25.6413 198.213C25.5843 198.299 25.5303 198.388 25.4773 198.478C25.2893 198.792 25.1273 199.123 24.9793 199.459C24.9563 199.518 24.9283 199.575 24.9053 199.63C24.8193 199.834 24.7373 200.039 24.6593 200.243C24.6453 200.275 24.6303 200.311 24.6143 200.347C24.5423 200.506 24.4443 200.697 24.4423 200.843C24.5023 200.846 24.5753 200.743 24.6143 200.694C24.6903 200.589 24.7663 200.485 24.8413 200.378C24.9973 200.162 25.1523 199.947 25.3253 199.747C25.3853 199.677 25.4463 199.608 25.5073 199.54C26.0323 198.936 26.5603 198.335 27.0893 197.734C27.4193 197.359 27.7843 197.022 28.1533 196.692C28.4303 196.44 28.7123 196.192 28.9873 195.936C28.9913 195.933 28.9933 195.928 28.9973 195.924C29.1693 195.765 29.3353 195.593 29.4893 195.417C29.5323 195.37 29.5733 195.324 29.6143 195.276C29.6473 195.235 29.6803 195.196 29.7143 195.154C30.0563 194.725 30.3313 194.251 30.4643 193.724C30.6833 192.85 30.4173 191.808 29.6503 191.339C28.5993 190.696 27.4103 190.139 26.2343 189.776C25.8613 189.661 25.4333 189.543 24.9963 189.475C24.0103 189.327 22.9883 189.44 22.5193 190.443C22.4863 190.512 22.6813 190.589 22.9393 190.658C23.2343 190.738 23.6133 190.81 23.8413 190.843C23.9353 190.861 24.0033 190.868 24.0293 190.868C24.5863 190.863 25.0973 190.658 25.6603 190.7C25.7583 190.706 25.8513 190.717 25.9453 190.73C26.5003 190.816 27.0233 191.031 27.4373 191.43C27.8653 191.841 28.2773 192.265 28.6933 192.687C28.7343 192.729 28.7533 192.789 28.8203 192.902C28.6053 192.808 28.4473 192.765 28.3103 192.677C27.9003 192.415 27.5173 192.101 27.0873 191.871C26.8213 191.731 26.5053 191.717 26.2163 191.653C26.2103 191.805 26.2843 191.882 26.3613 192.015C26.4533 192.166 26.5273 192.327 26.5843 192.492C26.6993 192.826 26.7483 193.183 26.7193 193.537C26.6903 193.906 26.5763 194.267 26.3933 194.59C26.3913 194.593 26.3893 194.598 26.3873 194.601C26.2233 194.891 25.9963 195.131 25.7913 195.39C25.7523 195.44 25.7133 195.487 25.6783 195.538C25.5143 195.767 25.3483 195.996 25.2033 196.235C25.1953 196.249 25.1833 196.266 25.1743 196.282C24.9013 196.742 24.9673 197.239 25.0713 197.733C25.0913 197.823 25.1203 197.909 25.1473 198.006C25.3683 197.658 25.5493 197.319 25.8293 197.01C26.0133 196.807 26.2123 196.611 26.4113 196.421C26.5143 196.324 26.6163 196.228 26.7183 196.131C26.8863 195.971 27.0543 195.803 27.2123 195.624C27.4293 195.375 27.6243 195.111 27.7753 194.821C27.8303 194.711 27.8793 194.6 27.9213 194.485C28.0073 194.234 28.1283 193.939 28.4463 193.986C28.4503 193.986 28.4563 193.989 28.4603 193.989C28.4723 194.355 28.4953 194.609 28.4253 194.907C28.4233 194.912 28.4233 194.924 28.4233 194.931C28.4293 194.931 28.4393 194.934 28.4483 194.934C28.4443 194.947 28.4423 194.955 28.4403 194.963Z" fill="#9E4141"/>
<path d="M15.1582 193.734C15.1562 193.734 15.1542 193.737 15.1522 193.734C15.0972 193.726 14.8612 193.527 14.7542 193.436C14.7312 193.416 14.7112 193.4 14.7012 193.391C14.5412 193.278 14.3772 193.166 14.2112 193.055C13.8832 192.837 13.5452 192.631 13.1972 192.438C12.5332 192.068 11.8392 191.771 11.1342 191.487C11.0072 191.435 10.7302 191.38 10.6402 191.266C10.6402 191.302 10.6362 191.325 10.6382 191.34C10.6382 191.343 10.6382 191.346 10.6402 191.349C10.7652 191.875 10.9722 192.388 11.1972 192.884C11.2872 193.083 11.3792 193.28 11.4702 193.474C11.5332 193.609 11.5972 193.741 11.6632 193.873C11.8292 194.207 12.0032 194.535 12.1862 194.857C12.2912 195.047 12.4032 195.235 12.5142 195.421C12.9072 196.063 13.3322 196.684 13.7952 197.278C14.0272 197.579 14.2682 197.874 14.5182 198.161C14.7562 198.433 15.0122 198.665 15.2662 198.916C15.7952 199.442 16.4072 199.864 17.0632 200.218C17.4582 200.427 17.9301 200.575 18.4261 200.653C19.7401 200.851 21.2502 200.549 22.0782 199.604C22.3322 199.315 22.7382 198.394 22.3982 198.016C22.3572 197.972 22.3042 197.934 22.2402 197.907C21.0742 197.405 20.0492 196.755 19.0992 196.01C18.6502 195.657 18.2182 195.282 17.7982 194.894C17.3902 194.516 16.9932 194.123 16.6012 193.719C16.0802 193.182 15.5642 192.624 15.0442 192.063C14.7802 191.812 14.5072 191.572 14.2202 191.343C13.6152 190.861 12.9472 190.447 12.2222 190.165C11.8292 190.015 11.4272 189.892 11.0152 189.832C10.7032 189.782 10.3862 189.768 10.0662 189.802C9.79616 189.829 9.62116 189.876 9.41016 190.033C9.82416 190.301 10.3362 190.469 10.7852 190.668C11.2582 190.874 11.7302 191.078 12.1952 191.304C12.7632 191.58 13.3182 191.889 13.8342 192.261C14.0922 192.449 14.3402 192.653 14.5682 192.876C14.7592 193.058 14.8942 193.267 15.0412 193.48C15.0662 193.519 15.0942 193.557 15.1212 193.595C15.1582 193.642 15.2362 193.703 15.1582 193.734Z" fill="#9E4141"/>
<path d="M20.5234 183.722C22.1344 181.029 24.3124 178.163 27.5094 177.109C29.3404 178.07 30.5034 179.761 30.5034 179.761C29.8114 178.911 27.7744 177.663 27.2094 177.324C27.1564 177.547 27.1504 177.861 27.1504 177.861C27.1504 177.861 27.0514 178.685 27.9124 179.605C28.8574 180.615 29.9814 180.011 31.5064 181.613C31.9974 178.496 30.3354 176.963 28.8554 176.787C29.1364 176.742 29.4254 176.713 29.7214 176.699C30.3824 176.666 31.2954 176.689 32.0234 176.83C33.6524 177.139 36.1244 178.765 35.6674 180.719C35.5374 181.28 34.8114 181.719 34.1264 181.504C33.4084 181.281 33.1614 179.656 34.3984 180.024C34.3464 179.559 33.9714 179.389 33.6814 179.42C32.7854 179.514 33.0774 180.951 33.4444 181.402C34.6164 182.841 36.2704 181.324 36.2074 180.002C36.0954 177.686 33.6684 175.959 31.1354 175.969C29.4144 175.973 27.9234 176.555 26.6994 177.149C26.2804 177.356 25.7844 177.667 25.4914 177.581C27.8604 176.093 31.7034 174.147 35.5144 174.722C36.2804 174.837 36.8954 175.085 37.4084 175.392C37.9894 175.738 38.3014 175.863 38.7814 176.468C38.3284 174.427 36.0214 173.404 34.5654 173.525C29.0414 173.986 22.9054 177.431 20.5234 183.722Z" fill="#9E4141"/>
<path d="M17.1512 177.187L17.4632 99.1418C17.4632 99.0048 17.3532 98.8958 17.2182 98.8938C17.0822 98.8938 16.9722 99.0028 16.9722 99.1378L16.6631 176.492C15.4891 174.584 13.9122 172.918 12.0152 171.568V171.566C11.5022 171.203 10.9702 170.861 10.4152 170.543C9.11916 169.633 8.00619 168.574 7.51019 167.147C7.11219 165.502 8.15218 163.827 9.58618 163.831C11.6562 163.839 12.3422 166.686 10.2472 166.606C10.1922 167.393 11.3392 167.645 11.9372 167.325C13.5902 166.436 12.6621 163.954 11.0901 163.438C9.33615 162.862 7.13119 164.122 6.97119 166.323C6.87519 167.622 7.47917 168.634 8.34717 169.513C7.78717 169.298 5.62017 168.681 4.20117 171.282C4.87417 170.948 5.98516 170.382 7.91516 170.778C11.7332 171.565 14.0462 173.755 16.4092 177.022C18.3192 179.876 18.9532 184.594 18.9532 184.594C18.9362 181.932 18.2832 179.469 17.1202 177.297C17.1412 177.263 17.1512 177.228 17.1512 177.187Z" fill="#9E4141"/>
<path d="M11.271 177.109C14.471 178.164 16.646 181.029 18.259 183.722C15.874 177.431 9.73999 173.986 4.21899 173.523C2.76199 173.402 0.455 174.425 0 176.466C0.482 175.861 0.792986 175.736 1.37299 175.39C1.88499 175.083 2.50102 174.835 3.27002 174.72C7.08102 174.146 10.923 176.091 13.291 177.579C12.995 177.665 12.502 177.354 12.08 177.147C10.856 176.553 9.36498 175.971 7.64398 175.967C5.11398 175.957 2.68402 177.684 2.57202 180C2.50802 181.322 4.16202 182.84 5.33502 181.4C5.70002 180.949 5.99298 179.511 5.09698 179.418C4.81098 179.387 4.436 179.557 4.383 180.022C5.618 179.655 5.37001 181.28 4.65601 181.502C3.96801 181.717 3.244 181.277 3.112 180.717C2.657 178.764 5.12801 177.137 6.76001 176.828C7.48701 176.687 8.40102 176.664 9.05902 176.697C9.35802 176.711 9.64698 176.74 9.92798 176.785C8.44498 176.961 6.78101 178.494 7.27301 181.611C8.79801 180.009 9.92298 180.613 10.868 179.603C11.728 178.683 11.629 177.859 11.629 177.859C11.629 177.859 11.627 177.545 11.574 177.322C11.007 177.662 8.96898 178.91 8.27698 179.759C8.27698 179.761 9.443 178.07 11.271 177.109Z" fill="#9E4141"/>
<path d="M6.58104 195.335C6.27404 194.921 5.76004 194.243 5.79204 192.897C5.85704 190.235 7.04907 188.415 8.96007 186.428C10.6471 184.799 13.917 183.168 13.917 183.168C10.274 183.848 7.34506 186.826 5.82506 190.045C5.64206 190.434 5.47708 190.834 5.33208 191.244C4.87608 192.226 4.30103 193.103 3.39903 193.609C2.34203 194.076 1.08908 193.582 0.918078 192.617C0.672078 191.226 2.50309 190.416 2.70409 191.834C3.23909 191.777 3.26904 190.975 2.98204 190.611C2.18304 189.607 0.628056 190.533 0.471056 191.652C0.297056 192.9 1.41006 194.23 2.91106 194.072C3.79506 193.978 4.40207 193.451 4.88707 192.758C4.81007 193.164 4.65804 194.697 6.58104 195.335Z" fill="#9E4141"/>
<path d="M5.79296 200.253C5.76096 198.907 6.27496 198.23 6.58196 197.815C4.65896 198.454 4.81097 199.987 4.88897 200.389C4.40497 199.698 3.79695 199.17 2.91295 199.076C1.41195 198.918 0.29901 200.246 0.47301 201.494C0.63001 202.615 2.185 203.539 2.984 202.535C3.271 202.174 3.24098 201.371 2.70598 201.312C2.50498 202.73 0.673971 201.923 0.919971 200.531C1.09097 199.566 2.34499 199.072 3.40099 199.537C4.30199 200.045 4.87797 200.922 5.33397 201.902C5.47997 202.314 5.64495 202.713 5.82695 203.103C7.34695 206.32 10.276 209.298 13.919 209.98C13.919 209.98 10.649 208.347 8.96196 206.718C7.04996 204.736 5.85796 202.914 5.79296 200.253Z" fill="#9E4141"/>
<path d="M34.4366 203.105C34.6226 202.714 34.7876 202.316 34.9326 201.904C35.3856 200.924 35.9636 200.047 36.8636 199.539C37.9196 199.074 39.1736 199.568 39.3446 200.533C39.5936 201.926 37.7596 202.732 37.5616 201.314C37.0246 201.373 36.9936 202.175 37.2836 202.537C38.0806 203.541 39.6386 202.617 39.7926 201.496C39.9696 200.248 38.8526 198.92 37.3556 199.078C36.4696 199.172 35.8636 199.699 35.3746 200.391C35.4526 199.989 35.6046 198.456 33.6826 197.817C33.9886 198.231 34.5066 198.909 34.4716 200.255C34.4056 202.915 33.2136 204.737 31.3066 206.722C29.6186 208.351 26.3496 209.984 26.3496 209.984C29.9876 209.3 32.9186 206.322 34.4366 203.105Z" fill="#9E4141"/>
<path d="M34.4706 192.898C34.5056 194.244 33.9876 194.921 33.6816 195.336C35.6036 194.697 35.4526 193.164 35.3736 192.76C35.8616 193.453 36.4686 193.981 37.3546 194.074C38.8506 194.232 39.9676 192.902 39.7916 191.654C39.6376 190.535 38.0797 189.609 37.2827 190.613C36.9927 190.976 37.0236 191.779 37.5606 191.836C37.7586 190.418 39.5926 191.229 39.3436 192.619C39.1736 193.584 37.9186 194.078 36.8626 193.611C35.9636 193.105 35.3856 192.228 34.9316 191.246C34.7856 190.836 34.6206 190.435 34.4356 190.047C32.9176 186.828 29.9867 183.85 26.3477 183.17C26.3477 183.17 29.6176 184.801 31.3046 186.43C33.2126 188.416 34.4036 190.236 34.4706 192.898Z" fill="#9E4141"/>
<path d="M19.3813 180.939L20.5223 176.73L19.3813 0.623474L18.2363 176.73L19.3813 180.939Z" fill="#9E4141"/>
<path d="M21.3632 215.761L21.2772 294.279C21.2772 294.414 21.3872 294.525 21.5232 294.525C21.6612 294.525 21.7682 294.414 21.7702 294.279L21.8542 216.681C23.0462 218.779 24.7232 220.599 26.7662 222.054V222.056C27.2762 222.419 27.8082 222.761 28.3652 223.077C29.6592 223.985 30.7722 225.048 31.2702 226.475C31.6682 228.118 30.6272 229.793 29.1952 229.79C27.1252 229.784 26.4352 226.936 28.5332 227.017C28.5892 226.23 27.4392 225.978 26.8432 226.298C25.1862 227.185 26.1182 229.669 27.6902 230.185C29.4402 230.759 31.6452 229.5 31.8082 227.3C31.9022 226.001 31.3012 224.991 30.4302 224.11C30.9902 224.325 33.1592 224.942 34.5782 222.34C33.9022 222.674 32.7922 223.242 30.8622 222.844C27.0462 222.057 24.7332 219.867 22.3682 216.6C22.1802 216.321 22.0072 216.022 21.8442 215.711C21.8332 215.662 21.8152 215.619 21.7792 215.584C20.3272 212.75 19.8242 209.025 19.8242 209.025C19.8422 211.459 20.3872 213.718 21.3662 215.748C21.3662 215.755 21.3632 215.757 21.3632 215.761Z" fill="#9E4141"/>
<path d="M34.5635 220.098C36.0195 220.221 38.3265 219.196 38.7795 217.157C38.3005 217.762 37.9875 217.886 37.4065 218.232C36.8935 218.539 36.2785 218.788 35.5125 218.903C31.7025 219.477 27.8595 217.532 25.4895 216.044C25.7825 215.958 26.2785 216.268 26.6975 216.473C27.9225 217.067 29.4135 217.65 31.1335 217.656C33.6665 217.664 36.0935 215.939 36.2055 213.623C36.2695 212.301 34.6145 210.783 33.4425 212.221C33.0765 212.672 32.7845 214.112 33.6795 214.205C33.9695 214.234 34.3445 214.064 34.3965 213.602C33.1595 213.967 33.4065 212.344 34.1245 212.122C34.8095 211.907 35.5355 212.345 35.6655 212.907C36.1225 214.86 33.6495 216.487 32.0215 216.796C31.2935 216.935 30.3805 216.959 29.7195 216.926C29.4235 216.912 29.1345 216.882 28.8535 216.839C30.3345 216.663 31.9965 215.128 31.5045 212.011C29.9805 213.614 28.8565 213.009 27.9105 214.021C27.0505 214.939 27.1485 215.762 27.1485 215.762C27.1485 215.762 27.1545 216.076 27.2075 216.301C27.7715 215.961 29.8095 214.714 30.5015 213.864C30.5015 213.864 29.3385 215.554 27.5075 216.516C24.3105 215.459 22.1325 212.596 20.5215 209.903C22.9055 216.192 29.0415 219.635 34.5635 220.098Z" fill="#9E4141"/>
<path d="M18.259 209.9C16.646 212.593 14.471 215.457 11.271 216.513C9.443 215.55 8.27704 213.861 8.27704 213.861C8.96804 214.711 11.006 215.959 11.574 216.299C11.627 216.074 11.629 215.76 11.629 215.76C11.629 215.76 11.729 214.936 10.868 214.018C9.92304 213.006 8.79801 213.612 7.27301 212.008C6.78201 215.125 8.44504 216.66 9.92804 216.836C9.64704 216.879 9.35802 216.91 9.05902 216.924C8.40102 216.957 7.48801 216.932 6.76001 216.793C5.12801 216.484 2.657 214.857 3.112 212.904C3.244 212.341 3.96801 211.904 4.65601 212.119C5.37001 212.342 5.618 213.965 4.383 213.599C4.436 214.062 4.81105 214.232 5.09705 214.202C5.99305 214.108 5.70002 212.669 5.33502 212.218C4.16202 210.78 2.50902 212.298 2.57202 213.62C2.68402 215.936 5.11404 217.661 7.64404 217.653C9.36504 217.647 10.856 217.065 12.08 216.471C12.502 216.266 12.995 215.955 13.291 216.041C10.923 217.529 7.08002 219.475 3.27002 218.9C2.50202 218.785 1.88499 218.537 1.37299 218.23C0.792986 217.884 0.482 217.759 0 217.154C0.455 219.193 2.76199 220.219 4.21899 220.095C9.73999 219.634 15.874 216.191 18.259 209.9Z" fill="#9E4141"/>
<path d="M19.3813 212.683L18.2363 216.89L19.3813 393L20.5223 216.89L19.3813 212.683Z" fill="#9E4141"/>
<path d="M17.4622 294.279V294.277L17.1502 216.271C18.2942 214.111 18.9362 211.669 18.9532 209.027C18.9532 209.027 18.3962 213.175 16.7532 216.045C16.7092 216.08 16.6792 216.131 16.6682 216.19C16.5832 216.331 16.4972 216.469 16.4092 216.602C14.0462 219.87 11.7332 222.059 7.91522 222.846C5.98522 223.244 4.87417 222.676 4.20117 222.342C5.62117 224.944 7.78823 224.326 8.34723 224.112C7.47923 224.993 6.87519 226.003 6.97119 227.302C7.13119 229.501 9.33621 230.761 11.0902 230.187C12.6612 229.671 13.5902 227.187 11.9372 226.3C11.3382 225.98 10.1922 226.232 10.2472 227.019C12.3422 226.939 11.6562 229.786 9.58618 229.792C8.15118 229.796 7.11219 228.12 7.51019 226.477C8.00619 225.049 9.11922 223.987 10.4152 223.079C10.9702 222.763 11.5022 222.421 12.0152 222.058V222.056C13.9122 220.704 15.4922 219.04 16.6632 217.13L16.9722 294.28C16.9722 294.417 17.0822 294.526 17.2182 294.526C17.3512 294.525 17.4622 294.414 17.4622 294.279Z" fill="#9E4141"/>
<path d="M21.2772 99.1418L21.3632 177.658C21.3632 177.707 21.3812 177.75 21.4062 177.789C20.4002 179.838 19.8422 182.129 19.8242 184.594C19.8242 184.594 20.4612 179.875 22.3692 177.022C24.7342 173.754 27.0482 171.565 30.8632 170.778C32.7932 170.381 33.9032 170.948 34.5792 171.282C33.1602 168.681 30.9902 169.298 30.4312 169.513C31.3022 168.634 31.9032 167.622 31.8092 166.323C31.6462 164.122 29.4412 162.862 27.6912 163.438C26.1202 163.954 25.1872 166.436 26.8442 167.325C27.4402 167.645 28.5892 167.393 28.5342 166.606C26.4362 166.686 27.1262 163.838 29.1962 163.831C30.6292 163.827 31.6692 165.503 31.2712 167.147C30.7732 168.575 29.6602 169.633 28.3662 170.543C27.8092 170.861 27.2772 171.203 26.7672 171.566V171.568C24.7242 173.023 23.0472 174.843 21.8552 176.941L21.7712 99.1398C21.7692 99.0028 21.6622 98.8938 21.5242 98.8938C21.3882 98.8938 21.2772 99.0048 21.2772 99.1418Z" fill="#9E4141"/>
</svg>
