<svg width="165" height="48" viewBox="0 0 165 48" fill="none" xmlns="http://www.w3.org/2000/svg">
<path d="M109.142 33.7029C109.142 33.7029 104.621 29.3339 98.4258 32.8889C100.457 27.6079 96.2408 24.865 93.4998 26.844C96.7998 27.403 96.7998 28.9269 96.7998 28.9269C96.7998 28.9269 95.3278 29.028 95.0738 29.589C97.1058 30.247 96.7998 31.2639 96.7998 31.2639C96.7998 31.2639 95.4818 30.757 94.9728 31.516C95.7348 31.772 96.6488 32.383 96.5468 34.058C96.2938 36.698 91.4698 39.0349 91.4698 39.0349C91.4698 39.0349 93.8038 37.767 93.8558 34.411C93.9068 31.06 89.9458 30.452 89.0828 31.214C92.0278 31.873 91.6728 33.398 91.6728 33.398C91.6728 33.398 90.3018 32.229 89.7938 33.804C89.2858 35.379 91.7738 35.4789 91.4708 37.3059C91.3158 37.9679 91.0638 39.0859 87.5078 40.4059C93.6038 39.5429 95.0748 36.9539 98.5288 34.6169C101.981 32.2789 104.622 34.412 104.622 34.412C104.622 34.412 104.929 33.4979 103.963 33.1419C105.281 32.1789 109.142 33.7029 109.142 33.7029Z" fill="#9E4141"/>
<path d="M60.4096 34.411C60.4096 34.411 63.0506 32.278 66.5026 34.616C69.9556 36.953 71.4286 39.542 77.5236 40.405C73.9696 39.086 73.7166 37.967 73.5636 37.305C73.2596 35.478 75.7476 35.378 75.2386 33.803C74.7306 32.228 73.3596 33.397 73.3596 33.397C73.3596 33.397 73.0046 31.873 75.9496 31.213C75.0866 30.451 71.1256 31.06 71.1776 34.41C71.2286 37.765 73.5646 39.034 73.5646 39.034C73.5646 39.034 68.7406 36.697 68.4856 34.057C68.3836 32.382 69.2986 31.771 70.0606 31.515C69.5526 30.756 68.2307 31.263 68.2307 31.263C68.2307 31.263 67.9266 30.246 69.9576 29.588C69.7046 29.027 68.2307 28.926 68.2307 28.926C68.2307 28.926 68.2307 27.402 71.5327 26.843C68.7907 24.864 64.5746 27.607 66.6086 32.888C60.4116 29.332 55.8906 33.702 55.8906 33.702C55.8906 33.702 59.7496 32.178 61.0706 33.141C60.1046 33.497 60.4096 34.411 60.4096 34.411Z" fill="#9E4141"/>
<path d="M138.696 21.0621C136.72 23.5871 132.057 28.4141 123.665 28.4141C114.008 28.4141 107.151 22.0501 98.3741 22.0501C96.1811 22.0501 93.7661 22.5981 93.0541 22.8201C92.3391 23.0381 93.0541 23.3131 93.0541 23.3131C93.0541 23.3131 94.5351 22.7091 98.2101 22.7091C107.974 22.7091 114.83 29.7891 125.312 29.7891C134.636 29.7891 141.383 25.3991 140.889 20.1871C140.889 20.1871 140.671 18.5371 138.696 21.0621Z" fill="#9E4141"/>
<path d="M39.6249 29.7882C50.1039 29.7882 56.9629 22.7082 66.7279 22.7082C70.4029 22.7082 71.8839 23.3122 71.8839 23.3122C71.8839 23.3122 72.5989 23.0372 71.8839 22.8192C71.1709 22.5972 68.7569 22.0492 66.5619 22.0492C57.7869 22.0492 50.93 28.4132 41.271 28.4132C32.88 28.4132 28.2159 23.5872 26.2409 21.0612C24.2669 18.5362 24.0489 20.1852 24.0489 20.1852C23.5549 25.3982 30.3009 29.7882 39.6249 29.7882Z" fill="#9E4141"/>
<path d="M49.7368 13.2044C48.7938 14.0004 47.3227 17.3174 45.2617 17.8394C45.2617 17.8394 48.9878 20.9344 52.2028 17.9894C51.3158 19.9514 51.6468 22.4014 53.0598 23.3724C53.0598 23.3724 52.9017 22.3684 53.8907 21.8954C54.8797 21.4224 56.8268 22.3694 57.8588 19.4444C58.8908 16.5194 60.4667 14.9474 63.9767 16.4964C64.8047 16.8624 68.4227 18.7934 71.1357 22.2964C69.0967 17.8184 63.1067 12.3974 55.8607 14.6524C58.5777 12.2754 62.0847 13.2324 64.3417 14.6264C61.3517 11.5364 56.6127 9.12242 50.7537 10.2174C50.8007 11.0404 51.8548 12.5784 52.6868 12.8734C52.6868 12.8734 50.6808 12.4114 49.7368 13.2044Z" fill="#9E4141"/>
<path d="M8.63 28.644C9.617 28.171 11.565 29.122 12.598 26.198C13.63 23.273 15.205 21.701 18.715 23.249C19.543 23.612 23.16 25.543 25.874 29.049C23.836 24.569 17.846 19.15 10.6 21.405C13.316 19.028 16.825 19.985 19.081 21.379C16.089 18.286 11.35 15.871 5.49298 16.97C5.53898 17.789 6.59399 19.327 7.42499 19.626C7.42499 19.626 5.41999 19.163 4.47699 19.959C3.53199 20.755 2.062 24.069 0 24.589C0 24.589 3.72502 27.689 6.94202 24.74C6.05402 26.704 6.386 29.152 7.797 30.123C7.797 30.123 7.64 29.119 8.63 28.644Z" fill="#9E4141"/>
<path d="M113.118 10.2164C107.261 9.12145 102.522 11.5354 99.5323 14.6254C101.789 13.2314 105.295 12.2744 108.011 14.6514C100.766 12.3954 94.7783 17.8175 92.7363 22.2955C95.4483 18.7925 99.0694 16.8614 99.8964 16.4954C103.406 14.9464 104.982 16.5184 106.013 19.4434C107.043 22.3684 108.99 21.4215 109.982 21.8945C110.969 22.3685 110.812 23.3714 110.812 23.3714C112.225 22.4004 112.556 19.9504 111.667 17.9884C114.884 20.9324 118.608 17.8385 118.608 17.8385C116.549 17.3175 115.079 13.9994 114.135 13.2034C113.192 12.4104 111.186 12.8714 111.186 12.8714C112.018 12.5774 113.072 11.0394 113.118 10.2164Z" fill="#9E4141"/>
<path d="M138.283 29.049C140.997 25.543 144.615 23.613 145.442 23.249C148.951 21.701 150.528 23.273 151.56 26.198C152.592 29.123 154.54 28.172 155.528 28.644C156.517 29.119 156.359 30.122 156.359 30.122C157.772 29.151 158.104 26.703 157.215 24.739C160.432 27.687 164.156 24.588 164.156 24.588C162.097 24.068 160.626 20.754 159.682 19.958C158.739 19.162 156.734 19.625 156.734 19.625C157.563 19.326 158.618 17.788 158.666 16.969C152.809 15.87 148.069 18.285 145.078 21.378C147.335 19.984 150.841 19.027 153.557 21.404C146.312 19.149 140.325 24.568 138.283 29.049Z" fill="#9E4141"/>
<path d="M81.0465 14.2015C81.5935 14.6615 82.1564 15.1085 82.7274 15.5455C82.9174 15.6935 83.1055 15.8375 83.2965 15.9815C83.5875 16.2065 83.9255 16.4045 84.2775 16.5155C84.3835 16.5515 84.4954 16.5795 84.6024 16.5925C84.8374 16.6295 85.0725 16.6195 85.3045 16.5485C85.6195 16.4545 85.8885 16.2495 86.1175 16.0045C86.2285 15.8865 86.3325 15.7635 86.4265 15.6325C86.5685 15.4305 86.6954 15.2215 86.8104 15.0035C86.9934 14.6575 87.1385 14.2925 87.2435 13.9155C87.2835 13.7745 87.3205 13.6345 87.3485 13.4885C87.4575 12.9415 87.6724 11.7395 87.2874 11.2565C87.2324 11.1865 87.1854 11.1545 87.1384 11.1495C87.0344 11.1325 86.9325 11.2255 86.7595 11.2995C85.8015 11.7095 84.7535 11.8335 83.7425 12.0425C83.4825 12.0955 82.1075 12.5315 81.2575 13.0155C80.7205 13.3185 80.3894 13.6415 80.6804 13.8925C80.8004 13.9975 80.9235 14.0975 81.0465 14.2015Z" fill="#9E4141"/>
<path d="M86.6942 19.5954C87.8472 19.4204 88.8191 18.8094 89.8331 18.2954C90.3741 18.0234 90.9191 17.7554 91.4761 17.5234C92.0771 17.2714 92.6942 17.0904 93.3242 16.9624C93.8802 16.8484 94.4431 16.7744 95.0181 16.7334C95.4261 16.7074 95.5791 16.5154 95.4851 16.1454C95.4781 16.1224 95.4741 16.0994 95.4641 16.0714C95.3571 15.7424 95.2061 15.4304 95.0811 15.1124C95.0781 15.1014 95.0711 15.0914 95.0671 15.0814C94.7961 14.4034 94.3412 13.8434 93.8942 13.2744C93.5332 12.8174 92.8041 11.9604 92.1151 11.8574C91.9851 11.8374 91.8552 11.8444 91.7302 11.8874C91.3532 12.0154 91.0682 12.3214 90.7982 12.6164C90.6622 12.7644 90.0772 13.4434 89.3712 14.2354C89.0862 14.5614 88.7802 14.9004 88.4752 15.2364C88.1622 15.5784 87.8561 15.9114 87.5751 16.2034C86.9801 16.8244 86.5071 17.2704 86.3861 17.2544C86.3791 17.2514 86.3751 17.2514 86.3691 17.2474C87.1881 17.9224 87.0682 18.7344 86.5662 19.5844C86.6412 19.5914 86.6702 19.5974 86.6942 19.5954Z" fill="#9E4141"/>
<path d="M78.1946 10.2164C78.0886 10.4444 78.0116 10.6524 78.2386 10.8974C78.6186 11.3084 78.9496 11.7604 79.2796 12.2114C79.3906 12.3624 79.4616 12.4404 79.5416 12.4504C79.6236 12.4634 79.7176 12.4094 79.8766 12.2984C80.3726 11.9664 80.8856 11.6554 81.4126 11.3724C82.0476 11.0294 82.7196 10.7574 83.3466 10.4084C83.8076 10.1524 84.2376 9.84743 84.6696 9.54843C84.7136 9.51943 84.7616 9.48843 84.8046 9.45843C85.2016 9.18643 85.5746 8.89042 85.9196 8.56442C86.2346 8.27242 86.5256 7.95342 86.7926 7.60742C86.8056 7.58742 86.8226 7.56643 86.8396 7.54943C86.9666 7.37843 87.0106 7.16644 87.0786 6.96844C87.0236 7.13044 86.0676 7.28744 85.9006 7.32544C85.7766 7.35144 85.6506 7.37144 85.5256 7.39544C85.2246 7.44444 84.9196 7.48844 84.6146 7.51144C83.9516 7.55544 83.2846 7.52843 82.6296 7.42743C82.4266 7.39843 82.2266 7.36142 82.0256 7.31842C81.2526 7.14642 80.5736 6.88042 79.9436 6.53942C79.1296 6.09942 78.3966 5.53144 77.6516 4.87344C77.5526 4.78544 77.4226 4.73243 77.2876 4.71243C77.0326 4.67243 76.7556 4.74944 76.6276 4.93844C76.4266 5.22644 76.3086 5.55542 76.3386 5.91342C76.3426 5.96142 76.3496 6.00843 76.3526 6.05243C76.3866 6.42143 76.4266 6.79142 76.4636 7.15942C76.4706 7.22442 76.4766 7.28442 76.4826 7.34542C76.5146 7.67442 76.5476 8.00044 76.5806 8.32544C76.6076 8.62044 76.6386 8.91743 76.6686 9.21243C76.6736 9.26643 76.6886 9.33344 76.7256 9.36544C77.0376 9.66544 77.3536 9.95744 77.7006 10.2824C77.9916 9.68444 78.0656 9.10742 78.0186 8.54342C77.9856 8.13742 77.8906 7.73743 77.7656 7.34143C77.7026 7.14043 77.6336 6.93942 77.5616 6.73742C77.7706 6.95142 77.9616 7.17041 78.1456 7.39141C78.2386 7.50141 78.3316 7.61344 78.4176 7.72744C78.6316 8.01544 78.7436 8.32942 78.7536 8.65142C78.7616 8.86242 78.7266 9.07742 78.6446 9.29242C78.5216 9.61142 78.3366 9.90743 78.1946 10.2164Z" fill="#9E4141"/>
<path d="M79.417 4.79419C79.283 4.89419 79.115 5.02621 78.918 5.17621C79.775 5.62621 80.506 6.18019 81.443 6.55319C81.398 6.27519 81.379 6.08618 81.338 5.90518C81.217 5.35818 81.258 4.85019 81.741 4.49219C81.957 4.33119 82.208 4.18618 82.466 4.11218C82.994 3.96218 83.538 3.86119 84.113 3.72919C84.027 3.65919 83.955 3.5872 83.876 3.5292C83.401 3.1922 82.832 3.1252 82.286 3.0022C82.22 2.9872 82.151 2.9742 82.086 2.9642C81.501 2.8772 80.928 2.9812 80.479 3.3742C79.913 3.8712 79.717 4.0022 80.191 4.6932C80.36 4.9392 80.566 5.15319 80.756 5.38119C80.747 5.39919 80.737 5.4112 80.728 5.4252C80.297 5.2172 79.867 5.00919 79.417 4.79419Z" fill="#9E4141"/>
<path d="M80.4036 13.087C80.4866 13.048 80.5636 12.987 80.6366 12.923C80.6996 12.869 80.7566 12.816 80.8186 12.77C81.3276 12.386 81.8846 12.017 82.4766 11.779C82.9996 11.567 83.6016 11.52 84.1566 11.386C85.2696 11.114 86.3826 10.707 87.2556 9.94799C87.3156 9.89299 87.3776 9.845 87.4376 9.79C87.7046 9.531 87.9376 9.24301 88.1446 8.93401C88.3596 8.61601 88.5476 8.28001 88.7166 7.93001C88.7776 7.80601 88.8356 7.68201 88.8916 7.55401C89.0816 7.13101 89.2536 6.681 89.2136 6.221C89.1856 5.871 88.7096 5.118 88.2466 5.048C88.1336 5.031 88.0176 5.05601 87.9136 5.14001C87.5716 5.40901 87.8586 6.177 87.8036 6.54C87.7396 6.949 87.5986 7.34199 87.4056 7.71099C87.2596 7.98699 87.0856 8.24799 86.8876 8.48699C86.8276 8.55699 86.7626 8.625 86.6996 8.695C86.3506 9.068 85.9496 9.39401 85.5206 9.67901C85.0776 9.97801 84.6056 10.236 84.1296 10.478C83.3616 10.868 82.5746 11.22 81.8346 11.657C81.2906 11.979 80.6206 12.315 80.2616 12.862C80.1976 12.963 80.1436 13.067 80.0996 13.178C80.1176 13.141 80.3406 13.117 80.3836 13.098C80.3906 13.093 80.3966 13.091 80.4036 13.087Z" fill="#9E4141"/>
<path d="M82.4542 4.76173C82.2272 4.87673 82.0202 5.05073 81.9132 5.27873C81.7752 5.58073 81.8252 5.95071 82.0032 6.22871C82.3102 6.72271 82.9033 6.93773 83.4713 7.02473C83.5853 7.04173 83.6983 7.05472 83.8073 7.06172C84.0033 7.07572 84.2162 7.0657 84.3742 6.9477C84.5512 6.8097 84.6063 6.54471 84.5183 6.34071C84.4333 6.14271 84.2342 6.0077 84.0222 5.9737C84.0142 5.9737 84.0042 5.97071 83.9992 5.97071C83.6372 5.93071 83.3972 6.15471 83.1512 6.37971C83.1282 6.24871 83.1792 6.11473 83.2592 6.01173C83.3422 5.90773 83.4542 5.83272 83.5692 5.76972C83.8772 5.60572 84.2243 5.51372 84.5703 5.50672C84.6503 5.50672 84.7332 5.5107 84.8112 5.5257C84.9722 5.5477 85.1252 5.60571 85.2412 5.71571C85.3722 5.83971 85.4393 6.02473 85.4213 6.20573C85.3963 6.42773 85.2082 6.62872 85.0692 6.79072C85.0692 6.79372 85.0692 6.79371 85.0692 6.79371C85.0452 6.88471 85.0972 6.92173 85.1772 6.93473C85.1902 6.93473 85.2003 6.93873 85.2133 6.93873C85.2133 6.93873 85.2152 6.93873 85.2192 6.93873H85.2213C85.6473 6.88073 86.0682 6.77673 86.4872 6.69673C86.7692 6.63873 87.4302 6.65372 87.2642 6.17872C87.2332 6.09172 87.1782 6.01171 87.1372 5.92771C87.0492 5.75271 87.0162 5.55472 87.0352 5.35972C87.0392 5.29572 87.0873 5.1897 87.1223 5.0857C87.1623 4.9707 87.1882 4.86072 87.1392 4.80372C87.0492 4.78272 86.9612 4.76672 86.8702 4.75272C86.7662 4.73572 86.6613 4.72372 86.5573 4.70872C86.4773 4.69572 86.3962 4.68272 86.3162 4.66572C85.9932 4.59172 85.6782 4.49372 85.3522 4.43372C85.3052 4.42372 85.2572 4.41672 85.2072 4.41172C84.3272 4.27572 83.2472 4.36673 82.4542 4.76173Z" fill="#9E4141"/>
<path d="M73.7904 3.85181C73.3844 4.13481 72.9574 4.4068 72.6344 4.7858C72.4524 4.9988 72.3304 5.2428 72.2644 5.5018C72.1704 5.8588 72.1824 6.23679 72.2924 6.59079C72.4004 6.93279 72.6024 7.2488 72.8924 7.4888C72.9274 7.5168 72.9704 7.54681 73.0144 7.56281C73.4044 7.69381 73.7974 7.81481 74.1834 7.95881C74.1944 7.96181 74.2044 7.96881 74.2124 7.97181C74.5494 8.10281 74.8784 8.2548 75.2034 8.4058C75.4374 8.5168 75.6644 8.6518 75.9264 8.7898C75.9364 8.6878 75.9514 8.64179 75.9454 8.59879C75.9324 8.47379 75.9194 8.3498 75.9044 8.2248C75.8614 7.8388 75.8114 7.45281 75.7684 7.06781C75.7274 6.69781 75.6904 6.3328 75.6664 5.9628C75.6494 5.6848 75.6414 5.4058 75.6434 5.1268C75.6494 4.8178 75.6754 4.4888 75.8644 4.2428C76.0844 3.9618 76.4784 3.8708 76.8354 3.9238C76.8684 3.9278 76.9024 3.9358 76.9364 3.9458C77.3044 4.0328 77.5664 4.36182 77.9294 4.43482C77.9434 4.43882 77.9544 4.44181 77.9674 4.44181C78.3234 4.49581 78.7044 4.2918 78.9444 4.0448C79.2794 3.7028 79.4744 3.2528 79.7744 2.8808C80.1604 2.3998 80.7204 2.0778 81.3224 1.9538C81.6104 1.8938 81.8454 1.89382 82.0674 1.92582C82.4304 1.98082 82.7454 2.12781 83.1714 2.26581C83.2524 2.29281 83.3324 2.31279 83.4154 2.32279C83.6144 2.35379 83.8184 2.34381 84.0034 2.26581C85.1224 1.81281 84.0084 1.02679 83.5154 0.697789C83.0114 0.355789 82.4234 0.1438 81.8184 0.0527995C81.4324 -0.00520045 81.0404 -0.01419 80.6534 0.01981C79.3304 0.14081 78.0974 0.745799 76.9934 1.4838C75.8874 2.2168 74.8814 3.09281 73.7904 3.85181Z" fill="#9E4141"/>
<path d="M68.3347 12.0465C67.9617 12.1975 67.6027 12.3625 67.3327 12.6875V12.6914C67.2897 12.7654 67.2607 12.8495 67.2487 12.9335C67.2387 12.9875 67.2378 13.0434 67.2448 13.1044C67.2658 13.2244 67.3257 13.3394 67.4007 13.4404C67.4007 13.4404 67.4027 13.4404 67.4027 13.4444C67.4467 13.4934 67.4938 13.5374 67.5418 13.5784C67.8268 13.8194 68.1147 14.0584 68.4047 14.2944C68.4057 14.2964 68.4057 14.2965 68.4077 14.2965C68.4287 14.3145 68.4507 14.3274 68.4747 14.3444C68.9987 14.7074 69.5228 15.0794 70.0158 15.4824C70.0218 15.4894 70.0267 15.4924 70.0327 15.4974C70.5867 15.9304 71.1537 16.3495 71.5137 16.9805C71.5507 17.0445 71.5857 17.1054 71.6207 17.1684L71.6247 17.1715C72.2117 18.0145 72.6507 18.9484 73.1707 19.8444C73.6117 20.6064 74.2747 21.0174 75.0637 21.1374C75.2247 21.1604 75.3898 21.1745 75.5598 21.1745C76.4158 21.1815 77.2768 21.0505 78.1328 20.9805C78.1358 20.9535 78.1407 20.9295 78.1447 20.9035C77.6147 20.5235 77.0597 20.1744 76.5577 19.7584C75.2627 18.6914 74.1227 17.4574 73.2127 16.0444C72.8037 15.4094 72.4407 14.7444 72.1287 14.0564C72.0877 13.9694 72.0547 13.8785 72.0177 13.7915C71.8567 13.4075 71.7157 13.0184 71.5777 12.6254C71.4937 12.3914 71.4107 12.1555 71.3197 11.9205C71.2567 11.7525 71.1938 11.5544 70.9898 11.5254C70.9618 11.5184 70.9297 11.5184 70.8927 11.5214C70.0757 11.5914 69.2607 11.6784 68.4887 11.9884C68.4367 12.0054 68.3877 12.0255 68.3347 12.0465Z" fill="#9E4141"/>
<path d="M92.0706 8.5307C92.0126 8.9137 91.8016 9.2247 91.5406 9.5007C91.5346 9.4977 91.5286 9.49771 91.5226 9.49771C91.1896 9.84771 90.7626 10.1357 90.4306 10.4387C90.4276 10.4387 90.4246 10.4417 90.4206 10.4457C89.7596 11.0567 89.1546 11.7347 88.6616 12.4897C88.5906 12.5977 88.5226 12.7057 88.4596 12.8127C88.2306 13.1957 88.0326 13.5977 87.8546 14.0077C87.8226 14.0777 87.7916 14.1487 87.7616 14.2187C87.6576 14.4647 87.5606 14.7127 87.4616 14.9617C87.4486 15.0017 87.4286 15.0457 87.4086 15.0887C87.3206 15.2827 87.1996 15.5157 87.1996 15.6937C87.2746 15.6967 87.3616 15.5727 87.4046 15.5117C87.5016 15.3837 87.5926 15.2557 87.6866 15.1247C87.8756 14.8627 88.0626 14.5997 88.2746 14.3547C88.3486 14.2707 88.4216 14.1877 88.4966 14.1037C89.1356 13.3687 89.7786 12.6367 90.4206 11.9077C90.8236 11.4517 91.2676 11.0387 91.7176 10.6337C92.0566 10.3287 92.4026 10.0297 92.7356 9.71472C92.7386 9.71072 92.7456 9.70371 92.7486 9.69971C92.9566 9.50571 93.1576 9.3007 93.3506 9.0827C93.4006 9.0247 93.4516 8.96871 93.4996 8.91171C93.5416 8.86071 93.5806 8.8137 93.6216 8.7637C94.0376 8.2397 94.3736 7.6657 94.5356 7.0217C94.8006 5.9577 94.4776 4.6877 93.5446 4.1167C92.2636 3.3347 90.8126 2.65572 89.3806 2.21372C88.9276 2.07272 88.4026 1.92771 87.8726 1.84671C86.6706 1.66671 85.4286 1.8047 84.8536 3.0267C84.8156 3.1097 85.0516 3.2047 85.3676 3.2887C85.7266 3.3857 86.1896 3.4737 86.4656 3.5137C86.5836 3.5347 86.6656 3.54471 86.6946 3.54471C87.3726 3.53771 87.9976 3.28872 88.6856 3.33972C88.7986 3.34672 88.9156 3.3597 89.0276 3.3757C89.7066 3.4797 90.3436 3.7457 90.8456 4.2287C91.3636 4.7297 91.8676 5.24571 92.3746 5.75971C92.4256 5.80971 92.4486 5.8837 92.5296 6.0217C92.2676 5.9107 92.0736 5.8547 91.9106 5.7497C91.4116 5.4277 90.9416 5.04769 90.4206 4.76669C90.0986 4.59569 89.7116 4.5777 89.3596 4.5007C89.3526 4.6847 89.4416 4.77871 89.5376 4.94071C89.6466 5.12571 89.7366 5.3197 89.8056 5.5257C89.9476 5.9307 90.0036 6.36371 89.9696 6.79471C89.9336 7.24371 89.7946 7.68472 89.5736 8.07672C89.5706 8.08072 89.5686 8.08772 89.5666 8.09372C89.3656 8.44372 89.0896 8.7367 88.8416 9.0517C88.7926 9.1117 88.7446 9.1687 88.7006 9.2327C88.5026 9.5117 88.3006 9.7907 88.1246 10.0827C88.1126 10.1027 88.0996 10.1197 88.0876 10.1407C87.7546 10.7007 87.8356 11.3047 87.9616 11.9077C87.9846 12.0177 88.0216 12.1227 88.0556 12.2397C88.3236 11.8157 88.5426 11.4037 88.8836 11.0267C89.1106 10.7797 89.3526 10.5437 89.5966 10.3077C89.7196 10.1917 89.8446 10.0767 89.9666 9.95871C90.1736 9.76071 90.3756 9.55571 90.5676 9.33771C90.8356 9.03771 91.0736 8.71371 91.2526 8.35971C91.3206 8.22871 91.3856 8.09172 91.4316 7.95072C91.5396 7.64372 91.6866 7.28571 92.0736 7.34271C92.0806 7.34671 92.0866 7.34671 92.0906 7.34671C92.1066 7.79271 92.1346 8.10171 92.0466 8.46771C92.0466 8.47471 92.0456 8.48472 92.0436 8.49472C92.0536 8.49472 92.0646 8.49771 92.0746 8.49771V8.5007C92.0736 8.5097 92.0706 8.5237 92.0706 8.5307Z" fill="#9E4141"/>
<path d="M70.7414 7.85556C70.4154 7.88456 70.2004 7.94256 69.9414 8.13656C70.4484 8.45956 71.0704 8.66354 71.6204 8.90454C72.1954 9.15654 72.7704 9.40554 73.3344 9.68054C74.0274 10.0165 74.7074 10.3965 75.3314 10.8495C75.6474 11.0775 75.9454 11.3235 76.2274 11.5945C76.4594 11.8165 76.6234 12.0706 76.8014 12.3296C76.8334 12.3776 76.8644 12.4235 76.8994 12.4705C76.9414 12.5285 77.0364 12.6026 76.9424 12.6396C76.9394 12.6426 76.9364 12.6426 76.9324 12.6396C76.8694 12.6316 76.5834 12.3875 76.4494 12.2765C76.4214 12.2535 76.3954 12.2336 76.3864 12.2256C76.1924 12.0846 75.9934 11.9476 75.7914 11.8126C75.3894 11.5476 74.9764 11.2955 74.5554 11.0605C73.7424 10.6105 72.9034 10.2495 72.0434 9.90155C71.8874 9.84255 71.5504 9.77056 71.4424 9.63256C71.4384 9.67756 71.4344 9.70354 71.4374 9.72454C71.4384 9.72754 71.4384 9.73155 71.4384 9.73455C71.5914 10.3766 71.8434 11.0005 72.1184 11.6045C72.2264 11.8465 72.3394 12.0875 72.4504 12.3235C72.5274 12.4875 72.6054 12.6495 72.6844 12.8105C72.8864 13.2165 73.0994 13.6165 73.3224 14.0085C73.4544 14.2405 73.5864 14.4685 73.7264 14.6985C74.2034 15.4765 74.7234 16.2326 75.2844 16.9586C75.5654 17.3236 75.8614 17.6836 76.1634 18.0326C76.4544 18.3656 76.7654 18.6465 77.0744 18.9535C77.7194 19.5945 78.4644 20.1076 79.2644 20.5376C79.7464 20.7966 80.3194 20.9746 80.9264 21.0676C82.5284 21.3096 84.3644 20.9406 85.3754 19.7916C85.6854 19.4396 86.1784 18.3175 85.7634 17.8575C85.7144 17.8035 85.6514 17.7576 85.5734 17.7226C84.1514 17.1126 82.9014 16.3196 81.7454 15.4116C81.1984 14.9826 80.6714 14.5255 80.1614 14.0525C79.6644 13.5925 79.1814 13.1135 78.7044 12.6215C78.0674 11.9665 77.4404 11.2885 76.8104 10.6035C76.4884 10.2965 76.1524 10.0056 75.8054 9.72656C75.0654 9.13856 74.2504 8.63454 73.3704 8.29254C72.8934 8.11054 72.4014 7.95956 71.9004 7.88656C71.5184 7.82856 71.1324 7.81456 70.7414 7.85556Z" fill="#9E4141"/>
<path d="M79.4569 43.5011C79.4569 46.3501 80.4559 47.7631 82.6829 47.7631C84.9099 47.7631 85.9369 46.3961 85.9369 43.5011C85.9369 42.2861 85.5179 40.4421 84.8349 38.3601C84.4449 37.1751 83.9729 35.9091 83.4389 34.6361C83.9929 33.4301 84.6339 32.1201 85.3609 30.7101C86.4919 28.5211 87.8319 26.0791 89.4019 23.3721C87.7199 23.9501 85.5799 27.0391 83.7149 30.7101C83.3539 31.4181 83.0049 32.1501 82.6689 32.8891C82.3299 32.1511 81.9749 31.4181 81.6079 30.7101C79.7479 27.1061 77.6249 24.0781 75.9629 23.4461C77.4909 26.1221 78.8039 28.5371 79.9229 30.7101C80.6609 32.1501 81.3179 33.4861 81.8829 34.7131C81.3709 35.9621 80.9169 37.1971 80.5419 38.3591C79.8679 40.4491 79.4569 42.2901 79.4569 43.5011ZM81.8759 38.3601C82.1029 37.7521 82.3559 37.1111 82.6449 36.4261C82.9369 37.1111 83.1989 37.7511 83.4289 38.3601C85.4749 43.7471 85.1139 46.2081 82.6819 46.2081C80.3289 46.2081 79.8579 43.7761 81.8759 38.3601Z" fill="#9E4141"/>
</svg>
